M48
; DRILL file {KiCad 5.1.5} date Di 28 Apr 2020 21:38:50
; FORMAT={-:-/ absolute / metric / decimal}
; #@! TF.CreationDate,2020-04-28T21:38:50+02:00
; #@! TF.GenerationSoftware,Kicad,Pcbnew,5.1.5
; #@! TF.FileFunction,Plated,1,2,PTH
FMAT,2
METRIC
T1C0.400
T2C0.600
T3C1.000
%
G90
G05
T1
X157.099Y-85.979
X159.258Y-86.106
X160.909Y-88.011
X163.449Y-89.789
X165.125Y-86.131
X167.157Y-93.345
X167.564Y-86.893
X167.716Y-92.481
X169.291Y-93.599
X169.545Y-86.131
X169.596Y-87.249
X171.831Y-95.631
X173.355Y-136.525
X174.307Y-134.518
X174.879Y-86.856
X175.641Y-99.441
X176.251Y-98.577
X176.301Y-133.528
X176.657Y-130.429
X177.419Y-124.689
X177.6Y-99.984
X177.825Y-126.822
X177.927Y-86.995
X178.486Y-125.095
X178.625Y-131.381
X179.705Y-101.473
X179.705Y-121.031
X179.908Y-86.944
X179.959Y-85.827
X180.619Y-114.783
X181.127Y-116.967
X181.635Y-115.138
X182.855Y-128.295
X183.007Y-111.125
X183.515Y-129.108
X183.756Y-105.296
X184.633Y-127.33
X184.671Y-104.991
X185.141Y-86.385
X185.293Y-106.807
X187.811Y-124.565
X188.545Y-87.64
X189.763Y-85.877
X190.475Y-86.843
X192.183Y-123.329
X192.506Y-81.183
X193.04Y-76.708
X193.167Y-120.98
X193.421Y-78.613
X194.056Y-76.962
X194.945Y-105.771
X195.364Y-72.062
X196.215Y-66.929
X196.312Y-99.487
X196.469Y-68.707
X196.54Y-100.427
X196.596Y-118.633
X196.672Y-101.757
X197.231Y-67.056
X197.612Y-108.331
X197.676Y-104.464
X198.288Y-112.939
X198.603Y-108.179
X198.882Y-61.976
X199.212Y-106.909
X199.365Y-93.853
X199.517Y-59.309
X199.974Y-116.931
X200.406Y-54.991
X200.66Y-56.99
X200.914Y-62.484
X201.193Y-105.385
X201.647Y-113.097
X202.057Y-82.474
X202.057Y-117.234
X202.108Y-109.55
X202.311Y-65.151
X202.56Y-106.477
X202.793Y-67.059
X203.454Y-93.091
X203.708Y-66.675
X203.733Y-111.074
X204.216Y-72.39
X204.648Y-106.949
X204.851Y-104.064
X205.003Y-109.55
X205.359Y-75.311
X205.481Y-106.512
X205.867Y-77.089
X206.517Y-104.592
X207.01Y-76.581
X207.264Y-81.153
X207.393Y-121.179
X207.899Y-85.598
X207.903Y-123.229
X209.103Y-87.529
X209.833Y-86.419
X210.388Y-123.317
X212.725Y-125.603
X215.333Y-105.049
X215.57Y-86.233
X216.027Y-102.997
X216.343Y-105.329
X216.543Y-129.169
X216.941Y-110.719
X217.043Y-128.339
X217.678Y-113.157
X218.059Y-87.249
X218.353Y-115.149
X218.669Y-129.362
X219.373Y-114.739
X220.04Y-87.3
X220.091Y-86.081
X220.243Y-119.879
X220.345Y-100.965
X220.853Y-123.012
X221.763Y-124.979
X222.394Y-131.428
X222.683Y-124.659
X223.303Y-129.919
X223.963Y-98.869
X224.533Y-99.639
X224.828Y-132.474
X224.966Y-135.061
X225.171Y-97.409
X225.527Y-86.233
X226.187Y-136.525
X228.243Y-95.889
X228.473Y-87.249
X230.454Y-87.046
X230.493Y-86.079
X232.363Y-92.719
X232.973Y-93.499
X233.933Y-91.409
X235.633Y-86.869
X236.601Y-88.519
X238.633Y-86.741
X241.046Y-87.122
X242.951Y-86.284
T3
X208.5Y-101.75
X211.04Y-101.75
X213.58Y-101.75
X186.42Y-101.75
X188.96Y-101.75
X191.5Y-101.75
T2
G00X195.38Y-120.668
M15
G01X195.38Y-119.668
M16
G05
G00X195.68Y-115.308
M15
G01X195.68Y-114.308
M16
G05
G00X204.32Y-115.308
M15
G01X204.32Y-114.308
M16
G05
G00X204.62Y-120.668
M15
G01X204.62Y-119.668
M16
G05
T0
M30
