G04 #@! TF.GenerationSoftware,KiCad,Pcbnew,5.1.5*
G04 #@! TF.CreationDate,2020-04-28T21:36:49+02:00*
G04 #@! TF.ProjectId,movingstar,6d6f7669-6e67-4737-9461-722e6b696361,rev?*
G04 #@! TF.SameCoordinates,Original*
G04 #@! TF.FileFunction,Soldermask,Bot*
G04 #@! TF.FilePolarity,Negative*
%FSLAX46Y46*%
G04 Gerber Fmt 4.6, Leading zero omitted, Abs format (unit mm)*
G04 Created by KiCad (PCBNEW 5.1.5) date 2020-04-28 21:36:49*
%MOMM*%
%LPD*%
G04 APERTURE LIST*
%ADD10C,0.100000*%
G04 APERTURE END LIST*
D10*
G36*
X195497818Y-119075696D02*
G01*
X195611105Y-119110062D01*
X195715512Y-119165869D01*
X195807027Y-119240973D01*
X195882131Y-119332488D01*
X195937938Y-119436895D01*
X195972304Y-119550182D01*
X195981000Y-119638481D01*
X195981000Y-120697519D01*
X195972304Y-120785818D01*
X195937938Y-120899105D01*
X195882131Y-121003512D01*
X195882130Y-121003513D01*
X195807027Y-121095027D01*
X195731923Y-121156662D01*
X195715511Y-121170131D01*
X195611104Y-121225938D01*
X195497817Y-121260304D01*
X195380000Y-121271907D01*
X195262182Y-121260304D01*
X195148895Y-121225938D01*
X195044488Y-121170131D01*
X195030572Y-121158711D01*
X194952973Y-121095027D01*
X194877870Y-121003512D01*
X194877869Y-121003511D01*
X194822062Y-120899104D01*
X194787696Y-120785817D01*
X194779000Y-120697518D01*
X194779001Y-119638481D01*
X194787697Y-119550182D01*
X194822063Y-119436895D01*
X194877870Y-119332488D01*
X194952974Y-119240973D01*
X195044489Y-119165869D01*
X195148896Y-119110062D01*
X195262183Y-119075696D01*
X195380000Y-119064093D01*
X195497818Y-119075696D01*
G37*
G36*
X204737818Y-119075696D02*
G01*
X204851105Y-119110062D01*
X204955512Y-119165869D01*
X205047027Y-119240973D01*
X205122131Y-119332488D01*
X205177938Y-119436895D01*
X205212304Y-119550182D01*
X205221000Y-119638481D01*
X205221000Y-120697519D01*
X205212304Y-120785818D01*
X205177938Y-120899105D01*
X205122131Y-121003512D01*
X205122130Y-121003513D01*
X205047027Y-121095027D01*
X204971923Y-121156662D01*
X204955511Y-121170131D01*
X204851104Y-121225938D01*
X204737817Y-121260304D01*
X204620000Y-121271907D01*
X204502182Y-121260304D01*
X204388895Y-121225938D01*
X204284488Y-121170131D01*
X204270572Y-121158711D01*
X204192973Y-121095027D01*
X204117870Y-121003512D01*
X204117869Y-121003511D01*
X204062062Y-120899104D01*
X204027696Y-120785817D01*
X204019000Y-120697518D01*
X204019001Y-119638481D01*
X204027697Y-119550182D01*
X204062063Y-119436895D01*
X204117870Y-119332488D01*
X204192974Y-119240973D01*
X204284489Y-119165869D01*
X204388896Y-119110062D01*
X204502183Y-119075696D01*
X204620000Y-119064093D01*
X204737818Y-119075696D01*
G37*
G36*
X204437818Y-113715696D02*
G01*
X204551105Y-113750062D01*
X204655512Y-113805869D01*
X204747027Y-113880973D01*
X204822131Y-113972488D01*
X204877938Y-114076895D01*
X204912304Y-114190182D01*
X204921000Y-114278481D01*
X204921000Y-115337519D01*
X204912304Y-115425818D01*
X204877938Y-115539105D01*
X204822131Y-115643512D01*
X204822130Y-115643513D01*
X204747027Y-115735027D01*
X204671923Y-115796662D01*
X204655511Y-115810131D01*
X204551104Y-115865938D01*
X204437817Y-115900304D01*
X204320000Y-115911907D01*
X204202182Y-115900304D01*
X204088895Y-115865938D01*
X203984488Y-115810131D01*
X203970572Y-115798711D01*
X203892973Y-115735027D01*
X203817870Y-115643512D01*
X203817869Y-115643511D01*
X203786238Y-115584334D01*
X203772625Y-115563959D01*
X203755298Y-115546632D01*
X203734923Y-115533019D01*
X203712284Y-115523641D01*
X203688251Y-115518861D01*
X203663747Y-115518861D01*
X203639714Y-115523641D01*
X203617075Y-115533019D01*
X203596700Y-115546632D01*
X203579373Y-115563959D01*
X203565760Y-115584334D01*
X203556382Y-115606973D01*
X203551602Y-115631006D01*
X203551000Y-115643258D01*
X203551000Y-116059000D01*
X196449000Y-116059000D01*
X196449000Y-115643258D01*
X196446598Y-115618873D01*
X196439485Y-115595424D01*
X196427934Y-115573813D01*
X196412389Y-115554871D01*
X196393447Y-115539326D01*
X196371836Y-115527775D01*
X196348387Y-115520662D01*
X196324001Y-115518260D01*
X196299615Y-115520662D01*
X196276166Y-115527775D01*
X196254555Y-115539326D01*
X196235613Y-115554871D01*
X196220068Y-115573813D01*
X196213762Y-115584335D01*
X196182131Y-115643512D01*
X196182130Y-115643513D01*
X196107027Y-115735027D01*
X196031923Y-115796662D01*
X196015511Y-115810131D01*
X195911104Y-115865938D01*
X195797817Y-115900304D01*
X195680000Y-115911907D01*
X195562182Y-115900304D01*
X195448895Y-115865938D01*
X195344488Y-115810131D01*
X195330572Y-115798711D01*
X195252973Y-115735027D01*
X195177870Y-115643512D01*
X195177869Y-115643511D01*
X195122062Y-115539104D01*
X195087696Y-115425817D01*
X195079000Y-115337518D01*
X195079001Y-114278481D01*
X195087697Y-114190182D01*
X195122063Y-114076895D01*
X195177870Y-113972488D01*
X195252974Y-113880973D01*
X195344489Y-113805869D01*
X195448896Y-113750062D01*
X195562183Y-113715696D01*
X195680000Y-113704093D01*
X195797818Y-113715696D01*
X195911105Y-113750062D01*
X196015512Y-113805869D01*
X196107027Y-113880973D01*
X196182131Y-113972488D01*
X196237938Y-114076895D01*
X196272304Y-114190182D01*
X196281000Y-114278481D01*
X196281000Y-115132001D01*
X196283402Y-115156387D01*
X196290515Y-115179836D01*
X196302066Y-115201447D01*
X196317611Y-115220389D01*
X196336553Y-115235934D01*
X196358164Y-115247485D01*
X196381613Y-115254598D01*
X196405999Y-115257000D01*
X203594001Y-115257000D01*
X203618387Y-115254598D01*
X203641836Y-115247485D01*
X203663447Y-115235934D01*
X203682389Y-115220389D01*
X203697934Y-115201447D01*
X203709485Y-115179836D01*
X203716598Y-115156387D01*
X203719000Y-115132001D01*
X203719001Y-114278481D01*
X203727697Y-114190182D01*
X203762063Y-114076895D01*
X203817870Y-113972488D01*
X203892974Y-113880973D01*
X203984489Y-113805869D01*
X204088896Y-113750062D01*
X204202183Y-113715696D01*
X204320000Y-113704093D01*
X204437818Y-113715696D01*
G37*
G36*
X203201000Y-114359000D02*
G01*
X200299000Y-114359000D01*
X200299000Y-113557000D01*
X203201000Y-113557000D01*
X203201000Y-114359000D01*
G37*
G36*
X199701000Y-114359000D02*
G01*
X196799000Y-114359000D01*
X196799000Y-113557000D01*
X199701000Y-113557000D01*
X199701000Y-114359000D01*
G37*
G36*
X204159000Y-110467000D02*
G01*
X203257000Y-110467000D01*
X203257000Y-109465000D01*
X204159000Y-109465000D01*
X204159000Y-110467000D01*
G37*
G36*
X201293591Y-109015085D02*
G01*
X201327569Y-109025393D01*
X201358890Y-109042134D01*
X201386339Y-109064661D01*
X201408866Y-109092110D01*
X201425607Y-109123431D01*
X201435915Y-109157409D01*
X201440000Y-109198890D01*
X201440000Y-109800110D01*
X201435915Y-109841591D01*
X201425607Y-109875569D01*
X201408866Y-109906890D01*
X201386339Y-109934339D01*
X201358890Y-109956866D01*
X201327569Y-109973607D01*
X201293591Y-109983915D01*
X201252110Y-109988000D01*
X200575890Y-109988000D01*
X200534409Y-109983915D01*
X200500431Y-109973607D01*
X200469110Y-109956866D01*
X200441661Y-109934339D01*
X200419134Y-109906890D01*
X200402393Y-109875569D01*
X200392085Y-109841591D01*
X200388000Y-109800110D01*
X200388000Y-109198890D01*
X200392085Y-109157409D01*
X200402393Y-109123431D01*
X200419134Y-109092110D01*
X200441661Y-109064661D01*
X200469110Y-109042134D01*
X200500431Y-109025393D01*
X200534409Y-109015085D01*
X200575890Y-109011000D01*
X201252110Y-109011000D01*
X201293591Y-109015085D01*
G37*
G36*
X205109000Y-108467000D02*
G01*
X204207000Y-108467000D01*
X204207000Y-107465000D01*
X205109000Y-107465000D01*
X205109000Y-108467000D01*
G37*
G36*
X203209000Y-108467000D02*
G01*
X202307000Y-108467000D01*
X202307000Y-107465000D01*
X203209000Y-107465000D01*
X203209000Y-108467000D01*
G37*
G36*
X201293591Y-107440085D02*
G01*
X201327569Y-107450393D01*
X201358890Y-107467134D01*
X201386339Y-107489661D01*
X201408866Y-107517110D01*
X201425607Y-107548431D01*
X201435915Y-107582409D01*
X201440000Y-107623890D01*
X201440000Y-108225110D01*
X201435915Y-108266591D01*
X201425607Y-108300569D01*
X201408866Y-108331890D01*
X201386339Y-108359339D01*
X201358890Y-108381866D01*
X201327569Y-108398607D01*
X201293591Y-108408915D01*
X201252110Y-108413000D01*
X200575890Y-108413000D01*
X200534409Y-108408915D01*
X200500431Y-108398607D01*
X200469110Y-108381866D01*
X200441661Y-108359339D01*
X200419134Y-108331890D01*
X200402393Y-108300569D01*
X200392085Y-108266591D01*
X200388000Y-108225110D01*
X200388000Y-107623890D01*
X200392085Y-107582409D01*
X200402393Y-107548431D01*
X200419134Y-107517110D01*
X200441661Y-107489661D01*
X200469110Y-107467134D01*
X200500431Y-107450393D01*
X200534409Y-107440085D01*
X200575890Y-107436000D01*
X201252110Y-107436000D01*
X201293591Y-107440085D01*
G37*
G36*
X206218456Y-106708359D02*
G01*
X206252820Y-106717326D01*
X206284770Y-106732823D01*
X206313082Y-106754254D01*
X206340765Y-106785408D01*
X206373893Y-106831005D01*
X206373895Y-106831007D01*
X206608007Y-107153235D01*
X206738241Y-107332486D01*
X206759316Y-107368444D01*
X206770951Y-107401995D01*
X206775816Y-107437168D01*
X206773725Y-107472618D01*
X206764758Y-107506983D01*
X206749264Y-107538927D01*
X206727827Y-107567246D01*
X206696675Y-107594927D01*
X206651078Y-107628055D01*
X206651076Y-107628057D01*
X206644824Y-107632599D01*
X206210277Y-107948316D01*
X206174313Y-107969395D01*
X206140765Y-107981029D01*
X206105592Y-107985894D01*
X206070142Y-107983803D01*
X206035778Y-107974836D01*
X206003828Y-107959339D01*
X205975516Y-107937908D01*
X205947833Y-107906754D01*
X205778001Y-107673000D01*
X205583486Y-107405274D01*
X205550357Y-107359676D01*
X205529282Y-107323718D01*
X205517647Y-107290167D01*
X205512782Y-107254994D01*
X205514873Y-107219544D01*
X205523840Y-107185179D01*
X205539334Y-107153235D01*
X205560771Y-107124916D01*
X205591923Y-107097235D01*
X205637520Y-107064107D01*
X205637522Y-107064105D01*
X206032727Y-106776972D01*
X206078321Y-106743846D01*
X206114285Y-106722767D01*
X206147833Y-106711133D01*
X206183006Y-106706268D01*
X206218456Y-106708359D01*
G37*
G36*
X198063000Y-107673000D02*
G01*
X197161000Y-107673000D01*
X197161000Y-106671000D01*
X198063000Y-106671000D01*
X198063000Y-107673000D01*
G37*
G36*
X207492658Y-105782597D02*
G01*
X207527022Y-105791564D01*
X207558972Y-105807061D01*
X207587284Y-105828492D01*
X207614967Y-105859646D01*
X207648095Y-105905243D01*
X207648097Y-105905245D01*
X207882209Y-106227473D01*
X208012443Y-106406724D01*
X208033518Y-106442682D01*
X208045153Y-106476233D01*
X208050018Y-106511406D01*
X208047927Y-106546856D01*
X208038960Y-106581221D01*
X208023466Y-106613165D01*
X208002029Y-106641484D01*
X207970877Y-106669165D01*
X207925280Y-106702293D01*
X207925278Y-106702295D01*
X207797383Y-106795216D01*
X207484479Y-107022554D01*
X207448515Y-107043633D01*
X207414967Y-107055267D01*
X207379794Y-107060132D01*
X207344344Y-107058041D01*
X207309980Y-107049074D01*
X207278030Y-107033577D01*
X207249718Y-107012146D01*
X207222035Y-106980992D01*
X207087061Y-106795216D01*
X206857688Y-106479512D01*
X206824559Y-106433914D01*
X206803484Y-106397956D01*
X206791849Y-106364405D01*
X206786984Y-106329232D01*
X206789075Y-106293782D01*
X206798042Y-106259417D01*
X206813536Y-106227473D01*
X206834973Y-106199154D01*
X206866125Y-106171473D01*
X206911722Y-106138345D01*
X206911724Y-106138343D01*
X207306929Y-105851210D01*
X207352523Y-105818084D01*
X207388487Y-105797005D01*
X207422035Y-105785371D01*
X207457208Y-105780506D01*
X207492658Y-105782597D01*
G37*
G36*
X194507000Y-106149000D02*
G01*
X193605000Y-106149000D01*
X193605000Y-105147000D01*
X194507000Y-105147000D01*
X194507000Y-106149000D01*
G37*
G36*
X199013000Y-105673000D02*
G01*
X198111000Y-105673000D01*
X198111000Y-104671000D01*
X199013000Y-104671000D01*
X199013000Y-105673000D01*
G37*
G36*
X197113000Y-105673000D02*
G01*
X196211000Y-105673000D01*
X196211000Y-104671000D01*
X197113000Y-104671000D01*
X197113000Y-105673000D01*
G37*
G36*
X200643351Y-104656445D02*
G01*
X200677329Y-104666753D01*
X200708650Y-104683494D01*
X200736099Y-104706021D01*
X200758626Y-104733470D01*
X200775367Y-104764791D01*
X200785675Y-104798769D01*
X200789760Y-104840250D01*
X200789760Y-105441470D01*
X200785675Y-105482951D01*
X200775367Y-105516929D01*
X200758626Y-105548250D01*
X200736099Y-105575699D01*
X200708650Y-105598226D01*
X200677329Y-105614967D01*
X200643351Y-105625275D01*
X200601870Y-105629360D01*
X199925650Y-105629360D01*
X199884169Y-105625275D01*
X199850191Y-105614967D01*
X199818870Y-105598226D01*
X199791421Y-105575699D01*
X199768894Y-105548250D01*
X199752153Y-105516929D01*
X199741845Y-105482951D01*
X199737760Y-105441470D01*
X199737760Y-104840250D01*
X199741845Y-104798769D01*
X199752153Y-104764791D01*
X199768894Y-104733470D01*
X199791421Y-104706021D01*
X199818870Y-104683494D01*
X199850191Y-104666753D01*
X199884169Y-104656445D01*
X199925650Y-104652360D01*
X200601870Y-104652360D01*
X200643351Y-104656445D01*
G37*
G36*
X193557000Y-104149000D02*
G01*
X192655000Y-104149000D01*
X192655000Y-103147000D01*
X193557000Y-103147000D01*
X193557000Y-104149000D01*
G37*
G36*
X195457000Y-104149000D02*
G01*
X194555000Y-104149000D01*
X194555000Y-103147000D01*
X195457000Y-103147000D01*
X195457000Y-104149000D01*
G37*
G36*
X200643351Y-103081445D02*
G01*
X200677329Y-103091753D01*
X200708650Y-103108494D01*
X200736099Y-103131021D01*
X200758626Y-103158470D01*
X200775367Y-103189791D01*
X200785675Y-103223769D01*
X200789760Y-103265250D01*
X200789760Y-103866470D01*
X200785675Y-103907951D01*
X200775367Y-103941929D01*
X200758626Y-103973250D01*
X200736099Y-104000699D01*
X200708650Y-104023226D01*
X200677329Y-104039967D01*
X200643351Y-104050275D01*
X200601870Y-104054360D01*
X199925650Y-104054360D01*
X199884169Y-104050275D01*
X199850191Y-104039967D01*
X199818870Y-104023226D01*
X199791421Y-104000699D01*
X199768894Y-103973250D01*
X199752153Y-103941929D01*
X199741845Y-103907951D01*
X199737760Y-103866470D01*
X199737760Y-103265250D01*
X199741845Y-103223769D01*
X199752153Y-103189791D01*
X199768894Y-103158470D01*
X199791421Y-103131021D01*
X199818870Y-103108494D01*
X199850191Y-103091753D01*
X199884169Y-103081445D01*
X199925650Y-103077360D01*
X200601870Y-103077360D01*
X200643351Y-103081445D01*
G37*
G36*
X197166591Y-102602085D02*
G01*
X197200569Y-102612393D01*
X197231890Y-102629134D01*
X197259339Y-102651661D01*
X197281866Y-102679110D01*
X197298607Y-102710431D01*
X197308915Y-102744409D01*
X197313000Y-102785890D01*
X197313000Y-103462110D01*
X197308915Y-103503591D01*
X197298607Y-103537569D01*
X197281866Y-103568890D01*
X197259339Y-103596339D01*
X197231890Y-103618866D01*
X197200569Y-103635607D01*
X197166591Y-103645915D01*
X197125110Y-103650000D01*
X196523890Y-103650000D01*
X196482409Y-103645915D01*
X196448431Y-103635607D01*
X196417110Y-103618866D01*
X196389661Y-103596339D01*
X196367134Y-103568890D01*
X196350393Y-103537569D01*
X196340085Y-103503591D01*
X196336000Y-103462110D01*
X196336000Y-102785890D01*
X196340085Y-102744409D01*
X196350393Y-102710431D01*
X196367134Y-102679110D01*
X196389661Y-102651661D01*
X196417110Y-102629134D01*
X196448431Y-102612393D01*
X196482409Y-102602085D01*
X196523890Y-102598000D01*
X197125110Y-102598000D01*
X197166591Y-102602085D01*
G37*
G36*
X198741591Y-102602085D02*
G01*
X198775569Y-102612393D01*
X198806890Y-102629134D01*
X198834339Y-102651661D01*
X198856866Y-102679110D01*
X198873607Y-102710431D01*
X198883915Y-102744409D01*
X198888000Y-102785890D01*
X198888000Y-103462110D01*
X198883915Y-103503591D01*
X198873607Y-103537569D01*
X198856866Y-103568890D01*
X198834339Y-103596339D01*
X198806890Y-103618866D01*
X198775569Y-103635607D01*
X198741591Y-103645915D01*
X198700110Y-103650000D01*
X198098890Y-103650000D01*
X198057409Y-103645915D01*
X198023431Y-103635607D01*
X197992110Y-103618866D01*
X197964661Y-103596339D01*
X197942134Y-103568890D01*
X197925393Y-103537569D01*
X197915085Y-103503591D01*
X197911000Y-103462110D01*
X197911000Y-102785890D01*
X197915085Y-102744409D01*
X197925393Y-102710431D01*
X197942134Y-102679110D01*
X197964661Y-102651661D01*
X197992110Y-102629134D01*
X198023431Y-102612393D01*
X198057409Y-102602085D01*
X198098890Y-102598000D01*
X198700110Y-102598000D01*
X198741591Y-102602085D01*
G37*
G36*
X201992591Y-102348085D02*
G01*
X202026569Y-102358393D01*
X202057890Y-102375134D01*
X202085339Y-102397661D01*
X202107866Y-102425110D01*
X202124607Y-102456431D01*
X202134915Y-102490409D01*
X202139000Y-102531890D01*
X202139000Y-103208110D01*
X202134915Y-103249591D01*
X202124607Y-103283569D01*
X202107866Y-103314890D01*
X202085339Y-103342339D01*
X202057890Y-103364866D01*
X202026569Y-103381607D01*
X201992591Y-103391915D01*
X201951110Y-103396000D01*
X201349890Y-103396000D01*
X201308409Y-103391915D01*
X201274431Y-103381607D01*
X201243110Y-103364866D01*
X201215661Y-103342339D01*
X201193134Y-103314890D01*
X201176393Y-103283569D01*
X201166085Y-103249591D01*
X201162000Y-103208110D01*
X201162000Y-102531890D01*
X201166085Y-102490409D01*
X201176393Y-102456431D01*
X201193134Y-102425110D01*
X201215661Y-102397661D01*
X201243110Y-102375134D01*
X201274431Y-102358393D01*
X201308409Y-102348085D01*
X201349890Y-102344000D01*
X201951110Y-102344000D01*
X201992591Y-102348085D01*
G37*
G36*
X203567591Y-102348085D02*
G01*
X203601569Y-102358393D01*
X203632890Y-102375134D01*
X203660339Y-102397661D01*
X203682866Y-102425110D01*
X203699607Y-102456431D01*
X203709915Y-102490409D01*
X203714000Y-102531890D01*
X203714000Y-103208110D01*
X203709915Y-103249591D01*
X203699607Y-103283569D01*
X203682866Y-103314890D01*
X203660339Y-103342339D01*
X203632890Y-103364866D01*
X203601569Y-103381607D01*
X203567591Y-103391915D01*
X203526110Y-103396000D01*
X202924890Y-103396000D01*
X202883409Y-103391915D01*
X202849431Y-103381607D01*
X202818110Y-103364866D01*
X202790661Y-103342339D01*
X202768134Y-103314890D01*
X202751393Y-103283569D01*
X202741085Y-103249591D01*
X202737000Y-103208110D01*
X202737000Y-102531890D01*
X202741085Y-102490409D01*
X202751393Y-102456431D01*
X202768134Y-102425110D01*
X202790661Y-102397661D01*
X202818110Y-102375134D01*
X202849431Y-102358393D01*
X202883409Y-102348085D01*
X202924890Y-102344000D01*
X203526110Y-102344000D01*
X203567591Y-102348085D01*
G37*
G36*
X213693512Y-100853927D02*
G01*
X213842812Y-100883624D01*
X214006784Y-100951544D01*
X214154354Y-101050147D01*
X214279853Y-101175646D01*
X214378456Y-101323216D01*
X214446376Y-101487188D01*
X214481000Y-101661259D01*
X214481000Y-101838741D01*
X214446376Y-102012812D01*
X214378456Y-102176784D01*
X214279853Y-102324354D01*
X214154354Y-102449853D01*
X214006784Y-102548456D01*
X213842812Y-102616376D01*
X213693512Y-102646073D01*
X213668742Y-102651000D01*
X213491258Y-102651000D01*
X213466488Y-102646073D01*
X213317188Y-102616376D01*
X213153216Y-102548456D01*
X213005646Y-102449853D01*
X212880147Y-102324354D01*
X212781544Y-102176784D01*
X212713624Y-102012812D01*
X212679000Y-101838741D01*
X212679000Y-101661259D01*
X212713624Y-101487188D01*
X212781544Y-101323216D01*
X212880147Y-101175646D01*
X213005646Y-101050147D01*
X213153216Y-100951544D01*
X213317188Y-100883624D01*
X213466488Y-100853927D01*
X213491258Y-100849000D01*
X213668742Y-100849000D01*
X213693512Y-100853927D01*
G37*
G36*
X211153512Y-100853927D02*
G01*
X211302812Y-100883624D01*
X211466784Y-100951544D01*
X211614354Y-101050147D01*
X211739853Y-101175646D01*
X211838456Y-101323216D01*
X211906376Y-101487188D01*
X211941000Y-101661259D01*
X211941000Y-101838741D01*
X211906376Y-102012812D01*
X211838456Y-102176784D01*
X211739853Y-102324354D01*
X211614354Y-102449853D01*
X211466784Y-102548456D01*
X211302812Y-102616376D01*
X211153512Y-102646073D01*
X211128742Y-102651000D01*
X210951258Y-102651000D01*
X210926488Y-102646073D01*
X210777188Y-102616376D01*
X210613216Y-102548456D01*
X210465646Y-102449853D01*
X210340147Y-102324354D01*
X210241544Y-102176784D01*
X210173624Y-102012812D01*
X210139000Y-101838741D01*
X210139000Y-101661259D01*
X210173624Y-101487188D01*
X210241544Y-101323216D01*
X210340147Y-101175646D01*
X210465646Y-101050147D01*
X210613216Y-100951544D01*
X210777188Y-100883624D01*
X210926488Y-100853927D01*
X210951258Y-100849000D01*
X211128742Y-100849000D01*
X211153512Y-100853927D01*
G37*
G36*
X192401000Y-102651000D02*
G01*
X190599000Y-102651000D01*
X190599000Y-100849000D01*
X192401000Y-100849000D01*
X192401000Y-102651000D01*
G37*
G36*
X186533512Y-100853927D02*
G01*
X186682812Y-100883624D01*
X186846784Y-100951544D01*
X186994354Y-101050147D01*
X187119853Y-101175646D01*
X187218456Y-101323216D01*
X187286376Y-101487188D01*
X187321000Y-101661259D01*
X187321000Y-101838741D01*
X187286376Y-102012812D01*
X187218456Y-102176784D01*
X187119853Y-102324354D01*
X186994354Y-102449853D01*
X186846784Y-102548456D01*
X186682812Y-102616376D01*
X186533512Y-102646073D01*
X186508742Y-102651000D01*
X186331258Y-102651000D01*
X186306488Y-102646073D01*
X186157188Y-102616376D01*
X185993216Y-102548456D01*
X185845646Y-102449853D01*
X185720147Y-102324354D01*
X185621544Y-102176784D01*
X185553624Y-102012812D01*
X185519000Y-101838741D01*
X185519000Y-101661259D01*
X185553624Y-101487188D01*
X185621544Y-101323216D01*
X185720147Y-101175646D01*
X185845646Y-101050147D01*
X185993216Y-100951544D01*
X186157188Y-100883624D01*
X186306488Y-100853927D01*
X186331258Y-100849000D01*
X186508742Y-100849000D01*
X186533512Y-100853927D01*
G37*
G36*
X189073512Y-100853927D02*
G01*
X189222812Y-100883624D01*
X189386784Y-100951544D01*
X189534354Y-101050147D01*
X189659853Y-101175646D01*
X189758456Y-101323216D01*
X189826376Y-101487188D01*
X189861000Y-101661259D01*
X189861000Y-101838741D01*
X189826376Y-102012812D01*
X189758456Y-102176784D01*
X189659853Y-102324354D01*
X189534354Y-102449853D01*
X189386784Y-102548456D01*
X189222812Y-102616376D01*
X189073512Y-102646073D01*
X189048742Y-102651000D01*
X188871258Y-102651000D01*
X188846488Y-102646073D01*
X188697188Y-102616376D01*
X188533216Y-102548456D01*
X188385646Y-102449853D01*
X188260147Y-102324354D01*
X188161544Y-102176784D01*
X188093624Y-102012812D01*
X188059000Y-101838741D01*
X188059000Y-101661259D01*
X188093624Y-101487188D01*
X188161544Y-101323216D01*
X188260147Y-101175646D01*
X188385646Y-101050147D01*
X188533216Y-100951544D01*
X188697188Y-100883624D01*
X188846488Y-100853927D01*
X188871258Y-100849000D01*
X189048742Y-100849000D01*
X189073512Y-100853927D01*
G37*
G36*
X209401000Y-102651000D02*
G01*
X207599000Y-102651000D01*
X207599000Y-100849000D01*
X209401000Y-100849000D01*
X209401000Y-102651000D01*
G37*
G36*
X193610591Y-101078085D02*
G01*
X193644569Y-101088393D01*
X193675890Y-101105134D01*
X193703339Y-101127661D01*
X193725866Y-101155110D01*
X193742607Y-101186431D01*
X193752915Y-101220409D01*
X193757000Y-101261890D01*
X193757000Y-101938110D01*
X193752915Y-101979591D01*
X193742607Y-102013569D01*
X193725866Y-102044890D01*
X193703339Y-102072339D01*
X193675890Y-102094866D01*
X193644569Y-102111607D01*
X193610591Y-102121915D01*
X193569110Y-102126000D01*
X192967890Y-102126000D01*
X192926409Y-102121915D01*
X192892431Y-102111607D01*
X192861110Y-102094866D01*
X192833661Y-102072339D01*
X192811134Y-102044890D01*
X192794393Y-102013569D01*
X192784085Y-101979591D01*
X192780000Y-101938110D01*
X192780000Y-101261890D01*
X192784085Y-101220409D01*
X192794393Y-101186431D01*
X192811134Y-101155110D01*
X192833661Y-101127661D01*
X192861110Y-101105134D01*
X192892431Y-101088393D01*
X192926409Y-101078085D01*
X192967890Y-101074000D01*
X193569110Y-101074000D01*
X193610591Y-101078085D01*
G37*
G36*
X195185591Y-101078085D02*
G01*
X195219569Y-101088393D01*
X195250890Y-101105134D01*
X195278339Y-101127661D01*
X195300866Y-101155110D01*
X195317607Y-101186431D01*
X195327915Y-101220409D01*
X195332000Y-101261890D01*
X195332000Y-101938110D01*
X195327915Y-101979591D01*
X195317607Y-102013569D01*
X195300866Y-102044890D01*
X195278339Y-102072339D01*
X195250890Y-102094866D01*
X195219569Y-102111607D01*
X195185591Y-102121915D01*
X195144110Y-102126000D01*
X194542890Y-102126000D01*
X194501409Y-102121915D01*
X194467431Y-102111607D01*
X194436110Y-102094866D01*
X194408661Y-102072339D01*
X194386134Y-102044890D01*
X194369393Y-102013569D01*
X194359085Y-101979591D01*
X194355000Y-101938110D01*
X194355000Y-101261890D01*
X194359085Y-101220409D01*
X194369393Y-101186431D01*
X194386134Y-101155110D01*
X194408661Y-101127661D01*
X194436110Y-101105134D01*
X194467431Y-101088393D01*
X194501409Y-101078085D01*
X194542890Y-101074000D01*
X195144110Y-101074000D01*
X195185591Y-101078085D01*
G37*
G36*
X199405355Y-98075083D02*
G01*
X199410029Y-98076501D01*
X199414330Y-98078800D01*
X199420702Y-98084029D01*
X199441076Y-98097643D01*
X199463715Y-98107020D01*
X199487749Y-98111800D01*
X199512253Y-98111800D01*
X199536286Y-98107019D01*
X199558925Y-98097642D01*
X199579298Y-98084029D01*
X199585670Y-98078800D01*
X199589971Y-98076501D01*
X199594645Y-98075083D01*
X199605641Y-98074000D01*
X199894359Y-98074000D01*
X199905355Y-98075083D01*
X199910029Y-98076501D01*
X199914330Y-98078800D01*
X199920702Y-98084029D01*
X199941076Y-98097643D01*
X199963715Y-98107020D01*
X199987749Y-98111800D01*
X200012253Y-98111800D01*
X200036286Y-98107019D01*
X200058925Y-98097642D01*
X200079298Y-98084029D01*
X200085670Y-98078800D01*
X200089971Y-98076501D01*
X200094645Y-98075083D01*
X200105641Y-98074000D01*
X200394359Y-98074000D01*
X200405355Y-98075083D01*
X200410029Y-98076501D01*
X200414330Y-98078800D01*
X200420702Y-98084029D01*
X200441076Y-98097643D01*
X200463715Y-98107020D01*
X200487749Y-98111800D01*
X200512253Y-98111800D01*
X200536286Y-98107019D01*
X200558925Y-98097642D01*
X200579298Y-98084029D01*
X200585670Y-98078800D01*
X200589971Y-98076501D01*
X200594645Y-98075083D01*
X200605641Y-98074000D01*
X200894359Y-98074000D01*
X200905355Y-98075083D01*
X200910029Y-98076501D01*
X200914331Y-98078800D01*
X200918104Y-98081896D01*
X200921200Y-98085669D01*
X200923499Y-98089971D01*
X200924917Y-98094645D01*
X200926000Y-98105641D01*
X200926000Y-98949001D01*
X200928402Y-98973387D01*
X200935515Y-98996836D01*
X200947066Y-99018447D01*
X200962611Y-99037389D01*
X200981553Y-99052934D01*
X201003164Y-99064485D01*
X201026613Y-99071598D01*
X201050999Y-99074000D01*
X201894359Y-99074000D01*
X201905355Y-99075083D01*
X201910029Y-99076501D01*
X201914331Y-99078800D01*
X201918104Y-99081896D01*
X201921200Y-99085669D01*
X201923499Y-99089971D01*
X201924917Y-99094645D01*
X201926000Y-99105641D01*
X201926000Y-99394359D01*
X201924917Y-99405355D01*
X201923499Y-99410029D01*
X201921200Y-99414330D01*
X201915971Y-99420702D01*
X201902357Y-99441076D01*
X201892980Y-99463715D01*
X201888200Y-99487749D01*
X201888200Y-99512253D01*
X201892981Y-99536286D01*
X201902358Y-99558925D01*
X201915971Y-99579298D01*
X201921200Y-99585670D01*
X201923499Y-99589971D01*
X201924917Y-99594645D01*
X201926000Y-99605641D01*
X201926000Y-99894359D01*
X201924917Y-99905355D01*
X201923499Y-99910029D01*
X201921200Y-99914330D01*
X201915971Y-99920702D01*
X201902357Y-99941076D01*
X201892980Y-99963715D01*
X201888200Y-99987749D01*
X201888200Y-100012253D01*
X201892981Y-100036286D01*
X201902358Y-100058925D01*
X201915971Y-100079298D01*
X201921200Y-100085670D01*
X201923499Y-100089971D01*
X201924917Y-100094645D01*
X201926000Y-100105641D01*
X201926000Y-100394359D01*
X201924917Y-100405355D01*
X201923499Y-100410029D01*
X201921200Y-100414330D01*
X201915971Y-100420702D01*
X201902357Y-100441076D01*
X201892980Y-100463715D01*
X201888200Y-100487749D01*
X201888200Y-100512253D01*
X201892981Y-100536286D01*
X201902358Y-100558925D01*
X201915971Y-100579298D01*
X201921200Y-100585670D01*
X201923499Y-100589971D01*
X201924917Y-100594645D01*
X201926000Y-100605641D01*
X201926000Y-100894359D01*
X201924917Y-100905355D01*
X201923499Y-100910029D01*
X201921200Y-100914331D01*
X201918104Y-100918104D01*
X201914331Y-100921200D01*
X201910029Y-100923499D01*
X201905355Y-100924917D01*
X201894359Y-100926000D01*
X201050999Y-100926000D01*
X201026613Y-100928402D01*
X201003164Y-100935515D01*
X200981553Y-100947066D01*
X200962611Y-100962611D01*
X200947066Y-100981553D01*
X200935515Y-101003164D01*
X200928402Y-101026613D01*
X200926000Y-101050999D01*
X200926000Y-101894359D01*
X200924917Y-101905355D01*
X200923499Y-101910029D01*
X200921200Y-101914331D01*
X200918104Y-101918104D01*
X200914331Y-101921200D01*
X200910029Y-101923499D01*
X200905355Y-101924917D01*
X200894359Y-101926000D01*
X200605641Y-101926000D01*
X200594645Y-101924917D01*
X200589971Y-101923499D01*
X200585670Y-101921200D01*
X200579298Y-101915971D01*
X200558924Y-101902357D01*
X200536285Y-101892980D01*
X200512251Y-101888200D01*
X200487747Y-101888200D01*
X200463714Y-101892981D01*
X200441075Y-101902358D01*
X200420702Y-101915971D01*
X200414330Y-101921200D01*
X200410029Y-101923499D01*
X200405355Y-101924917D01*
X200394359Y-101926000D01*
X200105641Y-101926000D01*
X200094645Y-101924917D01*
X200089971Y-101923499D01*
X200085670Y-101921200D01*
X200079298Y-101915971D01*
X200058924Y-101902357D01*
X200036285Y-101892980D01*
X200012251Y-101888200D01*
X199987747Y-101888200D01*
X199963714Y-101892981D01*
X199941075Y-101902358D01*
X199920702Y-101915971D01*
X199914330Y-101921200D01*
X199910029Y-101923499D01*
X199905355Y-101924917D01*
X199894359Y-101926000D01*
X199605641Y-101926000D01*
X199594645Y-101924917D01*
X199589971Y-101923499D01*
X199585670Y-101921200D01*
X199579298Y-101915971D01*
X199558924Y-101902357D01*
X199536285Y-101892980D01*
X199512251Y-101888200D01*
X199487747Y-101888200D01*
X199463714Y-101892981D01*
X199441075Y-101902358D01*
X199420702Y-101915971D01*
X199414330Y-101921200D01*
X199410029Y-101923499D01*
X199405355Y-101924917D01*
X199394359Y-101926000D01*
X199105641Y-101926000D01*
X199094645Y-101924917D01*
X199089971Y-101923499D01*
X199085669Y-101921200D01*
X199081896Y-101918104D01*
X199078800Y-101914331D01*
X199076501Y-101910029D01*
X199075083Y-101905355D01*
X199074000Y-101894359D01*
X199074000Y-101050999D01*
X199071598Y-101026613D01*
X199064485Y-101003164D01*
X199052934Y-100981553D01*
X199037389Y-100962611D01*
X199018447Y-100947066D01*
X198996836Y-100935515D01*
X198973387Y-100928402D01*
X198949001Y-100926000D01*
X198105641Y-100926000D01*
X198094645Y-100924917D01*
X198089971Y-100923499D01*
X198085669Y-100921200D01*
X198081896Y-100918104D01*
X198078800Y-100914331D01*
X198076501Y-100910029D01*
X198075083Y-100905355D01*
X198074000Y-100894359D01*
X198074000Y-100605641D01*
X198075083Y-100594645D01*
X198076501Y-100589971D01*
X198078800Y-100585670D01*
X198084029Y-100579298D01*
X198097643Y-100558924D01*
X198107020Y-100536285D01*
X198111800Y-100512251D01*
X198111800Y-100487747D01*
X198107019Y-100463714D01*
X198097642Y-100441075D01*
X198084029Y-100420702D01*
X198078800Y-100414330D01*
X198076501Y-100410029D01*
X198075083Y-100405355D01*
X198074000Y-100394359D01*
X198074000Y-100105641D01*
X198075083Y-100094645D01*
X198076501Y-100089971D01*
X198078800Y-100085670D01*
X198084029Y-100079298D01*
X198097643Y-100058924D01*
X198107020Y-100036285D01*
X198111800Y-100012251D01*
X198111800Y-99987747D01*
X198107019Y-99963714D01*
X198097642Y-99941075D01*
X198084029Y-99920702D01*
X198078800Y-99914330D01*
X198076501Y-99910029D01*
X198075083Y-99905355D01*
X198074000Y-99894359D01*
X198074000Y-99605641D01*
X198075083Y-99594645D01*
X198076501Y-99589971D01*
X198078800Y-99585670D01*
X198084029Y-99579298D01*
X198097643Y-99558924D01*
X198107020Y-99536285D01*
X198111800Y-99512251D01*
X198111800Y-99487749D01*
X198963200Y-99487749D01*
X198963200Y-99512253D01*
X198967981Y-99536286D01*
X198977358Y-99558925D01*
X198990971Y-99579298D01*
X198996200Y-99585670D01*
X198998499Y-99589971D01*
X198999917Y-99594645D01*
X199001000Y-99605641D01*
X199001000Y-99894359D01*
X198999917Y-99905355D01*
X198998499Y-99910029D01*
X198996200Y-99914330D01*
X198990971Y-99920702D01*
X198977357Y-99941076D01*
X198967980Y-99963715D01*
X198963200Y-99987749D01*
X198963200Y-100012253D01*
X198967981Y-100036286D01*
X198977358Y-100058925D01*
X198990971Y-100079298D01*
X198996200Y-100085670D01*
X198998499Y-100089971D01*
X198999917Y-100094645D01*
X199001000Y-100105641D01*
X199001000Y-100394359D01*
X198999917Y-100405355D01*
X198998499Y-100410029D01*
X198996200Y-100414330D01*
X198990971Y-100420702D01*
X198977357Y-100441076D01*
X198967980Y-100463715D01*
X198963200Y-100487749D01*
X198963200Y-100512253D01*
X198967981Y-100536286D01*
X198977358Y-100558925D01*
X198990971Y-100579298D01*
X198996200Y-100585670D01*
X198998499Y-100589971D01*
X198999917Y-100594645D01*
X199001000Y-100605641D01*
X199001000Y-100874001D01*
X199003402Y-100898387D01*
X199010515Y-100921836D01*
X199022066Y-100943447D01*
X199037611Y-100962389D01*
X199056553Y-100977934D01*
X199078164Y-100989485D01*
X199101613Y-100996598D01*
X199125999Y-100999000D01*
X199394359Y-100999000D01*
X199405355Y-101000083D01*
X199410029Y-101001501D01*
X199414330Y-101003800D01*
X199420702Y-101009029D01*
X199441076Y-101022643D01*
X199463715Y-101032020D01*
X199487749Y-101036800D01*
X199512253Y-101036800D01*
X199536286Y-101032019D01*
X199558925Y-101022642D01*
X199579298Y-101009029D01*
X199585670Y-101003800D01*
X199589971Y-101001501D01*
X199594645Y-101000083D01*
X199605641Y-100999000D01*
X199894359Y-100999000D01*
X199905355Y-101000083D01*
X199910029Y-101001501D01*
X199914330Y-101003800D01*
X199920702Y-101009029D01*
X199941076Y-101022643D01*
X199963715Y-101032020D01*
X199987749Y-101036800D01*
X200012253Y-101036800D01*
X200036286Y-101032019D01*
X200058925Y-101022642D01*
X200079298Y-101009029D01*
X200085670Y-101003800D01*
X200089971Y-101001501D01*
X200094645Y-101000083D01*
X200105641Y-100999000D01*
X200394359Y-100999000D01*
X200405355Y-101000083D01*
X200410029Y-101001501D01*
X200414330Y-101003800D01*
X200420702Y-101009029D01*
X200441076Y-101022643D01*
X200463715Y-101032020D01*
X200487749Y-101036800D01*
X200512253Y-101036800D01*
X200536286Y-101032019D01*
X200558925Y-101022642D01*
X200579298Y-101009029D01*
X200585670Y-101003800D01*
X200589971Y-101001501D01*
X200594645Y-101000083D01*
X200605641Y-100999000D01*
X200874001Y-100999000D01*
X200898387Y-100996598D01*
X200921836Y-100989485D01*
X200943447Y-100977934D01*
X200962389Y-100962389D01*
X200977934Y-100943447D01*
X200989485Y-100921836D01*
X200996598Y-100898387D01*
X200999000Y-100874001D01*
X200999000Y-100605641D01*
X201000083Y-100594645D01*
X201001501Y-100589971D01*
X201003800Y-100585670D01*
X201009029Y-100579298D01*
X201022643Y-100558924D01*
X201032020Y-100536285D01*
X201036800Y-100512251D01*
X201036800Y-100487747D01*
X201032019Y-100463714D01*
X201022642Y-100441075D01*
X201009029Y-100420702D01*
X201003800Y-100414330D01*
X201001501Y-100410029D01*
X201000083Y-100405355D01*
X200999000Y-100394359D01*
X200999000Y-100105641D01*
X201000083Y-100094645D01*
X201001501Y-100089971D01*
X201003800Y-100085670D01*
X201009029Y-100079298D01*
X201022643Y-100058924D01*
X201032020Y-100036285D01*
X201036800Y-100012251D01*
X201036800Y-99987747D01*
X201032019Y-99963714D01*
X201022642Y-99941075D01*
X201009029Y-99920702D01*
X201003800Y-99914330D01*
X201001501Y-99910029D01*
X201000083Y-99905355D01*
X200999000Y-99894359D01*
X200999000Y-99605641D01*
X201000083Y-99594645D01*
X201001501Y-99589971D01*
X201003800Y-99585670D01*
X201009029Y-99579298D01*
X201022643Y-99558924D01*
X201032020Y-99536285D01*
X201036800Y-99512251D01*
X201036800Y-99487747D01*
X201032019Y-99463714D01*
X201022642Y-99441075D01*
X201009029Y-99420702D01*
X201003800Y-99414330D01*
X201001501Y-99410029D01*
X201000083Y-99405355D01*
X200999000Y-99394359D01*
X200999000Y-99125999D01*
X200996598Y-99101613D01*
X200989485Y-99078164D01*
X200977934Y-99056553D01*
X200962389Y-99037611D01*
X200943447Y-99022066D01*
X200921836Y-99010515D01*
X200898387Y-99003402D01*
X200874001Y-99001000D01*
X200605641Y-99001000D01*
X200594645Y-98999917D01*
X200589971Y-98998499D01*
X200585670Y-98996200D01*
X200579298Y-98990971D01*
X200558924Y-98977357D01*
X200536285Y-98967980D01*
X200512251Y-98963200D01*
X200487747Y-98963200D01*
X200463714Y-98967981D01*
X200441075Y-98977358D01*
X200420702Y-98990971D01*
X200414330Y-98996200D01*
X200410029Y-98998499D01*
X200405355Y-98999917D01*
X200394359Y-99001000D01*
X200105641Y-99001000D01*
X200094645Y-98999917D01*
X200089971Y-98998499D01*
X200085670Y-98996200D01*
X200079298Y-98990971D01*
X200058924Y-98977357D01*
X200036285Y-98967980D01*
X200012251Y-98963200D01*
X199987747Y-98963200D01*
X199963714Y-98967981D01*
X199941075Y-98977358D01*
X199920702Y-98990971D01*
X199914330Y-98996200D01*
X199910029Y-98998499D01*
X199905355Y-98999917D01*
X199894359Y-99001000D01*
X199605641Y-99001000D01*
X199594645Y-98999917D01*
X199589971Y-98998499D01*
X199585670Y-98996200D01*
X199579298Y-98990971D01*
X199558924Y-98977357D01*
X199536285Y-98967980D01*
X199512251Y-98963200D01*
X199487747Y-98963200D01*
X199463714Y-98967981D01*
X199441075Y-98977358D01*
X199420702Y-98990971D01*
X199414330Y-98996200D01*
X199410029Y-98998499D01*
X199405355Y-98999917D01*
X199394359Y-99001000D01*
X199125999Y-99001000D01*
X199101613Y-99003402D01*
X199078164Y-99010515D01*
X199056553Y-99022066D01*
X199037611Y-99037611D01*
X199022066Y-99056553D01*
X199010515Y-99078164D01*
X199003402Y-99101613D01*
X199001000Y-99125999D01*
X199001000Y-99394359D01*
X198999917Y-99405355D01*
X198998499Y-99410029D01*
X198996200Y-99414330D01*
X198990971Y-99420702D01*
X198977357Y-99441076D01*
X198967980Y-99463715D01*
X198963200Y-99487749D01*
X198111800Y-99487749D01*
X198111800Y-99487747D01*
X198107019Y-99463714D01*
X198097642Y-99441075D01*
X198084029Y-99420702D01*
X198078800Y-99414330D01*
X198076501Y-99410029D01*
X198075083Y-99405355D01*
X198074000Y-99394359D01*
X198074000Y-99105641D01*
X198075083Y-99094645D01*
X198076501Y-99089971D01*
X198078800Y-99085669D01*
X198081896Y-99081896D01*
X198085669Y-99078800D01*
X198089971Y-99076501D01*
X198094645Y-99075083D01*
X198105641Y-99074000D01*
X198949001Y-99074000D01*
X198973387Y-99071598D01*
X198996836Y-99064485D01*
X199018447Y-99052934D01*
X199037389Y-99037389D01*
X199052934Y-99018447D01*
X199064485Y-98996836D01*
X199071598Y-98973387D01*
X199074000Y-98949001D01*
X199074000Y-98105641D01*
X199075083Y-98094645D01*
X199076501Y-98089971D01*
X199078800Y-98085669D01*
X199081896Y-98081896D01*
X199085669Y-98078800D01*
X199089971Y-98076501D01*
X199094645Y-98075083D01*
X199105641Y-98074000D01*
X199394359Y-98074000D01*
X199405355Y-98075083D01*
G37*
G36*
X203516091Y-99045585D02*
G01*
X203550069Y-99055893D01*
X203581390Y-99072634D01*
X203608839Y-99095161D01*
X203631366Y-99122610D01*
X203648107Y-99153931D01*
X203658415Y-99187909D01*
X203662500Y-99229390D01*
X203662500Y-99830610D01*
X203658415Y-99872091D01*
X203648107Y-99906069D01*
X203631366Y-99937390D01*
X203608839Y-99964839D01*
X203581390Y-99987366D01*
X203550069Y-100004107D01*
X203516091Y-100014415D01*
X203474610Y-100018500D01*
X202798390Y-100018500D01*
X202756909Y-100014415D01*
X202722931Y-100004107D01*
X202691610Y-99987366D01*
X202664161Y-99964839D01*
X202641634Y-99937390D01*
X202624893Y-99906069D01*
X202614585Y-99872091D01*
X202610500Y-99830610D01*
X202610500Y-99229390D01*
X202614585Y-99187909D01*
X202624893Y-99153931D01*
X202641634Y-99122610D01*
X202664161Y-99095161D01*
X202691610Y-99072634D01*
X202722931Y-99055893D01*
X202756909Y-99045585D01*
X202798390Y-99041500D01*
X203474610Y-99041500D01*
X203516091Y-99045585D01*
G37*
G36*
X203516091Y-97470585D02*
G01*
X203550069Y-97480893D01*
X203581390Y-97497634D01*
X203608839Y-97520161D01*
X203631366Y-97547610D01*
X203648107Y-97578931D01*
X203658415Y-97612909D01*
X203662500Y-97654390D01*
X203662500Y-98255610D01*
X203658415Y-98297091D01*
X203648107Y-98331069D01*
X203631366Y-98362390D01*
X203608839Y-98389839D01*
X203581390Y-98412366D01*
X203550069Y-98429107D01*
X203516091Y-98439415D01*
X203474610Y-98443500D01*
X202798390Y-98443500D01*
X202756909Y-98439415D01*
X202722931Y-98429107D01*
X202691610Y-98412366D01*
X202664161Y-98389839D01*
X202641634Y-98362390D01*
X202624893Y-98331069D01*
X202614585Y-98297091D01*
X202610500Y-98255610D01*
X202610500Y-97654390D01*
X202614585Y-97612909D01*
X202624893Y-97578931D01*
X202641634Y-97547610D01*
X202664161Y-97520161D01*
X202691610Y-97497634D01*
X202722931Y-97480893D01*
X202756909Y-97470585D01*
X202798390Y-97466500D01*
X203474610Y-97466500D01*
X203516091Y-97470585D01*
G37*
G36*
X198886000Y-97005000D02*
G01*
X197984000Y-97005000D01*
X197984000Y-96003000D01*
X198886000Y-96003000D01*
X198886000Y-97005000D01*
G37*
G36*
X202569000Y-97005000D02*
G01*
X201667000Y-97005000D01*
X201667000Y-96003000D01*
X202569000Y-96003000D01*
X202569000Y-97005000D01*
G37*
G36*
X200669000Y-97005000D02*
G01*
X199767000Y-97005000D01*
X199767000Y-96003000D01*
X200669000Y-96003000D01*
X200669000Y-97005000D01*
G37*
G36*
X196986000Y-97005000D02*
G01*
X196084000Y-97005000D01*
X196084000Y-96003000D01*
X196986000Y-96003000D01*
X196986000Y-97005000D01*
G37*
G36*
X197936000Y-95005000D02*
G01*
X197034000Y-95005000D01*
X197034000Y-94003000D01*
X197936000Y-94003000D01*
X197936000Y-95005000D01*
G37*
G36*
X201619000Y-95005000D02*
G01*
X200717000Y-95005000D01*
X200717000Y-94003000D01*
X201619000Y-94003000D01*
X201619000Y-95005000D01*
G37*
G36*
X200468591Y-92315085D02*
G01*
X200502569Y-92325393D01*
X200533890Y-92342134D01*
X200561339Y-92364661D01*
X200583866Y-92392110D01*
X200600607Y-92423431D01*
X200610915Y-92457409D01*
X200615000Y-92498890D01*
X200615000Y-93175110D01*
X200610915Y-93216591D01*
X200600607Y-93250569D01*
X200583866Y-93281890D01*
X200561339Y-93309339D01*
X200533890Y-93331866D01*
X200502569Y-93348607D01*
X200468591Y-93358915D01*
X200427110Y-93363000D01*
X199825890Y-93363000D01*
X199784409Y-93358915D01*
X199750431Y-93348607D01*
X199719110Y-93331866D01*
X199691661Y-93309339D01*
X199669134Y-93281890D01*
X199652393Y-93250569D01*
X199642085Y-93216591D01*
X199638000Y-93175110D01*
X199638000Y-92498890D01*
X199642085Y-92457409D01*
X199652393Y-92423431D01*
X199669134Y-92392110D01*
X199691661Y-92364661D01*
X199719110Y-92342134D01*
X199750431Y-92325393D01*
X199784409Y-92315085D01*
X199825890Y-92311000D01*
X200427110Y-92311000D01*
X200468591Y-92315085D01*
G37*
G36*
X198868591Y-92315085D02*
G01*
X198902569Y-92325393D01*
X198933890Y-92342134D01*
X198961339Y-92364661D01*
X198983866Y-92392110D01*
X199000607Y-92423431D01*
X199010915Y-92457409D01*
X199015000Y-92498890D01*
X199015000Y-93175110D01*
X199010915Y-93216591D01*
X199000607Y-93250569D01*
X198983866Y-93281890D01*
X198961339Y-93309339D01*
X198933890Y-93331866D01*
X198902569Y-93348607D01*
X198868591Y-93358915D01*
X198827110Y-93363000D01*
X198225890Y-93363000D01*
X198184409Y-93358915D01*
X198150431Y-93348607D01*
X198119110Y-93331866D01*
X198091661Y-93309339D01*
X198069134Y-93281890D01*
X198052393Y-93250569D01*
X198042085Y-93216591D01*
X198038000Y-93175110D01*
X198038000Y-92498890D01*
X198042085Y-92457409D01*
X198052393Y-92423431D01*
X198069134Y-92392110D01*
X198091661Y-92364661D01*
X198119110Y-92342134D01*
X198150431Y-92325393D01*
X198184409Y-92315085D01*
X198225890Y-92311000D01*
X198827110Y-92311000D01*
X198868591Y-92315085D01*
G37*
G36*
X202043591Y-92315085D02*
G01*
X202077569Y-92325393D01*
X202108890Y-92342134D01*
X202136339Y-92364661D01*
X202158866Y-92392110D01*
X202175607Y-92423431D01*
X202185915Y-92457409D01*
X202190000Y-92498890D01*
X202190000Y-93175110D01*
X202185915Y-93216591D01*
X202175607Y-93250569D01*
X202158866Y-93281890D01*
X202136339Y-93309339D01*
X202108890Y-93331866D01*
X202077569Y-93348607D01*
X202043591Y-93358915D01*
X202002110Y-93363000D01*
X201400890Y-93363000D01*
X201359409Y-93358915D01*
X201325431Y-93348607D01*
X201294110Y-93331866D01*
X201266661Y-93309339D01*
X201244134Y-93281890D01*
X201227393Y-93250569D01*
X201217085Y-93216591D01*
X201213000Y-93175110D01*
X201213000Y-92498890D01*
X201217085Y-92457409D01*
X201227393Y-92423431D01*
X201244134Y-92392110D01*
X201266661Y-92364661D01*
X201294110Y-92342134D01*
X201325431Y-92325393D01*
X201359409Y-92315085D01*
X201400890Y-92311000D01*
X202002110Y-92311000D01*
X202043591Y-92315085D01*
G37*
G36*
X197293591Y-92315085D02*
G01*
X197327569Y-92325393D01*
X197358890Y-92342134D01*
X197386339Y-92364661D01*
X197408866Y-92392110D01*
X197425607Y-92423431D01*
X197435915Y-92457409D01*
X197440000Y-92498890D01*
X197440000Y-93175110D01*
X197435915Y-93216591D01*
X197425607Y-93250569D01*
X197408866Y-93281890D01*
X197386339Y-93309339D01*
X197358890Y-93331866D01*
X197327569Y-93348607D01*
X197293591Y-93358915D01*
X197252110Y-93363000D01*
X196650890Y-93363000D01*
X196609409Y-93358915D01*
X196575431Y-93348607D01*
X196544110Y-93331866D01*
X196516661Y-93309339D01*
X196494134Y-93281890D01*
X196477393Y-93250569D01*
X196467085Y-93216591D01*
X196463000Y-93175110D01*
X196463000Y-92498890D01*
X196467085Y-92457409D01*
X196477393Y-92423431D01*
X196494134Y-92392110D01*
X196516661Y-92364661D01*
X196544110Y-92342134D01*
X196575431Y-92325393D01*
X196609409Y-92315085D01*
X196650890Y-92311000D01*
X197252110Y-92311000D01*
X197293591Y-92315085D01*
G37*
M02*
