G04 #@! TF.GenerationSoftware,KiCad,Pcbnew,5.1.5*
G04 #@! TF.CreationDate,2020-04-28T21:36:49+02:00*
G04 #@! TF.ProjectId,movingstar,6d6f7669-6e67-4737-9461-722e6b696361,rev?*
G04 #@! TF.SameCoordinates,Original*
G04 #@! TF.FileFunction,Legend,Top*
G04 #@! TF.FilePolarity,Positive*
%FSLAX46Y46*%
G04 Gerber Fmt 4.6, Leading zero omitted, Abs format (unit mm)*
G04 Created by KiCad (PCBNEW 5.1.5) date 2020-04-28 21:36:49*
%MOMM*%
%LPD*%
G04 APERTURE LIST*
%ADD10C,0.152400*%
%ADD11C,0.050800*%
%ADD12C,0.010000*%
%ADD13C,0.120000*%
%ADD14C,0.015000*%
%ADD15C,0.150000*%
G04 APERTURE END LIST*
D10*
X198095000Y-91313000D02*
X198095000Y-87503000D01*
X201905000Y-87503000D02*
X198095000Y-87503000D01*
X201905000Y-87503000D02*
X201905000Y-91313000D01*
X198095000Y-91313000D02*
X201905000Y-91313000D01*
D11*
X198349000Y-91059000D02*
X198349000Y-87757000D01*
X201651000Y-87757000D02*
X198349000Y-87757000D01*
X201651000Y-87757000D02*
X201651000Y-91059000D01*
X198349000Y-91059000D02*
X201651000Y-91059000D01*
D10*
X193904000Y-90424000D02*
X193523000Y-90424000D01*
X193904000Y-90424000D02*
X193904000Y-88392000D01*
X193523000Y-90424000D02*
X193523000Y-88392000D01*
X193523000Y-88392000D02*
X193904000Y-88392000D01*
X194920000Y-83312000D02*
X193904000Y-84328000D01*
X193904000Y-84328000D02*
X193904000Y-87630000D01*
X194920000Y-83312000D02*
X196190000Y-83312000D01*
X198857000Y-83312000D02*
X201143000Y-83312000D01*
X206096000Y-84328000D02*
X205080000Y-83312000D01*
X205080000Y-83312000D02*
X203810000Y-83312000D01*
X198857000Y-95504000D02*
X201143000Y-95504000D01*
X203810000Y-95504000D02*
X205080000Y-95504000D01*
X205080000Y-95504000D02*
X206096000Y-94488000D01*
X206096000Y-94488000D02*
X206096000Y-91186000D01*
X193904000Y-94488000D02*
X193904000Y-91186000D01*
X193904000Y-94488000D02*
X194920000Y-95504000D01*
X194920000Y-95504000D02*
X196190000Y-95504000D01*
X206477000Y-90424000D02*
X206477000Y-88392000D01*
X206477000Y-90424000D02*
X206096000Y-90424000D01*
X206096000Y-88392000D02*
X206477000Y-88392000D01*
X193904000Y-84328000D02*
X193650000Y-84582000D01*
X193650000Y-84582000D02*
X193650000Y-87630000D01*
X193650000Y-87630000D02*
X193904000Y-87630000D01*
X193904000Y-87630000D02*
X193904000Y-88392000D01*
X193650000Y-91186000D02*
X193904000Y-91186000D01*
X193904000Y-91186000D02*
X193904000Y-90424000D01*
X193650000Y-91186000D02*
X193650000Y-94234000D01*
X193904000Y-94488000D02*
X193650000Y-94234000D01*
X206096000Y-90424000D02*
X206096000Y-88392000D01*
X206096000Y-88392000D02*
X206096000Y-87630000D01*
X206096000Y-91186000D02*
X206350000Y-91186000D01*
X206096000Y-91186000D02*
X206096000Y-90424000D01*
X206350000Y-91186000D02*
X206350000Y-94234000D01*
X206350000Y-94234000D02*
X206096000Y-94488000D01*
X206096000Y-87630000D02*
X206350000Y-87630000D01*
X206096000Y-87630000D02*
X206096000Y-84328000D01*
X206350000Y-84582000D02*
X206350000Y-87630000D01*
X206096000Y-84328000D02*
X206350000Y-84582000D01*
X203556000Y-89408000D02*
G75*
G03X203556000Y-89408000I-3556000J0D01*
G01*
D11*
X201016000Y-89408000D02*
G75*
G03X201016000Y-89408000I-1016000J0D01*
G01*
X200762000Y-89408000D02*
G75*
G03X200762000Y-89408000I-762000J0D01*
G01*
D12*
G36*
X193650000Y-87122000D02*
G01*
X193650000Y-84963000D01*
X194158000Y-84963000D01*
X194158000Y-87122000D01*
X193650000Y-87122000D01*
G37*
X193650000Y-87122000D02*
X193650000Y-84963000D01*
X194158000Y-84963000D01*
X194158000Y-87122000D01*
X193650000Y-87122000D01*
G36*
X193650000Y-93853000D02*
G01*
X193650000Y-91694000D01*
X194158000Y-91694000D01*
X194158000Y-93853000D01*
X193650000Y-93853000D01*
G37*
X193650000Y-93853000D02*
X193650000Y-91694000D01*
X194158000Y-91694000D01*
X194158000Y-93853000D01*
X193650000Y-93853000D01*
G36*
X205842000Y-87122000D02*
G01*
X205842000Y-84963000D01*
X206350000Y-84963000D01*
X206350000Y-87122000D01*
X205842000Y-87122000D01*
G37*
X205842000Y-87122000D02*
X205842000Y-84963000D01*
X206350000Y-84963000D01*
X206350000Y-87122000D01*
X205842000Y-87122000D01*
G36*
X205842000Y-93853000D02*
G01*
X205842000Y-91694000D01*
X206350000Y-91694000D01*
X206350000Y-93853000D01*
X205842000Y-93853000D01*
G37*
X205842000Y-93853000D02*
X205842000Y-91694000D01*
X206350000Y-91694000D01*
X206350000Y-93853000D01*
X205842000Y-93853000D01*
D13*
X218546000Y-87980000D02*
X218546000Y-85948000D01*
X218546000Y-85948000D02*
X218800000Y-85440000D01*
X218800000Y-85440000D02*
X221594000Y-85440000D01*
X221594000Y-85440000D02*
X221594000Y-87980000D01*
X221594000Y-87980000D02*
X218546000Y-87980000D01*
X185090000Y-100420000D02*
X185090000Y-103080000D01*
X190230000Y-100420000D02*
X185090000Y-100420000D01*
X190230000Y-103080000D02*
X185090000Y-103080000D01*
X190230000Y-100420000D02*
X190230000Y-103080000D01*
X191500000Y-100420000D02*
X192830000Y-100420000D01*
X192830000Y-100420000D02*
X192830000Y-101750000D01*
X207933545Y-120626764D02*
X210399429Y-122418333D01*
X206440571Y-122681667D02*
X207933545Y-120626764D01*
X208700964Y-124323939D02*
X206440571Y-122681667D01*
X209205050Y-124062256D02*
X208700964Y-124323939D01*
X210399429Y-122418333D02*
X209205050Y-124062256D01*
X196960000Y-105750000D02*
X196510000Y-105750000D01*
X196510000Y-105750000D02*
X196510000Y-105300000D01*
X199280000Y-102530000D02*
X199730000Y-102530000D01*
X199730000Y-102530000D02*
X199730000Y-102980000D01*
X196960000Y-102530000D02*
X196510000Y-102530000D01*
X196510000Y-102530000D02*
X196510000Y-102980000D01*
X199280000Y-105750000D02*
X199730000Y-105750000D01*
X198228680Y-118008619D02*
X198228680Y-117683061D01*
X197208680Y-118008619D02*
X197208680Y-117683061D01*
X206504000Y-120868221D02*
X206504000Y-121193779D01*
X205484000Y-120868221D02*
X205484000Y-121193779D01*
X213309539Y-127443920D02*
X213572920Y-127635278D01*
X213909080Y-126618722D02*
X214172461Y-126810080D01*
X222291080Y-132333722D02*
X222554461Y-132525080D01*
X221691539Y-133158920D02*
X221954920Y-133350278D01*
X224168340Y-128066213D02*
X224067737Y-127756589D01*
X223198263Y-128381411D02*
X223097660Y-128071787D01*
X202981779Y-103503000D02*
X202656221Y-103503000D01*
X202981779Y-104523000D02*
X202656221Y-104523000D01*
X220037263Y-118422411D02*
X219936660Y-118112787D01*
X221007340Y-118107213D02*
X220906737Y-117797589D01*
X216943340Y-108836213D02*
X216842737Y-108526589D01*
X215973263Y-109151411D02*
X215872660Y-108841787D01*
X221183539Y-101156080D02*
X221446920Y-100964722D01*
X221783080Y-101981278D02*
X222046461Y-101789920D01*
X230165080Y-95885278D02*
X230428461Y-95693920D01*
X229565539Y-95060080D02*
X229828920Y-94868722D01*
X238166080Y-89535278D02*
X238429461Y-89343920D01*
X237566539Y-88710080D02*
X237829920Y-88518722D01*
X234096779Y-85596000D02*
X233771221Y-85596000D01*
X234096779Y-86616000D02*
X233771221Y-86616000D01*
X223682779Y-86743000D02*
X223357221Y-86743000D01*
X223682779Y-85723000D02*
X223357221Y-85723000D01*
X213776779Y-85723000D02*
X213451221Y-85723000D01*
X213776779Y-86743000D02*
X213451221Y-86743000D01*
X207591263Y-80322411D02*
X207490660Y-80012787D01*
X208561340Y-80007213D02*
X208460737Y-79697589D01*
X205386340Y-69974213D02*
X205285737Y-69664589D01*
X204416263Y-70289411D02*
X204315660Y-69979787D01*
X200987263Y-60637411D02*
X200886660Y-60327787D01*
X201957340Y-60322213D02*
X201856737Y-60012589D01*
X196923263Y-63187589D02*
X196822660Y-63497213D01*
X197893340Y-63502787D02*
X197792737Y-63812411D01*
X193621263Y-72966589D02*
X193520660Y-73276213D01*
X194591340Y-73281787D02*
X194490737Y-73591411D01*
X192051340Y-82933787D02*
X191950737Y-83243411D01*
X191081263Y-82618589D02*
X190980660Y-82928213D01*
X183423779Y-86616000D02*
X183098221Y-86616000D01*
X183423779Y-85596000D02*
X183098221Y-85596000D01*
X173136779Y-85723000D02*
X172811221Y-85723000D01*
X173136779Y-86743000D02*
X172811221Y-86743000D01*
X163230779Y-86616000D02*
X162905221Y-86616000D01*
X163230779Y-85596000D02*
X162905221Y-85596000D01*
X164162640Y-91584801D02*
X164426021Y-91776159D01*
X164762181Y-90759603D02*
X165025562Y-90950961D01*
X173142080Y-96900722D02*
X173405461Y-97092080D01*
X172542539Y-97725920D02*
X172805920Y-97917278D01*
X180924539Y-102678920D02*
X181187920Y-102870278D01*
X181524080Y-101853722D02*
X181787461Y-102045080D01*
X182272340Y-111508787D02*
X182171737Y-111818411D01*
X181302263Y-111193589D02*
X181201660Y-111503213D01*
X178000263Y-121099589D02*
X177899660Y-121409213D01*
X178970340Y-121414787D02*
X178869737Y-121724411D01*
X176049340Y-130939787D02*
X175948737Y-131249411D01*
X175079263Y-130624589D02*
X174978660Y-130934213D01*
X180289539Y-130747080D02*
X180552920Y-130555722D01*
X180889080Y-131572278D02*
X181152461Y-131380920D01*
X188671539Y-124778080D02*
X188934920Y-124586722D01*
X189271080Y-125603278D02*
X189534461Y-125411920D01*
X201524000Y-115160000D02*
X201524000Y-117192000D01*
X201524000Y-117192000D02*
X201270000Y-117700000D01*
X201270000Y-117700000D02*
X198476000Y-117700000D01*
X198476000Y-117700000D02*
X198476000Y-115160000D01*
X198476000Y-115160000D02*
X201524000Y-115160000D01*
X218829429Y-128538333D02*
X217635050Y-130182256D01*
X217635050Y-130182256D02*
X217130964Y-130443939D01*
X217130964Y-130443939D02*
X214870571Y-128801667D01*
X214870571Y-128801667D02*
X216363545Y-126746764D01*
X216363545Y-126746764D02*
X218829429Y-128538333D01*
X225401667Y-132810571D02*
X227193236Y-135276455D01*
X223346764Y-134303545D02*
X225401667Y-132810571D01*
X224989036Y-136563939D02*
X223346764Y-134303545D01*
X225549314Y-136470834D02*
X224989036Y-136563939D01*
X227193236Y-135276455D02*
X225549314Y-136470834D01*
X220371216Y-123833041D02*
X222303763Y-123205119D01*
X222303763Y-123205119D02*
X222865390Y-123289707D01*
X222865390Y-123289707D02*
X223728784Y-125946959D01*
X223728784Y-125946959D02*
X221313100Y-126731862D01*
X221313100Y-126731862D02*
X220371216Y-123833041D01*
X217161216Y-113923041D02*
X219093763Y-113295119D01*
X219093763Y-113295119D02*
X219655390Y-113379707D01*
X219655390Y-113379707D02*
X220518784Y-116036959D01*
X220518784Y-116036959D02*
X218103100Y-116821862D01*
X218103100Y-116821862D02*
X217161216Y-113923041D01*
X213941216Y-106136959D02*
X214883100Y-103238138D01*
X216356900Y-106921862D02*
X213941216Y-106136959D01*
X217220293Y-104264610D02*
X216356900Y-106921862D01*
X216815647Y-103866061D02*
X217220293Y-104264610D01*
X214883100Y-103238138D02*
X216815647Y-103866061D01*
X222070571Y-98828333D02*
X224536455Y-97036764D01*
X223563545Y-100883236D02*
X222070571Y-98828333D01*
X225823939Y-99240964D02*
X223563545Y-100883236D01*
X225730834Y-98680686D02*
X225823939Y-99240964D01*
X224536455Y-97036764D02*
X225730834Y-98680686D01*
X232956455Y-90906764D02*
X234150834Y-92550686D01*
X234150834Y-92550686D02*
X234243939Y-93110964D01*
X234243939Y-93110964D02*
X231983545Y-94753236D01*
X231983545Y-94753236D02*
X230490571Y-92698333D01*
X230490571Y-92698333D02*
X232956455Y-90906764D01*
X239058138Y-85973100D02*
X241956959Y-85031216D01*
X239843041Y-88388784D02*
X239058138Y-85973100D01*
X242500293Y-87525390D02*
X239843041Y-88388784D01*
X242584881Y-86963763D02*
X242500293Y-87525390D01*
X241956959Y-85031216D02*
X242584881Y-86963763D01*
X232004000Y-87980000D02*
X228956000Y-87980000D01*
X232004000Y-85440000D02*
X232004000Y-87980000D01*
X229210000Y-85440000D02*
X232004000Y-85440000D01*
X228956000Y-85948000D02*
X229210000Y-85440000D01*
X228956000Y-87980000D02*
X228956000Y-85948000D01*
X207670571Y-86841667D02*
X208864950Y-85197744D01*
X208864950Y-85197744D02*
X209369036Y-84936061D01*
X209369036Y-84936061D02*
X211629429Y-86578333D01*
X211629429Y-86578333D02*
X210136455Y-88633236D01*
X210136455Y-88633236D02*
X207670571Y-86841667D01*
X204751216Y-75753041D02*
X206683763Y-75125119D01*
X206683763Y-75125119D02*
X207245390Y-75209707D01*
X207245390Y-75209707D02*
X208108784Y-77866959D01*
X208108784Y-77866959D02*
X205693100Y-78651862D01*
X205693100Y-78651862D02*
X204751216Y-75753041D01*
X202483100Y-68741862D02*
X201541216Y-65843041D01*
X204898784Y-67956959D02*
X202483100Y-68741862D01*
X204035390Y-65299707D02*
X204898784Y-67956959D01*
X203473763Y-65215119D02*
X204035390Y-65299707D01*
X201541216Y-65843041D02*
X203473763Y-65215119D01*
X198730000Y-55476000D02*
X200762000Y-55476000D01*
X200762000Y-55476000D02*
X201270000Y-55730000D01*
X201270000Y-55730000D02*
X201270000Y-58524000D01*
X201270000Y-58524000D02*
X198730000Y-58524000D01*
X198730000Y-58524000D02*
X198730000Y-55476000D01*
X198458784Y-65843041D02*
X197516900Y-68741862D01*
X196043100Y-65058138D02*
X198458784Y-65843041D01*
X195179707Y-67715390D02*
X196043100Y-65058138D01*
X195584353Y-68113939D02*
X195179707Y-67715390D01*
X197516900Y-68741862D02*
X195584353Y-68113939D01*
X195248784Y-75753041D02*
X194306900Y-78651862D01*
X192833100Y-74968138D02*
X195248784Y-75753041D01*
X191969707Y-77625390D02*
X192833100Y-74968138D01*
X192374353Y-78023939D02*
X191969707Y-77625390D01*
X194306900Y-78651862D02*
X192374353Y-78023939D01*
X192329429Y-86841667D02*
X189863545Y-88633236D01*
X190836455Y-84786764D02*
X192329429Y-86841667D01*
X188576061Y-86429036D02*
X190836455Y-84786764D01*
X188669166Y-86989314D02*
X188576061Y-86429036D01*
X189863545Y-88633236D02*
X188669166Y-86989314D01*
X178406000Y-87980000D02*
X178406000Y-85948000D01*
X178406000Y-85948000D02*
X178660000Y-85440000D01*
X178660000Y-85440000D02*
X181454000Y-85440000D01*
X181454000Y-85440000D02*
X181454000Y-87980000D01*
X181454000Y-87980000D02*
X178406000Y-87980000D01*
X171044000Y-87980000D02*
X167996000Y-87980000D01*
X171044000Y-85440000D02*
X171044000Y-87980000D01*
X168250000Y-85440000D02*
X171044000Y-85440000D01*
X167996000Y-85948000D02*
X168250000Y-85440000D01*
X167996000Y-87980000D02*
X167996000Y-85948000D01*
X157258138Y-87446900D02*
X157886061Y-85514353D01*
X157886061Y-85514353D02*
X158284610Y-85109707D01*
X158284610Y-85109707D02*
X160941862Y-85973100D01*
X160941862Y-85973100D02*
X160156959Y-88388784D01*
X160156959Y-88388784D02*
X157258138Y-87446900D01*
X167043545Y-90906764D02*
X169509429Y-92698333D01*
X165550571Y-92961667D02*
X167043545Y-90906764D01*
X167810964Y-94603939D02*
X165550571Y-92961667D01*
X168315050Y-94342256D02*
X167810964Y-94603939D01*
X169509429Y-92698333D02*
X168315050Y-94342256D01*
X177929429Y-98828333D02*
X176735050Y-100472256D01*
X176735050Y-100472256D02*
X176230964Y-100733939D01*
X176230964Y-100733939D02*
X173970571Y-99091667D01*
X173970571Y-99091667D02*
X175463545Y-97036764D01*
X175463545Y-97036764D02*
X177929429Y-98828333D01*
X185116900Y-103238138D02*
X186058784Y-106136959D01*
X182701216Y-104023041D02*
X185116900Y-103238138D01*
X183564610Y-106680293D02*
X182701216Y-104023041D01*
X184126237Y-106764881D02*
X183564610Y-106680293D01*
X186058784Y-106136959D02*
X184126237Y-106764881D01*
X181896900Y-116821862D02*
X179964353Y-116193939D01*
X179964353Y-116193939D02*
X179559707Y-115795390D01*
X179559707Y-115795390D02*
X180423100Y-113138138D01*
X180423100Y-113138138D02*
X182838784Y-113923041D01*
X182838784Y-113923041D02*
X181896900Y-116821862D01*
X179628784Y-123833041D02*
X178686900Y-126731862D01*
X177213100Y-123048138D02*
X179628784Y-123833041D01*
X176349707Y-125705390D02*
X177213100Y-123048138D01*
X176754353Y-126103939D02*
X176349707Y-125705390D01*
X178686900Y-126731862D02*
X176754353Y-126103939D01*
X174861667Y-136769429D02*
X173217744Y-135575050D01*
X173217744Y-135575050D02*
X172956061Y-135070964D01*
X172956061Y-135070964D02*
X174598333Y-132810571D01*
X174598333Y-132810571D02*
X176653236Y-134303545D01*
X176653236Y-134303545D02*
X174861667Y-136769429D01*
X181170571Y-128538333D02*
X183636455Y-126746764D01*
X182663545Y-130593236D02*
X181170571Y-128538333D01*
X184923939Y-128950964D02*
X182663545Y-130593236D01*
X184830834Y-128390686D02*
X184923939Y-128950964D01*
X183636455Y-126746764D02*
X184830834Y-128390686D01*
X192066455Y-120626764D02*
X193260834Y-122270686D01*
X193260834Y-122270686D02*
X193353939Y-122830964D01*
X193353939Y-122830964D02*
X191093545Y-124473236D01*
X191093545Y-124473236D02*
X189600571Y-122418333D01*
X189600571Y-122418333D02*
X192066455Y-120626764D01*
X199290000Y-100258578D02*
X199290000Y-99741422D01*
X200710000Y-100258578D02*
X200710000Y-99741422D01*
X202854779Y-101475000D02*
X202529221Y-101475000D01*
X202854779Y-100455000D02*
X202529221Y-100455000D01*
X202656221Y-102999000D02*
X202981779Y-102999000D01*
X202656221Y-101979000D02*
X202981779Y-101979000D01*
X198549800Y-111186179D02*
X198549800Y-110860621D01*
X199569800Y-111186179D02*
X199569800Y-110860621D01*
X201043000Y-111186179D02*
X201043000Y-110860621D01*
X200023000Y-111186179D02*
X200023000Y-110860621D01*
X195837080Y-107934979D02*
X195837080Y-107609421D01*
X196857080Y-107934979D02*
X196857080Y-107609421D01*
X195333080Y-107929899D02*
X195333080Y-107604341D01*
X194313080Y-107929899D02*
X194313080Y-107604341D01*
X214910000Y-103080000D02*
X214910000Y-100420000D01*
X209770000Y-103080000D02*
X214910000Y-103080000D01*
X209770000Y-100420000D02*
X214910000Y-100420000D01*
X209770000Y-103080000D02*
X209770000Y-100420000D01*
X208500000Y-103080000D02*
X207170000Y-103080000D01*
X207170000Y-103080000D02*
X207170000Y-101750000D01*
D14*
X198310714Y-80249780D02*
X198310714Y-81059304D01*
X198358333Y-81154542D01*
X198405952Y-81202161D01*
X198501190Y-81249780D01*
X198691666Y-81249780D01*
X198786904Y-81202161D01*
X198834523Y-81154542D01*
X198882142Y-81059304D01*
X198882142Y-80249780D01*
X199882142Y-81249780D02*
X199310714Y-81249780D01*
X199596428Y-81249780D02*
X199596428Y-80249780D01*
X199501190Y-80392638D01*
X199405952Y-80487876D01*
X199310714Y-80535495D01*
X200501190Y-80249780D02*
X200596428Y-80249780D01*
X200691666Y-80297400D01*
X200739285Y-80345019D01*
X200786904Y-80440257D01*
X200834523Y-80630733D01*
X200834523Y-80868828D01*
X200786904Y-81059304D01*
X200739285Y-81154542D01*
X200691666Y-81202161D01*
X200596428Y-81249780D01*
X200501190Y-81249780D01*
X200405952Y-81202161D01*
X200358333Y-81154542D01*
X200310714Y-81059304D01*
X200263095Y-80868828D01*
X200263095Y-80630733D01*
X200310714Y-80440257D01*
X200358333Y-80345019D01*
X200405952Y-80297400D01*
X200501190Y-80249780D01*
X201167857Y-80249780D02*
X201786904Y-80249780D01*
X201453571Y-80630733D01*
X201596428Y-80630733D01*
X201691666Y-80678352D01*
X201739285Y-80725971D01*
X201786904Y-80821209D01*
X201786904Y-81059304D01*
X201739285Y-81154542D01*
X201691666Y-81202161D01*
X201596428Y-81249780D01*
X201310714Y-81249780D01*
X201215476Y-81202161D01*
X201167857Y-81154542D01*
X197150380Y-94329285D02*
X197150380Y-94900714D01*
X197150380Y-94615000D02*
X196150380Y-94615000D01*
X196293238Y-94710238D01*
X196388476Y-94805476D01*
X196436095Y-94900714D01*
X196245619Y-85756714D02*
X196198000Y-85709095D01*
X196150380Y-85613857D01*
X196150380Y-85375761D01*
X196198000Y-85280523D01*
X196245619Y-85232904D01*
X196340857Y-85185285D01*
X196436095Y-85185285D01*
X196578952Y-85232904D01*
X197150380Y-85804333D01*
X197150380Y-85185285D01*
X204151380Y-94948333D02*
X204151380Y-94329285D01*
X204532333Y-94662619D01*
X204532333Y-94519761D01*
X204579952Y-94424523D01*
X204627571Y-94376904D01*
X204722809Y-94329285D01*
X204960904Y-94329285D01*
X205056142Y-94376904D01*
X205103761Y-94424523D01*
X205151380Y-94519761D01*
X205151380Y-94805476D01*
X205103761Y-94900714D01*
X205056142Y-94948333D01*
X204484714Y-85153523D02*
X205151380Y-85153523D01*
X204103761Y-85391619D02*
X204818047Y-85629714D01*
X204818047Y-85010666D01*
D15*
X215162023Y-86367880D02*
X215162023Y-85367880D01*
X215400119Y-85367880D01*
X215542976Y-85415500D01*
X215638214Y-85510738D01*
X215685833Y-85605976D01*
X215733452Y-85796452D01*
X215733452Y-85939309D01*
X215685833Y-86129785D01*
X215638214Y-86225023D01*
X215542976Y-86320261D01*
X215400119Y-86367880D01*
X215162023Y-86367880D01*
X216685833Y-86367880D02*
X216114404Y-86367880D01*
X216400119Y-86367880D02*
X216400119Y-85367880D01*
X216304880Y-85510738D01*
X216209642Y-85605976D01*
X216114404Y-85653595D01*
X217638214Y-86367880D02*
X217066785Y-86367880D01*
X217352500Y-86367880D02*
X217352500Y-85367880D01*
X217257261Y-85510738D01*
X217162023Y-85605976D01*
X217066785Y-85653595D01*
X218019166Y-85463119D02*
X218066785Y-85415500D01*
X218162023Y-85367880D01*
X218400119Y-85367880D01*
X218495357Y-85415500D01*
X218542976Y-85463119D01*
X218590595Y-85558357D01*
X218590595Y-85653595D01*
X218542976Y-85796452D01*
X217971547Y-86367880D01*
X218590595Y-86367880D01*
X189174285Y-103452380D02*
X189174285Y-104166666D01*
X189126666Y-104309523D01*
X189031428Y-104404761D01*
X188888571Y-104452380D01*
X188793333Y-104452380D01*
X190174285Y-104452380D02*
X189602857Y-104452380D01*
X189888571Y-104452380D02*
X189888571Y-103452380D01*
X189793333Y-103595238D01*
X189698095Y-103690476D01*
X189602857Y-103738095D01*
X190793333Y-103452380D02*
X190888571Y-103452380D01*
X190983809Y-103500000D01*
X191031428Y-103547619D01*
X191079047Y-103642857D01*
X191126666Y-103833333D01*
X191126666Y-104071428D01*
X191079047Y-104261904D01*
X191031428Y-104357142D01*
X190983809Y-104404761D01*
X190888571Y-104452380D01*
X190793333Y-104452380D01*
X190698095Y-104404761D01*
X190650476Y-104357142D01*
X190602857Y-104261904D01*
X190555238Y-104071428D01*
X190555238Y-103833333D01*
X190602857Y-103642857D01*
X190650476Y-103547619D01*
X190698095Y-103500000D01*
X190793333Y-103452380D01*
X191460000Y-103452380D02*
X192079047Y-103452380D01*
X191745714Y-103833333D01*
X191888571Y-103833333D01*
X191983809Y-103880952D01*
X192031428Y-103928571D01*
X192079047Y-104023809D01*
X192079047Y-104261904D01*
X192031428Y-104357142D01*
X191983809Y-104404761D01*
X191888571Y-104452380D01*
X191602857Y-104452380D01*
X191507619Y-104404761D01*
X191460000Y-104357142D01*
X208805472Y-125102346D02*
X209393257Y-124293329D01*
X209585880Y-124433278D01*
X209673464Y-124555772D01*
X209694534Y-124688801D01*
X209677079Y-124793840D01*
X209603644Y-124975928D01*
X209519675Y-125091502D01*
X209369191Y-125217611D01*
X209274687Y-125266670D01*
X209141658Y-125287740D01*
X208998095Y-125242295D01*
X208805472Y-125102346D01*
X210038259Y-125998019D02*
X209575964Y-125662142D01*
X209807112Y-125830081D02*
X210394897Y-125021064D01*
X210233878Y-125080658D01*
X210100850Y-125101728D01*
X209995811Y-125084273D01*
X211126865Y-125552869D02*
X211203914Y-125608849D01*
X211252973Y-125703353D01*
X211263508Y-125769867D01*
X211246053Y-125874906D01*
X211172619Y-126056995D01*
X211032670Y-126249618D01*
X210882186Y-126375726D01*
X210787682Y-126424786D01*
X210721168Y-126435321D01*
X210616129Y-126417866D01*
X210539080Y-126361886D01*
X210490020Y-126267382D01*
X210479485Y-126200868D01*
X210496940Y-126095829D01*
X210570375Y-125913740D01*
X210710323Y-125721117D01*
X210860807Y-125595009D01*
X210955311Y-125545949D01*
X211021826Y-125535414D01*
X211126865Y-125552869D01*
X211648755Y-126049765D02*
X211715269Y-126039230D01*
X211820308Y-126056685D01*
X212012931Y-126196634D01*
X212061990Y-126291138D01*
X212072525Y-126357653D01*
X212055070Y-126462692D01*
X211999091Y-126539741D01*
X211876597Y-126627325D01*
X211078424Y-126753743D01*
X211579244Y-127117610D01*
X190668714Y-105471380D02*
X190668714Y-106280904D01*
X190716333Y-106376142D01*
X190763952Y-106423761D01*
X190859190Y-106471380D01*
X191049666Y-106471380D01*
X191144904Y-106423761D01*
X191192523Y-106376142D01*
X191240142Y-106280904D01*
X191240142Y-105471380D01*
X192240142Y-106471380D02*
X191668714Y-106471380D01*
X191954428Y-106471380D02*
X191954428Y-105471380D01*
X191859190Y-105614238D01*
X191763952Y-105709476D01*
X191668714Y-105757095D01*
X192859190Y-105471380D02*
X192954428Y-105471380D01*
X193049666Y-105519000D01*
X193097285Y-105566619D01*
X193144904Y-105661857D01*
X193192523Y-105852333D01*
X193192523Y-106090428D01*
X193144904Y-106280904D01*
X193097285Y-106376142D01*
X193049666Y-106423761D01*
X192954428Y-106471380D01*
X192859190Y-106471380D01*
X192763952Y-106423761D01*
X192716333Y-106376142D01*
X192668714Y-106280904D01*
X192621095Y-106090428D01*
X192621095Y-105852333D01*
X192668714Y-105661857D01*
X192716333Y-105566619D01*
X192763952Y-105519000D01*
X192859190Y-105471380D01*
X193573476Y-105566619D02*
X193621095Y-105519000D01*
X193716333Y-105471380D01*
X193954428Y-105471380D01*
X194049666Y-105519000D01*
X194097285Y-105566619D01*
X194144904Y-105661857D01*
X194144904Y-105757095D01*
X194097285Y-105899952D01*
X193525857Y-106471380D01*
X194144904Y-106471380D01*
X197458152Y-114809542D02*
X197410533Y-114857161D01*
X197267676Y-114904780D01*
X197172438Y-114904780D01*
X197029580Y-114857161D01*
X196934342Y-114761923D01*
X196886723Y-114666685D01*
X196839104Y-114476209D01*
X196839104Y-114333352D01*
X196886723Y-114142876D01*
X196934342Y-114047638D01*
X197029580Y-113952400D01*
X197172438Y-113904780D01*
X197267676Y-113904780D01*
X197410533Y-113952400D01*
X197458152Y-114000019D01*
X198410533Y-114904780D02*
X197839104Y-114904780D01*
X198124819Y-114904780D02*
X198124819Y-113904780D01*
X198029580Y-114047638D01*
X197934342Y-114142876D01*
X197839104Y-114190495D01*
X199029580Y-113904780D02*
X199124819Y-113904780D01*
X199220057Y-113952400D01*
X199267676Y-114000019D01*
X199315295Y-114095257D01*
X199362914Y-114285733D01*
X199362914Y-114523828D01*
X199315295Y-114714304D01*
X199267676Y-114809542D01*
X199220057Y-114857161D01*
X199124819Y-114904780D01*
X199029580Y-114904780D01*
X198934342Y-114857161D01*
X198886723Y-114809542D01*
X198839104Y-114714304D01*
X198791485Y-114523828D01*
X198791485Y-114285733D01*
X198839104Y-114095257D01*
X198886723Y-114000019D01*
X198934342Y-113952400D01*
X199029580Y-113904780D01*
X200315295Y-114904780D02*
X199743866Y-114904780D01*
X200029580Y-114904780D02*
X200029580Y-113904780D01*
X199934342Y-114047638D01*
X199839104Y-114142876D01*
X199743866Y-114190495D01*
X203223952Y-119229142D02*
X203176333Y-119276761D01*
X203033476Y-119324380D01*
X202938238Y-119324380D01*
X202795380Y-119276761D01*
X202700142Y-119181523D01*
X202652523Y-119086285D01*
X202604904Y-118895809D01*
X202604904Y-118752952D01*
X202652523Y-118562476D01*
X202700142Y-118467238D01*
X202795380Y-118372000D01*
X202938238Y-118324380D01*
X203033476Y-118324380D01*
X203176333Y-118372000D01*
X203223952Y-118419619D01*
X204176333Y-119324380D02*
X203604904Y-119324380D01*
X203890619Y-119324380D02*
X203890619Y-118324380D01*
X203795380Y-118467238D01*
X203700142Y-118562476D01*
X203604904Y-118610095D01*
X204795380Y-118324380D02*
X204890619Y-118324380D01*
X204985857Y-118372000D01*
X205033476Y-118419619D01*
X205081095Y-118514857D01*
X205128714Y-118705333D01*
X205128714Y-118943428D01*
X205081095Y-119133904D01*
X205033476Y-119229142D01*
X204985857Y-119276761D01*
X204890619Y-119324380D01*
X204795380Y-119324380D01*
X204700142Y-119276761D01*
X204652523Y-119229142D01*
X204604904Y-119133904D01*
X204557285Y-118943428D01*
X204557285Y-118705333D01*
X204604904Y-118514857D01*
X204652523Y-118419619D01*
X204700142Y-118372000D01*
X204795380Y-118324380D01*
X205509666Y-118419619D02*
X205557285Y-118372000D01*
X205652523Y-118324380D01*
X205890619Y-118324380D01*
X205985857Y-118372000D01*
X206033476Y-118419619D01*
X206081095Y-118514857D01*
X206081095Y-118610095D01*
X206033476Y-118752952D01*
X205462047Y-119324380D01*
X206081095Y-119324380D01*
X213133748Y-124980174D02*
X213067233Y-124990709D01*
X212923670Y-124945265D01*
X212846620Y-124889285D01*
X212759036Y-124766791D01*
X212737967Y-124633762D01*
X212755422Y-124528723D01*
X212828856Y-124346635D01*
X212912825Y-124231061D01*
X213063309Y-124104953D01*
X213157813Y-124055893D01*
X213290842Y-124034823D01*
X213434406Y-124080268D01*
X213511455Y-124136248D01*
X213599039Y-124258742D01*
X213609574Y-124325256D01*
X213848260Y-125617019D02*
X213385965Y-125281142D01*
X213617113Y-125449081D02*
X214204898Y-124640064D01*
X214043879Y-124699658D01*
X213910851Y-124720728D01*
X213805812Y-124703273D01*
X214936866Y-125171869D02*
X215013915Y-125227849D01*
X215062974Y-125322353D01*
X215073509Y-125388867D01*
X215056054Y-125493906D01*
X214982620Y-125675995D01*
X214842671Y-125868618D01*
X214692187Y-125994726D01*
X214597683Y-126043786D01*
X214531169Y-126054321D01*
X214426130Y-126036866D01*
X214349081Y-125980886D01*
X214300021Y-125886382D01*
X214289486Y-125819868D01*
X214306941Y-125714829D01*
X214380376Y-125532740D01*
X214520324Y-125340117D01*
X214670808Y-125214009D01*
X214765312Y-125164949D01*
X214831827Y-125154414D01*
X214936866Y-125171869D01*
X215476210Y-125563726D02*
X215977030Y-125927593D01*
X215483440Y-126039862D01*
X215599014Y-126123831D01*
X215648073Y-126218335D01*
X215658608Y-126284850D01*
X215641153Y-126389889D01*
X215501204Y-126582512D01*
X215406700Y-126631571D01*
X215340186Y-126642106D01*
X215235147Y-126624651D01*
X215003999Y-126456712D01*
X214954940Y-126362208D01*
X214944405Y-126295694D01*
X219483748Y-129425174D02*
X219417233Y-129435709D01*
X219273670Y-129390265D01*
X219196620Y-129334285D01*
X219109036Y-129211791D01*
X219087967Y-129078762D01*
X219105422Y-128973723D01*
X219178856Y-128791635D01*
X219262825Y-128676061D01*
X219413309Y-128549953D01*
X219507813Y-128500893D01*
X219640842Y-128479823D01*
X219784406Y-128525268D01*
X219861455Y-128581248D01*
X219949039Y-128703742D01*
X219959574Y-128770256D01*
X220198260Y-130062019D02*
X219735965Y-129726142D01*
X219967113Y-129894081D02*
X220554898Y-129085064D01*
X220393879Y-129144658D01*
X220260851Y-129165728D01*
X220155812Y-129148273D01*
X221286866Y-129616869D02*
X221363915Y-129672849D01*
X221412974Y-129767353D01*
X221423509Y-129833867D01*
X221406054Y-129938906D01*
X221332620Y-130120995D01*
X221192671Y-130313618D01*
X221042187Y-130439726D01*
X220947683Y-130488786D01*
X220881169Y-130499321D01*
X220776130Y-130481866D01*
X220699081Y-130425886D01*
X220650021Y-130331382D01*
X220639486Y-130264868D01*
X220656941Y-130159829D01*
X220730376Y-129977740D01*
X220870324Y-129785117D01*
X221020808Y-129659009D01*
X221115312Y-129609949D01*
X221181827Y-129599414D01*
X221286866Y-129616869D01*
X222054053Y-130586286D02*
X221662196Y-131125631D01*
X222085348Y-130138140D02*
X221472878Y-130576061D01*
X221973698Y-130939928D01*
X221183532Y-127316085D02*
X221123528Y-127285512D01*
X221034095Y-127164362D01*
X221004664Y-127073785D01*
X221005807Y-126923205D01*
X221066954Y-126803198D01*
X221142816Y-126728479D01*
X221309254Y-126624330D01*
X221445120Y-126580185D01*
X221640988Y-126566613D01*
X221746280Y-126582471D01*
X221866287Y-126643618D01*
X221955721Y-126764768D01*
X221985151Y-126855345D01*
X221984008Y-127005925D01*
X221953435Y-127065929D01*
X221387257Y-128251283D02*
X221210676Y-127707823D01*
X221298966Y-127979553D02*
X222250023Y-127670536D01*
X222084727Y-127624105D01*
X221964720Y-127562958D01*
X221890002Y-127487096D01*
X222529610Y-128531016D02*
X222559040Y-128621593D01*
X222543182Y-128726884D01*
X222512608Y-128786888D01*
X222436747Y-128861607D01*
X222270308Y-128965755D01*
X222043866Y-129039331D01*
X221847997Y-129052903D01*
X221742705Y-129037045D01*
X221682702Y-129006471D01*
X221607983Y-128930610D01*
X221578553Y-128840033D01*
X221594411Y-128734741D01*
X221624985Y-128674737D01*
X221700846Y-128600019D01*
X221867285Y-128495870D01*
X222093727Y-128422294D01*
X222289596Y-128408723D01*
X222394887Y-128424581D01*
X222454891Y-128455154D01*
X222529610Y-128531016D01*
X222912202Y-129708514D02*
X222765051Y-129255630D01*
X222297452Y-129357493D01*
X222357455Y-129388066D01*
X222432174Y-129463928D01*
X222505750Y-129690370D01*
X222489891Y-129795662D01*
X222459318Y-129855665D01*
X222383456Y-129930384D01*
X222157014Y-130003959D01*
X222051722Y-129988101D01*
X221991719Y-129957528D01*
X221917000Y-129881666D01*
X221843425Y-129655224D01*
X221859283Y-129549932D01*
X221889856Y-129489929D01*
X202309552Y-105792542D02*
X202261933Y-105840161D01*
X202119076Y-105887780D01*
X202023838Y-105887780D01*
X201880980Y-105840161D01*
X201785742Y-105744923D01*
X201738123Y-105649685D01*
X201690504Y-105459209D01*
X201690504Y-105316352D01*
X201738123Y-105125876D01*
X201785742Y-105030638D01*
X201880980Y-104935400D01*
X202023838Y-104887780D01*
X202119076Y-104887780D01*
X202261933Y-104935400D01*
X202309552Y-104983019D01*
X203261933Y-105887780D02*
X202690504Y-105887780D01*
X202976219Y-105887780D02*
X202976219Y-104887780D01*
X202880980Y-105030638D01*
X202785742Y-105125876D01*
X202690504Y-105173495D01*
X203880980Y-104887780D02*
X203976219Y-104887780D01*
X204071457Y-104935400D01*
X204119076Y-104983019D01*
X204166695Y-105078257D01*
X204214314Y-105268733D01*
X204214314Y-105506828D01*
X204166695Y-105697304D01*
X204119076Y-105792542D01*
X204071457Y-105840161D01*
X203976219Y-105887780D01*
X203880980Y-105887780D01*
X203785742Y-105840161D01*
X203738123Y-105792542D01*
X203690504Y-105697304D01*
X203642885Y-105506828D01*
X203642885Y-105268733D01*
X203690504Y-105078257D01*
X203738123Y-104983019D01*
X203785742Y-104935400D01*
X203880980Y-104887780D01*
X204785742Y-105316352D02*
X204690504Y-105268733D01*
X204642885Y-105221114D01*
X204595266Y-105125876D01*
X204595266Y-105078257D01*
X204642885Y-104983019D01*
X204690504Y-104935400D01*
X204785742Y-104887780D01*
X204976219Y-104887780D01*
X205071457Y-104935400D01*
X205119076Y-104983019D01*
X205166695Y-105078257D01*
X205166695Y-105125876D01*
X205119076Y-105221114D01*
X205071457Y-105268733D01*
X204976219Y-105316352D01*
X204785742Y-105316352D01*
X204690504Y-105363971D01*
X204642885Y-105411590D01*
X204595266Y-105506828D01*
X204595266Y-105697304D01*
X204642885Y-105792542D01*
X204690504Y-105840161D01*
X204785742Y-105887780D01*
X204976219Y-105887780D01*
X205071457Y-105840161D01*
X205119076Y-105792542D01*
X205166695Y-105697304D01*
X205166695Y-105506828D01*
X205119076Y-105411590D01*
X205071457Y-105363971D01*
X204976219Y-105316352D01*
X218135531Y-118172085D02*
X218075527Y-118141512D01*
X217986094Y-118020362D01*
X217956663Y-117929785D01*
X217957806Y-117779205D01*
X218018953Y-117659198D01*
X218094815Y-117584479D01*
X218261253Y-117480330D01*
X218397119Y-117436185D01*
X218592987Y-117422613D01*
X218698279Y-117438471D01*
X218818286Y-117499618D01*
X218907720Y-117620768D01*
X218937150Y-117711345D01*
X218936007Y-117861925D01*
X218905434Y-117921929D01*
X218339256Y-119107283D02*
X218162675Y-118563823D01*
X218250965Y-118835553D02*
X219202022Y-118526536D01*
X219036726Y-118480105D01*
X218916719Y-118418958D01*
X218842001Y-118343096D01*
X219481609Y-119387016D02*
X219511039Y-119477593D01*
X219495181Y-119582884D01*
X219464607Y-119642888D01*
X219388746Y-119717607D01*
X219222307Y-119821755D01*
X218995865Y-119895331D01*
X218799996Y-119908903D01*
X218694704Y-119893045D01*
X218634701Y-119862471D01*
X218559982Y-119786610D01*
X218530552Y-119696033D01*
X218546410Y-119590741D01*
X218576984Y-119530737D01*
X218652845Y-119456019D01*
X218819284Y-119351870D01*
X219045726Y-119278294D01*
X219241595Y-119264723D01*
X219346886Y-119280581D01*
X219406890Y-119311154D01*
X219481609Y-119387016D01*
X218780709Y-120465936D02*
X218839569Y-120647089D01*
X218914288Y-120722951D01*
X218974291Y-120753524D01*
X219139587Y-120799956D01*
X219335455Y-120786384D01*
X219697763Y-120668663D01*
X219773624Y-120593944D01*
X219804198Y-120533941D01*
X219820056Y-120428649D01*
X219761195Y-120247495D01*
X219686477Y-120171634D01*
X219626473Y-120141060D01*
X219521181Y-120125202D01*
X219294739Y-120198778D01*
X219218878Y-120273496D01*
X219188304Y-120333500D01*
X219172446Y-120438792D01*
X219231306Y-120619945D01*
X219306025Y-120695807D01*
X219366029Y-120726380D01*
X219471320Y-120742239D01*
X217246532Y-107758085D02*
X217186528Y-107727512D01*
X217097095Y-107606362D01*
X217067664Y-107515785D01*
X217068807Y-107365205D01*
X217129954Y-107245198D01*
X217205816Y-107170479D01*
X217372254Y-107066330D01*
X217508120Y-107022185D01*
X217703988Y-107008613D01*
X217809280Y-107024471D01*
X217929287Y-107085618D01*
X218018721Y-107206768D01*
X218048151Y-107297345D01*
X218047008Y-107447925D01*
X218016435Y-107507929D01*
X217450257Y-108693283D02*
X217273676Y-108149823D01*
X217361966Y-108421553D02*
X218313023Y-108112536D01*
X218147727Y-108066105D01*
X218027720Y-108004958D01*
X217953002Y-107929096D01*
X217744559Y-109599052D02*
X217567978Y-109055591D01*
X217656268Y-109327321D02*
X218607325Y-109018304D01*
X218442029Y-108971873D01*
X218322022Y-108910726D01*
X218247304Y-108834864D01*
X218886911Y-109878784D02*
X218916342Y-109969361D01*
X218900483Y-110074653D01*
X218869910Y-110134656D01*
X218794048Y-110209375D01*
X218627610Y-110313523D01*
X218401168Y-110387099D01*
X218205299Y-110400671D01*
X218100007Y-110384813D01*
X218040004Y-110354239D01*
X217965285Y-110278378D01*
X217935855Y-110187801D01*
X217951713Y-110082509D01*
X217982286Y-110022505D01*
X218058148Y-109947787D01*
X218224587Y-109843638D01*
X218451029Y-109770063D01*
X218646897Y-109756491D01*
X218752189Y-109772349D01*
X218812193Y-109802922D01*
X218886911Y-109878784D01*
X219141594Y-101149694D02*
X219131059Y-101216208D01*
X219043475Y-101338702D01*
X218966426Y-101394682D01*
X218822862Y-101440126D01*
X218689834Y-101419057D01*
X218595330Y-101369997D01*
X218444846Y-101243889D01*
X218360876Y-101128315D01*
X218287442Y-100946226D01*
X218269987Y-100841187D01*
X218291057Y-100708159D01*
X218378641Y-100585665D01*
X218455690Y-100529685D01*
X218599254Y-100484240D01*
X218665768Y-100494775D01*
X219968066Y-100666948D02*
X219505771Y-101002825D01*
X219736918Y-100834886D02*
X219149133Y-100025869D01*
X219156053Y-100197423D01*
X219134984Y-100330451D01*
X219085924Y-100424956D01*
X220738559Y-100107152D02*
X220276263Y-100443029D01*
X220507411Y-100275091D02*
X219919626Y-99466074D01*
X219926546Y-99637627D01*
X219905476Y-99770656D01*
X219856417Y-99865160D01*
X221509051Y-99547357D02*
X221046756Y-99883234D01*
X221277903Y-99715295D02*
X220690118Y-98906278D01*
X220697038Y-99077832D01*
X220675968Y-99210860D01*
X220626909Y-99305365D01*
X228461061Y-95166800D02*
X228450526Y-95233314D01*
X228362942Y-95355808D01*
X228285893Y-95411788D01*
X228142329Y-95457232D01*
X228009301Y-95436163D01*
X227914797Y-95387103D01*
X227764313Y-95260995D01*
X227680343Y-95145421D01*
X227606909Y-94963332D01*
X227589454Y-94858293D01*
X227610524Y-94725265D01*
X227698108Y-94602771D01*
X227775157Y-94546791D01*
X227918721Y-94501346D01*
X227985235Y-94511881D01*
X229287533Y-94684054D02*
X228825238Y-95019931D01*
X229056385Y-94851992D02*
X228468600Y-94042975D01*
X228475520Y-94214529D01*
X228454451Y-94347557D01*
X228405391Y-94442062D01*
X230058026Y-94124258D02*
X229595730Y-94460135D01*
X229826878Y-94292197D02*
X229239093Y-93483180D01*
X229246013Y-93654733D01*
X229224943Y-93787762D01*
X229175884Y-93882266D01*
X229834417Y-93168372D02*
X229844952Y-93101858D01*
X229894011Y-93007354D01*
X230086634Y-92867405D01*
X230191673Y-92849950D01*
X230258188Y-92860485D01*
X230352692Y-92909544D01*
X230408671Y-92986593D01*
X230454116Y-93130157D01*
X230327698Y-93928330D01*
X230828518Y-93564463D01*
X233924394Y-90634094D02*
X233913859Y-90700608D01*
X233826275Y-90823102D01*
X233749226Y-90879082D01*
X233605662Y-90924526D01*
X233472634Y-90903457D01*
X233378130Y-90854397D01*
X233227646Y-90728289D01*
X233143676Y-90612715D01*
X233070242Y-90430626D01*
X233052787Y-90325587D01*
X233073857Y-90192559D01*
X233161441Y-90070065D01*
X233238490Y-90014085D01*
X233382054Y-89968640D01*
X233448568Y-89979175D01*
X234750866Y-90151348D02*
X234288571Y-90487225D01*
X234519718Y-90319286D02*
X233931933Y-89510269D01*
X233938853Y-89681823D01*
X233917784Y-89814851D01*
X233868724Y-89909356D01*
X235521359Y-89591552D02*
X235059063Y-89927429D01*
X235290211Y-89759491D02*
X234702426Y-88950474D01*
X234709346Y-89122027D01*
X234688276Y-89255056D01*
X234639217Y-89349560D01*
X235203246Y-88586607D02*
X235704066Y-88222740D01*
X235658312Y-88726865D01*
X235773885Y-88642896D01*
X235878924Y-88625441D01*
X235945439Y-88635976D01*
X236039943Y-88685035D01*
X236179892Y-88877658D01*
X236197347Y-88982697D01*
X236186812Y-89049212D01*
X236137752Y-89143716D01*
X235906605Y-89311654D01*
X235801566Y-89329109D01*
X235735051Y-89318574D01*
X232814952Y-87893142D02*
X232767333Y-87940761D01*
X232624476Y-87988380D01*
X232529238Y-87988380D01*
X232386380Y-87940761D01*
X232291142Y-87845523D01*
X232243523Y-87750285D01*
X232195904Y-87559809D01*
X232195904Y-87416952D01*
X232243523Y-87226476D01*
X232291142Y-87131238D01*
X232386380Y-87036000D01*
X232529238Y-86988380D01*
X232624476Y-86988380D01*
X232767333Y-87036000D01*
X232814952Y-87083619D01*
X233767333Y-87988380D02*
X233195904Y-87988380D01*
X233481619Y-87988380D02*
X233481619Y-86988380D01*
X233386380Y-87131238D01*
X233291142Y-87226476D01*
X233195904Y-87274095D01*
X234719714Y-87988380D02*
X234148285Y-87988380D01*
X234434000Y-87988380D02*
X234434000Y-86988380D01*
X234338761Y-87131238D01*
X234243523Y-87226476D01*
X234148285Y-87274095D01*
X235576857Y-87321714D02*
X235576857Y-87988380D01*
X235338761Y-86940761D02*
X235100666Y-87655047D01*
X235719714Y-87655047D01*
X222908952Y-88241142D02*
X222861333Y-88288761D01*
X222718476Y-88336380D01*
X222623238Y-88336380D01*
X222480380Y-88288761D01*
X222385142Y-88193523D01*
X222337523Y-88098285D01*
X222289904Y-87907809D01*
X222289904Y-87764952D01*
X222337523Y-87574476D01*
X222385142Y-87479238D01*
X222480380Y-87384000D01*
X222623238Y-87336380D01*
X222718476Y-87336380D01*
X222861333Y-87384000D01*
X222908952Y-87431619D01*
X223861333Y-88336380D02*
X223289904Y-88336380D01*
X223575619Y-88336380D02*
X223575619Y-87336380D01*
X223480380Y-87479238D01*
X223385142Y-87574476D01*
X223289904Y-87622095D01*
X224813714Y-88336380D02*
X224242285Y-88336380D01*
X224528000Y-88336380D02*
X224528000Y-87336380D01*
X224432761Y-87479238D01*
X224337523Y-87574476D01*
X224242285Y-87622095D01*
X225718476Y-87336380D02*
X225242285Y-87336380D01*
X225194666Y-87812571D01*
X225242285Y-87764952D01*
X225337523Y-87717333D01*
X225575619Y-87717333D01*
X225670857Y-87764952D01*
X225718476Y-87812571D01*
X225766095Y-87907809D01*
X225766095Y-88145904D01*
X225718476Y-88241142D01*
X225670857Y-88288761D01*
X225575619Y-88336380D01*
X225337523Y-88336380D01*
X225242285Y-88288761D01*
X225194666Y-88241142D01*
X212431452Y-88241142D02*
X212383833Y-88288761D01*
X212240976Y-88336380D01*
X212145738Y-88336380D01*
X212002880Y-88288761D01*
X211907642Y-88193523D01*
X211860023Y-88098285D01*
X211812404Y-87907809D01*
X211812404Y-87764952D01*
X211860023Y-87574476D01*
X211907642Y-87479238D01*
X212002880Y-87384000D01*
X212145738Y-87336380D01*
X212240976Y-87336380D01*
X212383833Y-87384000D01*
X212431452Y-87431619D01*
X213383833Y-88336380D02*
X212812404Y-88336380D01*
X213098119Y-88336380D02*
X213098119Y-87336380D01*
X213002880Y-87479238D01*
X212907642Y-87574476D01*
X212812404Y-87622095D01*
X214336214Y-88336380D02*
X213764785Y-88336380D01*
X214050500Y-88336380D02*
X214050500Y-87336380D01*
X213955261Y-87479238D01*
X213860023Y-87574476D01*
X213764785Y-87622095D01*
X215193357Y-87336380D02*
X215002880Y-87336380D01*
X214907642Y-87384000D01*
X214860023Y-87431619D01*
X214764785Y-87574476D01*
X214717166Y-87764952D01*
X214717166Y-88145904D01*
X214764785Y-88241142D01*
X214812404Y-88288761D01*
X214907642Y-88336380D01*
X215098119Y-88336380D01*
X215193357Y-88288761D01*
X215240976Y-88241142D01*
X215288595Y-88145904D01*
X215288595Y-87907809D01*
X215240976Y-87812571D01*
X215193357Y-87764952D01*
X215098119Y-87717333D01*
X214907642Y-87717333D01*
X214812404Y-87764952D01*
X214764785Y-87812571D01*
X214717166Y-87907809D01*
X205245032Y-80326085D02*
X205185028Y-80295512D01*
X205095595Y-80174362D01*
X205066164Y-80083785D01*
X205067307Y-79933205D01*
X205128454Y-79813198D01*
X205204316Y-79738479D01*
X205370754Y-79634330D01*
X205506620Y-79590185D01*
X205702488Y-79576613D01*
X205807780Y-79592471D01*
X205927787Y-79653618D01*
X206017221Y-79774768D01*
X206046651Y-79865345D01*
X206045508Y-80015925D01*
X206014935Y-80075929D01*
X205448757Y-81261283D02*
X205272176Y-80717823D01*
X205360466Y-80989553D02*
X206311523Y-80680536D01*
X206146227Y-80634105D01*
X206026220Y-80572958D01*
X205951502Y-80497096D01*
X205743059Y-82167052D02*
X205566478Y-81623591D01*
X205654768Y-81895321D02*
X206605825Y-81586304D01*
X206440529Y-81539873D01*
X206320522Y-81478726D01*
X206245804Y-81402864D01*
X206797121Y-82175053D02*
X207003132Y-82809091D01*
X205919640Y-82710512D01*
X202451032Y-69467585D02*
X202391028Y-69437012D01*
X202301595Y-69315862D01*
X202272164Y-69225285D01*
X202273307Y-69074705D01*
X202334454Y-68954698D01*
X202410316Y-68879979D01*
X202576754Y-68775830D01*
X202712620Y-68731685D01*
X202908488Y-68718113D01*
X203013780Y-68733971D01*
X203133787Y-68795118D01*
X203223221Y-68916268D01*
X203252651Y-69006845D01*
X203251508Y-69157425D01*
X203220935Y-69217429D01*
X202654757Y-70402783D02*
X202478176Y-69859323D01*
X202566466Y-70131053D02*
X203517523Y-69822036D01*
X203352227Y-69775605D01*
X203232220Y-69714458D01*
X203157502Y-69638596D01*
X202949059Y-71308552D02*
X202772478Y-70765091D01*
X202860768Y-71036821D02*
X203811825Y-70727804D01*
X203646529Y-70681373D01*
X203526522Y-70620226D01*
X203451804Y-70544364D01*
X203669101Y-71675431D02*
X203684959Y-71570139D01*
X203715532Y-71510136D01*
X203791394Y-71435417D01*
X203836682Y-71420702D01*
X203941974Y-71436560D01*
X204001978Y-71467134D01*
X204076696Y-71542995D01*
X204135557Y-71724149D01*
X204119699Y-71829441D01*
X204089125Y-71889444D01*
X204013264Y-71964163D01*
X203967975Y-71978878D01*
X203862683Y-71963020D01*
X203802680Y-71932447D01*
X203727961Y-71856585D01*
X203669101Y-71675431D01*
X203594382Y-71599570D01*
X203534379Y-71568996D01*
X203429087Y-71553138D01*
X203247933Y-71611998D01*
X203172071Y-71686717D01*
X203141498Y-71746721D01*
X203125640Y-71852012D01*
X203184500Y-72033166D01*
X203259219Y-72109028D01*
X203319222Y-72139601D01*
X203424514Y-72155459D01*
X203605668Y-72096599D01*
X203681530Y-72021880D01*
X203712103Y-71961877D01*
X203727961Y-71856585D01*
X199276032Y-59815585D02*
X199216028Y-59785012D01*
X199126595Y-59663862D01*
X199097164Y-59573285D01*
X199098307Y-59422705D01*
X199159454Y-59302698D01*
X199235316Y-59227979D01*
X199401754Y-59123830D01*
X199537620Y-59079685D01*
X199733488Y-59066113D01*
X199838780Y-59081971D01*
X199958787Y-59143118D01*
X200048221Y-59264268D01*
X200077651Y-59354845D01*
X200076508Y-59505425D01*
X200045935Y-59565429D01*
X199479757Y-60750783D02*
X199303176Y-60207323D01*
X199391466Y-60479053D02*
X200342523Y-60170036D01*
X200177227Y-60123605D01*
X200057220Y-60062458D01*
X199982502Y-59986596D01*
X199774059Y-61656552D02*
X199597478Y-61113091D01*
X199685768Y-61384821D02*
X200636825Y-61075804D01*
X200471529Y-61029373D01*
X200351522Y-60968226D01*
X200276804Y-60892364D01*
X199921210Y-62109436D02*
X199980070Y-62290589D01*
X200054789Y-62366451D01*
X200114792Y-62397024D01*
X200280088Y-62443456D01*
X200475956Y-62429884D01*
X200838264Y-62312163D01*
X200914125Y-62237444D01*
X200944699Y-62177441D01*
X200960557Y-62072149D01*
X200901696Y-61890995D01*
X200826978Y-61815134D01*
X200766974Y-61784560D01*
X200661682Y-61768702D01*
X200435240Y-61842278D01*
X200359379Y-61916996D01*
X200328805Y-61977000D01*
X200312947Y-62082292D01*
X200371807Y-62263445D01*
X200446526Y-62339307D01*
X200506530Y-62369880D01*
X200611821Y-62385739D01*
X198711869Y-65116534D02*
X198742442Y-65176538D01*
X198743585Y-65327118D01*
X198714155Y-65417695D01*
X198624721Y-65538845D01*
X198504714Y-65599992D01*
X198399422Y-65615850D01*
X198203554Y-65602278D01*
X198067689Y-65558133D01*
X197901250Y-65453984D01*
X197825388Y-65379265D01*
X197764242Y-65259258D01*
X197763099Y-65108678D01*
X197792529Y-65018101D01*
X197881962Y-64896951D01*
X197941966Y-64866378D01*
X199096748Y-64240196D02*
X198920166Y-64783657D01*
X199008457Y-64511927D02*
X198057400Y-64202910D01*
X198163835Y-64337632D01*
X198224982Y-64457639D01*
X198240840Y-64562931D01*
X198353989Y-63598302D02*
X198323415Y-63538299D01*
X198307557Y-63433007D01*
X198381133Y-63206565D01*
X198455851Y-63130703D01*
X198515855Y-63100130D01*
X198621147Y-63084272D01*
X198711723Y-63113702D01*
X198832873Y-63203135D01*
X199199753Y-63923177D01*
X199391049Y-63334428D01*
X198631289Y-62436662D02*
X198660719Y-62346085D01*
X198735438Y-62270223D01*
X198795441Y-62239650D01*
X198900733Y-62223792D01*
X199096602Y-62237364D01*
X199323044Y-62310939D01*
X199489483Y-62415088D01*
X199565344Y-62489807D01*
X199595918Y-62549810D01*
X199611776Y-62655102D01*
X199582346Y-62745679D01*
X199507627Y-62821541D01*
X199447624Y-62852114D01*
X199342332Y-62867972D01*
X199146463Y-62854400D01*
X198920021Y-62780825D01*
X198753582Y-62676676D01*
X198677721Y-62601957D01*
X198647147Y-62541954D01*
X198631289Y-62436662D01*
X195764358Y-75215639D02*
X195794931Y-75275643D01*
X195796074Y-75426223D01*
X195766644Y-75516800D01*
X195677210Y-75637950D01*
X195557203Y-75699097D01*
X195451911Y-75714955D01*
X195256043Y-75701383D01*
X195120178Y-75657238D01*
X194953739Y-75553089D01*
X194877877Y-75478370D01*
X194816731Y-75358363D01*
X194815588Y-75207783D01*
X194845018Y-75117206D01*
X194934451Y-74996056D01*
X194994455Y-74965483D01*
X196149237Y-74339301D02*
X195972655Y-74882762D01*
X196060946Y-74611032D02*
X195109889Y-74302015D01*
X195216324Y-74436737D01*
X195277471Y-74556744D01*
X195293329Y-74662036D01*
X195406478Y-73697407D02*
X195375904Y-73637404D01*
X195360046Y-73532112D01*
X195433622Y-73305670D01*
X195508340Y-73229808D01*
X195568344Y-73199235D01*
X195673636Y-73183377D01*
X195764212Y-73212807D01*
X195885362Y-73302240D01*
X196252242Y-74022282D01*
X196443538Y-73433533D01*
X196737840Y-72527765D02*
X196561259Y-73071226D01*
X196649550Y-72799496D02*
X195698493Y-72490479D01*
X195804928Y-72625201D01*
X195866075Y-72745208D01*
X195881933Y-72850500D01*
X193224358Y-84613640D02*
X193254931Y-84673644D01*
X193256074Y-84824224D01*
X193226644Y-84914801D01*
X193137210Y-85035951D01*
X193017203Y-85097098D01*
X192911911Y-85112956D01*
X192716043Y-85099384D01*
X192580178Y-85055239D01*
X192413739Y-84951090D01*
X192337877Y-84876371D01*
X192276731Y-84756364D01*
X192275588Y-84605784D01*
X192305018Y-84515207D01*
X192394451Y-84394057D01*
X192454455Y-84363484D01*
X193609237Y-83737302D02*
X193432655Y-84280763D01*
X193520946Y-84009033D02*
X192569889Y-83700016D01*
X192676324Y-83834738D01*
X192737471Y-83954745D01*
X192753329Y-84060037D01*
X192866478Y-83095408D02*
X192835904Y-83035405D01*
X192820046Y-82930113D01*
X192893622Y-82703671D01*
X192968340Y-82627809D01*
X193028344Y-82597236D01*
X193133636Y-82581378D01*
X193224212Y-82610808D01*
X193345362Y-82700241D01*
X193712242Y-83420283D01*
X193903538Y-82831534D01*
X193160779Y-82189640D02*
X193130206Y-82129637D01*
X193114348Y-82024345D01*
X193187923Y-81797903D01*
X193262642Y-81722041D01*
X193322646Y-81691468D01*
X193427937Y-81675609D01*
X193518514Y-81705040D01*
X193639664Y-81794473D01*
X194006544Y-82514515D01*
X194197840Y-81925766D01*
X184046952Y-88114142D02*
X183999333Y-88161761D01*
X183856476Y-88209380D01*
X183761238Y-88209380D01*
X183618380Y-88161761D01*
X183523142Y-88066523D01*
X183475523Y-87971285D01*
X183427904Y-87780809D01*
X183427904Y-87637952D01*
X183475523Y-87447476D01*
X183523142Y-87352238D01*
X183618380Y-87257000D01*
X183761238Y-87209380D01*
X183856476Y-87209380D01*
X183999333Y-87257000D01*
X184046952Y-87304619D01*
X184999333Y-88209380D02*
X184427904Y-88209380D01*
X184713619Y-88209380D02*
X184713619Y-87209380D01*
X184618380Y-87352238D01*
X184523142Y-87447476D01*
X184427904Y-87495095D01*
X185380285Y-87304619D02*
X185427904Y-87257000D01*
X185523142Y-87209380D01*
X185761238Y-87209380D01*
X185856476Y-87257000D01*
X185904095Y-87304619D01*
X185951714Y-87399857D01*
X185951714Y-87495095D01*
X185904095Y-87637952D01*
X185332666Y-88209380D01*
X185951714Y-88209380D01*
X186285047Y-87209380D02*
X186904095Y-87209380D01*
X186570761Y-87590333D01*
X186713619Y-87590333D01*
X186808857Y-87637952D01*
X186856476Y-87685571D01*
X186904095Y-87780809D01*
X186904095Y-88018904D01*
X186856476Y-88114142D01*
X186808857Y-88161761D01*
X186713619Y-88209380D01*
X186427904Y-88209380D01*
X186332666Y-88161761D01*
X186285047Y-88114142D01*
X172235952Y-88368142D02*
X172188333Y-88415761D01*
X172045476Y-88463380D01*
X171950238Y-88463380D01*
X171807380Y-88415761D01*
X171712142Y-88320523D01*
X171664523Y-88225285D01*
X171616904Y-88034809D01*
X171616904Y-87891952D01*
X171664523Y-87701476D01*
X171712142Y-87606238D01*
X171807380Y-87511000D01*
X171950238Y-87463380D01*
X172045476Y-87463380D01*
X172188333Y-87511000D01*
X172235952Y-87558619D01*
X173188333Y-88463380D02*
X172616904Y-88463380D01*
X172902619Y-88463380D02*
X172902619Y-87463380D01*
X172807380Y-87606238D01*
X172712142Y-87701476D01*
X172616904Y-87749095D01*
X173569285Y-87558619D02*
X173616904Y-87511000D01*
X173712142Y-87463380D01*
X173950238Y-87463380D01*
X174045476Y-87511000D01*
X174093095Y-87558619D01*
X174140714Y-87653857D01*
X174140714Y-87749095D01*
X174093095Y-87891952D01*
X173521666Y-88463380D01*
X174140714Y-88463380D01*
X174474047Y-87463380D02*
X175140714Y-87463380D01*
X174712142Y-88463380D01*
X161694952Y-87987142D02*
X161647333Y-88034761D01*
X161504476Y-88082380D01*
X161409238Y-88082380D01*
X161266380Y-88034761D01*
X161171142Y-87939523D01*
X161123523Y-87844285D01*
X161075904Y-87653809D01*
X161075904Y-87510952D01*
X161123523Y-87320476D01*
X161171142Y-87225238D01*
X161266380Y-87130000D01*
X161409238Y-87082380D01*
X161504476Y-87082380D01*
X161647333Y-87130000D01*
X161694952Y-87177619D01*
X162647333Y-88082380D02*
X162075904Y-88082380D01*
X162361619Y-88082380D02*
X162361619Y-87082380D01*
X162266380Y-87225238D01*
X162171142Y-87320476D01*
X162075904Y-87368095D01*
X163028285Y-87177619D02*
X163075904Y-87130000D01*
X163171142Y-87082380D01*
X163409238Y-87082380D01*
X163504476Y-87130000D01*
X163552095Y-87177619D01*
X163599714Y-87272857D01*
X163599714Y-87368095D01*
X163552095Y-87510952D01*
X162980666Y-88082380D01*
X163599714Y-88082380D01*
X164171142Y-87510952D02*
X164075904Y-87463333D01*
X164028285Y-87415714D01*
X163980666Y-87320476D01*
X163980666Y-87272857D01*
X164028285Y-87177619D01*
X164075904Y-87130000D01*
X164171142Y-87082380D01*
X164361619Y-87082380D01*
X164456857Y-87130000D01*
X164504476Y-87177619D01*
X164552095Y-87272857D01*
X164552095Y-87320476D01*
X164504476Y-87415714D01*
X164456857Y-87463333D01*
X164361619Y-87510952D01*
X164171142Y-87510952D01*
X164075904Y-87558571D01*
X164028285Y-87606190D01*
X163980666Y-87701428D01*
X163980666Y-87891904D01*
X164028285Y-87987142D01*
X164075904Y-88034761D01*
X164171142Y-88082380D01*
X164361619Y-88082380D01*
X164456857Y-88034761D01*
X164504476Y-87987142D01*
X164552095Y-87891904D01*
X164552095Y-87701428D01*
X164504476Y-87606190D01*
X164456857Y-87558571D01*
X164361619Y-87510952D01*
X164319382Y-89742161D02*
X164252867Y-89752696D01*
X164109304Y-89707252D01*
X164032254Y-89651272D01*
X163944670Y-89528778D01*
X163923601Y-89395749D01*
X163941056Y-89290710D01*
X164014490Y-89108622D01*
X164098459Y-88993048D01*
X164248943Y-88866940D01*
X164343447Y-88817880D01*
X164476476Y-88796810D01*
X164620040Y-88842255D01*
X164697089Y-88898235D01*
X164784673Y-89020729D01*
X164795208Y-89087243D01*
X165033894Y-90379006D02*
X164571599Y-90043129D01*
X164802747Y-90211068D02*
X165390532Y-89402051D01*
X165229513Y-89461645D01*
X165096485Y-89482715D01*
X164991446Y-89465260D01*
X165873897Y-89870957D02*
X165940412Y-89860422D01*
X166045451Y-89877877D01*
X166238074Y-90017826D01*
X166287133Y-90112330D01*
X166297668Y-90178844D01*
X166280213Y-90283883D01*
X166224233Y-90360932D01*
X166101740Y-90448516D01*
X165303567Y-90574935D01*
X165804387Y-90938802D01*
X166189633Y-91218699D02*
X166343732Y-91330658D01*
X166448771Y-91348113D01*
X166515285Y-91337579D01*
X166676303Y-91277984D01*
X166826787Y-91151876D01*
X167050705Y-90843679D01*
X167068160Y-90738640D01*
X167057625Y-90672125D01*
X167008566Y-90577621D01*
X166854468Y-90465662D01*
X166749429Y-90448207D01*
X166682914Y-90458742D01*
X166588410Y-90507801D01*
X166448461Y-90700424D01*
X166431006Y-90805463D01*
X166441541Y-90871978D01*
X166490600Y-90966482D01*
X166644699Y-91078441D01*
X166749738Y-91095896D01*
X166816252Y-91085361D01*
X166910757Y-91036302D01*
X172699281Y-95883280D02*
X172632766Y-95893815D01*
X172489203Y-95848371D01*
X172412153Y-95792391D01*
X172324569Y-95669897D01*
X172303500Y-95536868D01*
X172320955Y-95431829D01*
X172394389Y-95249741D01*
X172478358Y-95134167D01*
X172628842Y-95008059D01*
X172723346Y-94958999D01*
X172856375Y-94937929D01*
X172999939Y-94983374D01*
X173076988Y-95039354D01*
X173164572Y-95161848D01*
X173175107Y-95228362D01*
X173413793Y-96520125D02*
X172951498Y-96184248D01*
X173182646Y-96352187D02*
X173770431Y-95543170D01*
X173609412Y-95602764D01*
X173476384Y-95623834D01*
X173371345Y-95606379D01*
X174271251Y-95907037D02*
X174772071Y-96270904D01*
X174278481Y-96383172D01*
X174394054Y-96467142D01*
X174443114Y-96561646D01*
X174453649Y-96628160D01*
X174436194Y-96733199D01*
X174296245Y-96925822D01*
X174201741Y-96974882D01*
X174135226Y-96985416D01*
X174030187Y-96967962D01*
X173799040Y-96800023D01*
X173749980Y-96705519D01*
X173739445Y-96639004D01*
X175272891Y-96634771D02*
X175349940Y-96690750D01*
X175399000Y-96785254D01*
X175409535Y-96851769D01*
X175392080Y-96956808D01*
X175318645Y-97138896D01*
X175178696Y-97331519D01*
X175028213Y-97457628D01*
X174933709Y-97506687D01*
X174867194Y-97517222D01*
X174762155Y-97499767D01*
X174685106Y-97443788D01*
X174636046Y-97349284D01*
X174625512Y-97282769D01*
X174642967Y-97177730D01*
X174716401Y-96995642D01*
X174856350Y-96803019D01*
X175006834Y-96676910D01*
X175101338Y-96627851D01*
X175167852Y-96617316D01*
X175272891Y-96634771D01*
X181701248Y-101231174D02*
X181634733Y-101241709D01*
X181491170Y-101196265D01*
X181414120Y-101140285D01*
X181326536Y-101017791D01*
X181305467Y-100884762D01*
X181322922Y-100779723D01*
X181396356Y-100597635D01*
X181480325Y-100482061D01*
X181630809Y-100355953D01*
X181725313Y-100306893D01*
X181858342Y-100285823D01*
X182001906Y-100331268D01*
X182078955Y-100387248D01*
X182166539Y-100509742D01*
X182177074Y-100576256D01*
X182415760Y-101868019D02*
X181953465Y-101532142D01*
X182184613Y-101700081D02*
X182772398Y-100891064D01*
X182611379Y-100950658D01*
X182478351Y-100971728D01*
X182373312Y-100954273D01*
X183273218Y-101254931D02*
X183774038Y-101618798D01*
X183280448Y-101731066D01*
X183396021Y-101815036D01*
X183445081Y-101909540D01*
X183455616Y-101976054D01*
X183438161Y-102081093D01*
X183298212Y-102273716D01*
X183203708Y-102322776D01*
X183137193Y-102333310D01*
X183032154Y-102315856D01*
X182801007Y-102147917D01*
X182751947Y-102053413D01*
X182741412Y-101986898D01*
X183956745Y-102987610D02*
X183494450Y-102651733D01*
X183725598Y-102819671D02*
X184313383Y-102010654D01*
X184152364Y-102070249D01*
X184019335Y-102091318D01*
X183914296Y-102073864D01*
X183762858Y-112426640D02*
X183793431Y-112486644D01*
X183794574Y-112637224D01*
X183765144Y-112727801D01*
X183675710Y-112848951D01*
X183555703Y-112910098D01*
X183450411Y-112925956D01*
X183254543Y-112912384D01*
X183118678Y-112868239D01*
X182952239Y-112764090D01*
X182876377Y-112689371D01*
X182815231Y-112569364D01*
X182814088Y-112418784D01*
X182843518Y-112328207D01*
X182932951Y-112207057D01*
X182992955Y-112176484D01*
X184147737Y-111550302D02*
X183971155Y-112093763D01*
X184059446Y-111822033D02*
X183108389Y-111513016D01*
X183214824Y-111647738D01*
X183275971Y-111767745D01*
X183291829Y-111873037D01*
X183299686Y-110924266D02*
X183490982Y-110335517D01*
X183750283Y-110770257D01*
X183794429Y-110634392D01*
X183869147Y-110558530D01*
X183929151Y-110527957D01*
X184034443Y-110512098D01*
X184260885Y-110585674D01*
X184336747Y-110660392D01*
X184367320Y-110720396D01*
X184383178Y-110825688D01*
X184294887Y-111097418D01*
X184220169Y-111173280D01*
X184160165Y-111203853D01*
X183699279Y-110002640D02*
X183668706Y-109942637D01*
X183652848Y-109837345D01*
X183726423Y-109610903D01*
X183801142Y-109535041D01*
X183861146Y-109504468D01*
X183966437Y-109488609D01*
X184057014Y-109518040D01*
X184178164Y-109607473D01*
X184545044Y-110327515D01*
X184736340Y-109738766D01*
X181222858Y-120554640D02*
X181253431Y-120614644D01*
X181254574Y-120765224D01*
X181225144Y-120855801D01*
X181135710Y-120976951D01*
X181015703Y-121038098D01*
X180910411Y-121053956D01*
X180714543Y-121040384D01*
X180578678Y-120996239D01*
X180412239Y-120892090D01*
X180336377Y-120817371D01*
X180275231Y-120697364D01*
X180274088Y-120546784D01*
X180303518Y-120456207D01*
X180392951Y-120335057D01*
X180452955Y-120304484D01*
X181607737Y-119678302D02*
X181431155Y-120221763D01*
X181519446Y-119950033D02*
X180568389Y-119641016D01*
X180674824Y-119775738D01*
X180735971Y-119895745D01*
X180751829Y-120001037D01*
X180759686Y-119052266D02*
X180950982Y-118463517D01*
X181210283Y-118898257D01*
X181254429Y-118762392D01*
X181329147Y-118686530D01*
X181389151Y-118655957D01*
X181494443Y-118640098D01*
X181720885Y-118713674D01*
X181796747Y-118788392D01*
X181827320Y-118848396D01*
X181843178Y-118953688D01*
X181754887Y-119225418D01*
X181680169Y-119301280D01*
X181620165Y-119331853D01*
X181053988Y-118146498D02*
X181245284Y-117557749D01*
X181504585Y-117992489D01*
X181548731Y-117856623D01*
X181623449Y-117780762D01*
X181683453Y-117750188D01*
X181788745Y-117734330D01*
X182015187Y-117807906D01*
X182091048Y-117882624D01*
X182121622Y-117942628D01*
X182137480Y-118047920D01*
X182049189Y-118319650D01*
X181974471Y-118395512D01*
X181914467Y-118426085D01*
X178047858Y-130079640D02*
X178078431Y-130139644D01*
X178079574Y-130290224D01*
X178050144Y-130380801D01*
X177960710Y-130501951D01*
X177840703Y-130563098D01*
X177735411Y-130578956D01*
X177539543Y-130565384D01*
X177403678Y-130521239D01*
X177237239Y-130417090D01*
X177161377Y-130342371D01*
X177100231Y-130222364D01*
X177099088Y-130071784D01*
X177128518Y-129981207D01*
X177217951Y-129860057D01*
X177277955Y-129829484D01*
X178432737Y-129203302D02*
X178256155Y-129746763D01*
X178344446Y-129475033D02*
X177393389Y-129166016D01*
X177499824Y-129300738D01*
X177560971Y-129420745D01*
X177576829Y-129526037D01*
X177584686Y-128577266D02*
X177775982Y-127988517D01*
X178035283Y-128423257D01*
X178079429Y-128287392D01*
X178154147Y-128211530D01*
X178214151Y-128180957D01*
X178319443Y-128165098D01*
X178545885Y-128238674D01*
X178621747Y-128313392D01*
X178652320Y-128373396D01*
X178668178Y-128478688D01*
X178579887Y-128750418D01*
X178505169Y-128826280D01*
X178445165Y-128856853D01*
X178357872Y-127276332D02*
X178991910Y-127482343D01*
X177921990Y-127385053D02*
X178527740Y-127832221D01*
X178719037Y-127243472D01*
X179136595Y-130677194D02*
X179126060Y-130743708D01*
X179038476Y-130866202D01*
X178961427Y-130922182D01*
X178817863Y-130967626D01*
X178684835Y-130946557D01*
X178590331Y-130897497D01*
X178439847Y-130771389D01*
X178355877Y-130655815D01*
X178282443Y-130473726D01*
X178264988Y-130368687D01*
X178286058Y-130235659D01*
X178373642Y-130113165D01*
X178450691Y-130057185D01*
X178594255Y-130011740D01*
X178660769Y-130022275D01*
X179963067Y-130194448D02*
X179500772Y-130530325D01*
X179731919Y-130362386D02*
X179144134Y-129553369D01*
X179151054Y-129724923D01*
X179129985Y-129857951D01*
X179080925Y-129952456D01*
X179644954Y-129189502D02*
X180145774Y-128825635D01*
X180100020Y-129329760D01*
X180215594Y-129245791D01*
X180320633Y-129228336D01*
X180387147Y-129238871D01*
X180481652Y-129287931D01*
X180621600Y-129480554D01*
X180639055Y-129585593D01*
X180628521Y-129652107D01*
X180579461Y-129746611D01*
X180348313Y-129914550D01*
X180243274Y-129932005D01*
X180176760Y-129921470D01*
X180877742Y-128293829D02*
X180492496Y-128573727D01*
X180733869Y-128986963D01*
X180744404Y-128920449D01*
X180793463Y-128825945D01*
X180986086Y-128685996D01*
X181091125Y-128668541D01*
X181157640Y-128679076D01*
X181252144Y-128728135D01*
X181392093Y-128920758D01*
X181409548Y-129025797D01*
X181399013Y-129092312D01*
X181349953Y-129186816D01*
X181157330Y-129326765D01*
X181052291Y-129344220D01*
X180985777Y-129333685D01*
X184978594Y-126295694D02*
X184968059Y-126362208D01*
X184880475Y-126484702D01*
X184803426Y-126540682D01*
X184659862Y-126586126D01*
X184526834Y-126565057D01*
X184432330Y-126515997D01*
X184281846Y-126389889D01*
X184197876Y-126274315D01*
X184124442Y-126092226D01*
X184106987Y-125987187D01*
X184128057Y-125854159D01*
X184215641Y-125731665D01*
X184292690Y-125675685D01*
X184436254Y-125630240D01*
X184502768Y-125640775D01*
X185805066Y-125812948D02*
X185342771Y-126148825D01*
X185573918Y-125980886D02*
X184986133Y-125171869D01*
X184993053Y-125343423D01*
X184971984Y-125476451D01*
X184922924Y-125570956D01*
X185486953Y-124808002D02*
X185987773Y-124444135D01*
X185942019Y-124948260D01*
X186057593Y-124864291D01*
X186162632Y-124846836D01*
X186229146Y-124857371D01*
X186323651Y-124906431D01*
X186463599Y-125099054D01*
X186481054Y-125204093D01*
X186470520Y-125270607D01*
X186421460Y-125365111D01*
X186190312Y-125533050D01*
X186085273Y-125550505D01*
X186018759Y-125539970D01*
X186681216Y-123940319D02*
X186527118Y-124052278D01*
X186478059Y-124146782D01*
X186467524Y-124213297D01*
X186474444Y-124384850D01*
X186547878Y-124566938D01*
X186771796Y-124875135D01*
X186866301Y-124924195D01*
X186932815Y-124934730D01*
X187037854Y-124917275D01*
X187191952Y-124805316D01*
X187241012Y-124710812D01*
X187251547Y-124644297D01*
X187234092Y-124539258D01*
X187094143Y-124346635D01*
X186999639Y-124297576D01*
X186933124Y-124287041D01*
X186828085Y-124304496D01*
X186673987Y-124416455D01*
X186624927Y-124510959D01*
X186614393Y-124577473D01*
X186631848Y-124682512D01*
X198334523Y-118892580D02*
X198334523Y-117892580D01*
X198572619Y-117892580D01*
X198715476Y-117940200D01*
X198810714Y-118035438D01*
X198858333Y-118130676D01*
X198905952Y-118321152D01*
X198905952Y-118464009D01*
X198858333Y-118654485D01*
X198810714Y-118749723D01*
X198715476Y-118844961D01*
X198572619Y-118892580D01*
X198334523Y-118892580D01*
X199858333Y-118892580D02*
X199286904Y-118892580D01*
X199572619Y-118892580D02*
X199572619Y-117892580D01*
X199477380Y-118035438D01*
X199382142Y-118130676D01*
X199286904Y-118178295D01*
X200477380Y-117892580D02*
X200572619Y-117892580D01*
X200667857Y-117940200D01*
X200715476Y-117987819D01*
X200763095Y-118083057D01*
X200810714Y-118273533D01*
X200810714Y-118511628D01*
X200763095Y-118702104D01*
X200715476Y-118797342D01*
X200667857Y-118844961D01*
X200572619Y-118892580D01*
X200477380Y-118892580D01*
X200382142Y-118844961D01*
X200334523Y-118797342D01*
X200286904Y-118702104D01*
X200239285Y-118511628D01*
X200239285Y-118273533D01*
X200286904Y-118083057D01*
X200334523Y-117987819D01*
X200382142Y-117940200D01*
X200477380Y-117892580D01*
X201763095Y-118892580D02*
X201191666Y-118892580D01*
X201477380Y-118892580D02*
X201477380Y-117892580D01*
X201382142Y-118035438D01*
X201286904Y-118130676D01*
X201191666Y-118178295D01*
X217187473Y-131071346D02*
X217775258Y-130262329D01*
X217967881Y-130402278D01*
X218055465Y-130524772D01*
X218076535Y-130657801D01*
X218059080Y-130762840D01*
X217985645Y-130944928D01*
X217901676Y-131060502D01*
X217751192Y-131186611D01*
X217656688Y-131235670D01*
X217523659Y-131256740D01*
X217380096Y-131211295D01*
X217187473Y-131071346D01*
X218420260Y-131967019D02*
X217957965Y-131631142D01*
X218189113Y-131799081D02*
X218776898Y-130990064D01*
X218615879Y-131049658D01*
X218482851Y-131070728D01*
X218377812Y-131053273D01*
X219508866Y-131521869D02*
X219585915Y-131577849D01*
X219634974Y-131672353D01*
X219645509Y-131738867D01*
X219628054Y-131843906D01*
X219554620Y-132025995D01*
X219414671Y-132218618D01*
X219264187Y-132344726D01*
X219169683Y-132393786D01*
X219103169Y-132404321D01*
X218998130Y-132386866D01*
X218921081Y-132330886D01*
X218872021Y-132236382D01*
X218861486Y-132169868D01*
X218878941Y-132064829D01*
X218952376Y-131882740D01*
X219092324Y-131690117D01*
X219242808Y-131564009D01*
X219337312Y-131514949D01*
X219403827Y-131504414D01*
X219508866Y-131521869D01*
X220048210Y-131913726D02*
X220549030Y-132277593D01*
X220055440Y-132389862D01*
X220171014Y-132473831D01*
X220220073Y-132568335D01*
X220230608Y-132634850D01*
X220213153Y-132739889D01*
X220073204Y-132932512D01*
X219978700Y-132981571D01*
X219912186Y-132992106D01*
X219807147Y-132974651D01*
X219575999Y-132806712D01*
X219526940Y-132712208D01*
X219516405Y-132645694D01*
X223811379Y-130089278D02*
X224620396Y-129501493D01*
X224760345Y-129694116D01*
X224805789Y-129837680D01*
X224784720Y-129970709D01*
X224735660Y-130065213D01*
X224609551Y-130215697D01*
X224493978Y-130299666D01*
X224311889Y-130373100D01*
X224206850Y-130390555D01*
X224073821Y-130369486D01*
X223951328Y-130281901D01*
X223811379Y-130089278D01*
X224707051Y-131322066D02*
X224371174Y-130859771D01*
X224539113Y-131090918D02*
X225348130Y-130503133D01*
X225176576Y-130510053D01*
X225043548Y-130488984D01*
X224949043Y-130439924D01*
X225879935Y-131235101D02*
X225935915Y-131312150D01*
X225953370Y-131417189D01*
X225942835Y-131483704D01*
X225893776Y-131578208D01*
X225767667Y-131728692D01*
X225575044Y-131868640D01*
X225392956Y-131942075D01*
X225287917Y-131959530D01*
X225221402Y-131948995D01*
X225126898Y-131899935D01*
X225070918Y-131822886D01*
X225053464Y-131717847D01*
X225063998Y-131651333D01*
X225113058Y-131556829D01*
X225239167Y-131406345D01*
X225431790Y-131266396D01*
X225613878Y-131192962D01*
X225718917Y-131175507D01*
X225785431Y-131186042D01*
X225879935Y-131235101D01*
X226310007Y-132394145D02*
X225770663Y-132786002D01*
X226478256Y-131977604D02*
X225760437Y-132204827D01*
X226124304Y-132705647D01*
X219512055Y-122745625D02*
X219203038Y-121794569D01*
X219429480Y-121720993D01*
X219580060Y-121722136D01*
X219700067Y-121783283D01*
X219774785Y-121859145D01*
X219878934Y-122025583D01*
X219923080Y-122161448D01*
X219936651Y-122357317D01*
X219920793Y-122462609D01*
X219859647Y-122582616D01*
X219738497Y-122672050D01*
X219512055Y-122745625D01*
X220961283Y-122274742D02*
X220417823Y-122451323D01*
X220689553Y-122363033D02*
X220380536Y-121411976D01*
X220334105Y-121577272D01*
X220272958Y-121697279D01*
X220197096Y-121771997D01*
X221241016Y-121132389D02*
X221331593Y-121102959D01*
X221436884Y-121118817D01*
X221496888Y-121149391D01*
X221571607Y-121225252D01*
X221675755Y-121391691D01*
X221749331Y-121618133D01*
X221762903Y-121814002D01*
X221747045Y-121919294D01*
X221716471Y-121979297D01*
X221640610Y-122054016D01*
X221550033Y-122083446D01*
X221444741Y-122067588D01*
X221384737Y-122037014D01*
X221310019Y-121961153D01*
X221205870Y-121794714D01*
X221132294Y-121568272D01*
X221118723Y-121372403D01*
X221134581Y-121267112D01*
X221165154Y-121207108D01*
X221241016Y-121132389D01*
X222418514Y-120749797D02*
X221965630Y-120896948D01*
X222067493Y-121364547D01*
X222098066Y-121304544D01*
X222173928Y-121229825D01*
X222400370Y-121156249D01*
X222505662Y-121172108D01*
X222565665Y-121202681D01*
X222640384Y-121278543D01*
X222713959Y-121504985D01*
X222698101Y-121610277D01*
X222667528Y-121670280D01*
X222591666Y-121744999D01*
X222365224Y-121818574D01*
X222259932Y-121802716D01*
X222199929Y-121772143D01*
X216464055Y-112839625D02*
X216155038Y-111888569D01*
X216381480Y-111814993D01*
X216532060Y-111816136D01*
X216652067Y-111877283D01*
X216726785Y-111953145D01*
X216830934Y-112119583D01*
X216875080Y-112255448D01*
X216888651Y-112451317D01*
X216872793Y-112556609D01*
X216811647Y-112676616D01*
X216690497Y-112766050D01*
X216464055Y-112839625D01*
X217913283Y-112368742D02*
X217369823Y-112545323D01*
X217641553Y-112457033D02*
X217332536Y-111505976D01*
X217286105Y-111671272D01*
X217224958Y-111791279D01*
X217149096Y-111865997D01*
X218193016Y-111226389D02*
X218283593Y-111196959D01*
X218388884Y-111212817D01*
X218448888Y-111243391D01*
X218523607Y-111319252D01*
X218627755Y-111485691D01*
X218701331Y-111712133D01*
X218714903Y-111908002D01*
X218699045Y-112013294D01*
X218668471Y-112073297D01*
X218592610Y-112148016D01*
X218502033Y-112177446D01*
X218396741Y-112161588D01*
X218336737Y-112131014D01*
X218262019Y-112055153D01*
X218157870Y-111888714D01*
X218084294Y-111662272D01*
X218070723Y-111466403D01*
X218086581Y-111361112D01*
X218117154Y-111301108D01*
X218193016Y-111226389D01*
X219325226Y-110858512D02*
X219144072Y-110917372D01*
X219068211Y-110992091D01*
X219037637Y-111052095D01*
X218991206Y-111217390D01*
X219004778Y-111413259D01*
X219122498Y-111775566D01*
X219197217Y-111851428D01*
X219257221Y-111882001D01*
X219362512Y-111897859D01*
X219543666Y-111838999D01*
X219619528Y-111764280D01*
X219650101Y-111704277D01*
X219665959Y-111598985D01*
X219592384Y-111372543D01*
X219517665Y-111296681D01*
X219457662Y-111266108D01*
X219352370Y-111250249D01*
X219171216Y-111309110D01*
X219095355Y-111383828D01*
X219064781Y-111443832D01*
X219048923Y-111549124D01*
X218347853Y-105252531D02*
X217396797Y-104943514D01*
X217470372Y-104717072D01*
X217559806Y-104595922D01*
X217679813Y-104534776D01*
X217785105Y-104518917D01*
X217980974Y-104532489D01*
X218116839Y-104576635D01*
X218283277Y-104680783D01*
X218359139Y-104755502D01*
X218420286Y-104875509D01*
X218421429Y-105026089D01*
X218347853Y-105252531D01*
X218818737Y-103803302D02*
X218642155Y-104346763D01*
X218730446Y-104075033D02*
X217779389Y-103766016D01*
X217885824Y-103900738D01*
X217946971Y-104020745D01*
X217962829Y-104126037D01*
X218058976Y-102905536D02*
X218088406Y-102814959D01*
X218163125Y-102739098D01*
X218223129Y-102708524D01*
X218328420Y-102692666D01*
X218524289Y-102706238D01*
X218750731Y-102779813D01*
X218917170Y-102883962D01*
X218993031Y-102958681D01*
X219023605Y-103018684D01*
X219039463Y-103123976D01*
X219010033Y-103214553D01*
X218935314Y-103290415D01*
X218875311Y-103320988D01*
X218770019Y-103336846D01*
X218574150Y-103323274D01*
X218347708Y-103249699D01*
X218181269Y-103145550D01*
X218105408Y-103070831D01*
X218074834Y-103010828D01*
X218058976Y-102905536D01*
X218264988Y-102271498D02*
X218470999Y-101637461D01*
X219289620Y-102354073D01*
X226355278Y-99403620D02*
X225767493Y-98594603D01*
X225960116Y-98454654D01*
X226103680Y-98409210D01*
X226236709Y-98430279D01*
X226331213Y-98479339D01*
X226481697Y-98605448D01*
X226565666Y-98721021D01*
X226639100Y-98903110D01*
X226656555Y-99008149D01*
X226635486Y-99141178D01*
X226547901Y-99263671D01*
X226355278Y-99403620D01*
X227588066Y-98507948D02*
X227125771Y-98843825D01*
X227356918Y-98675886D02*
X226769133Y-97866869D01*
X226776053Y-98038423D01*
X226754984Y-98171451D01*
X226705924Y-98265956D01*
X227501101Y-97335064D02*
X227578150Y-97279084D01*
X227683189Y-97261629D01*
X227749704Y-97272164D01*
X227844208Y-97321223D01*
X227994692Y-97447332D01*
X228134640Y-97639955D01*
X228208075Y-97822043D01*
X228225530Y-97927082D01*
X228214995Y-97993597D01*
X228165935Y-98088101D01*
X228088886Y-98144081D01*
X227983847Y-98161535D01*
X227917333Y-98151001D01*
X227822829Y-98101941D01*
X227672345Y-97975832D01*
X227532396Y-97783209D01*
X227458962Y-97601121D01*
X227441507Y-97496082D01*
X227452042Y-97429568D01*
X227501101Y-97335064D01*
X228484977Y-97149979D02*
X228379938Y-97167434D01*
X228313423Y-97156899D01*
X228218919Y-97107840D01*
X228190929Y-97069315D01*
X228173474Y-96964276D01*
X228184009Y-96897762D01*
X228233069Y-96803258D01*
X228387167Y-96691299D01*
X228492206Y-96673844D01*
X228558721Y-96684379D01*
X228653225Y-96733438D01*
X228681215Y-96771963D01*
X228698669Y-96877002D01*
X228688135Y-96943516D01*
X228639075Y-97038020D01*
X228484977Y-97149979D01*
X228435917Y-97244484D01*
X228425382Y-97310998D01*
X228442837Y-97416037D01*
X228554796Y-97570135D01*
X228649301Y-97619195D01*
X228715815Y-97629730D01*
X228820854Y-97612275D01*
X228974952Y-97500316D01*
X229024012Y-97405812D01*
X229034547Y-97339297D01*
X229017092Y-97234258D01*
X228905133Y-97080160D01*
X228810629Y-97031100D01*
X228744114Y-97020565D01*
X228639075Y-97038020D01*
X234737278Y-93180619D02*
X234149493Y-92371602D01*
X234342116Y-92231653D01*
X234485680Y-92186209D01*
X234618709Y-92207278D01*
X234713213Y-92256338D01*
X234863697Y-92382447D01*
X234947666Y-92498020D01*
X235021100Y-92680109D01*
X235038555Y-92785148D01*
X235017486Y-92918177D01*
X234929901Y-93040670D01*
X234737278Y-93180619D01*
X235970066Y-92284947D02*
X235507771Y-92620824D01*
X235738918Y-92452885D02*
X235151133Y-91643868D01*
X235158053Y-91815422D01*
X235136984Y-91948450D01*
X235087924Y-92042955D01*
X235883101Y-91112063D02*
X235960150Y-91056083D01*
X236065189Y-91038628D01*
X236131704Y-91049163D01*
X236226208Y-91098222D01*
X236376692Y-91224331D01*
X236516640Y-91416954D01*
X236590075Y-91599042D01*
X236607530Y-91704081D01*
X236596995Y-91770596D01*
X236547935Y-91865100D01*
X236470886Y-91921080D01*
X236365847Y-91938534D01*
X236299333Y-91928000D01*
X236204829Y-91878940D01*
X236054345Y-91752831D01*
X235914396Y-91560208D01*
X235840962Y-91378120D01*
X235823507Y-91273081D01*
X235834042Y-91206567D01*
X235883101Y-91112063D01*
X237125805Y-91445253D02*
X237279903Y-91333294D01*
X237328963Y-91238790D01*
X237339498Y-91172276D01*
X237332577Y-91000722D01*
X237259143Y-90818634D01*
X237035225Y-90510437D01*
X236940721Y-90461378D01*
X236874206Y-90450843D01*
X236769167Y-90468298D01*
X236615069Y-90580257D01*
X236566009Y-90674761D01*
X236555474Y-90741275D01*
X236572929Y-90846314D01*
X236712878Y-91038937D01*
X236807382Y-91087997D01*
X236873897Y-91098532D01*
X236978936Y-91081077D01*
X237133034Y-90969118D01*
X237182094Y-90874614D01*
X237192629Y-90808099D01*
X237175174Y-90703060D01*
X236047455Y-86576025D02*
X235738438Y-85624969D01*
X235964880Y-85551393D01*
X236115460Y-85552536D01*
X236235467Y-85613683D01*
X236310185Y-85689545D01*
X236414334Y-85855983D01*
X236458480Y-85991848D01*
X236472051Y-86187717D01*
X236456193Y-86293009D01*
X236395047Y-86413016D01*
X236273897Y-86502450D01*
X236047455Y-86576025D01*
X237496683Y-86105142D02*
X236953223Y-86281723D01*
X237224953Y-86193433D02*
X236915936Y-85242376D01*
X236869505Y-85407672D01*
X236808358Y-85527679D01*
X236732496Y-85602397D01*
X238402452Y-85810840D02*
X237858991Y-85987421D01*
X238130721Y-85899131D02*
X237821704Y-84948074D01*
X237775273Y-85113370D01*
X237714126Y-85233377D01*
X237638264Y-85308095D01*
X238682184Y-84668488D02*
X238772761Y-84639057D01*
X238878053Y-84654916D01*
X238938056Y-84685489D01*
X239012775Y-84761351D01*
X239116923Y-84927789D01*
X239190499Y-85154231D01*
X239204071Y-85350100D01*
X239188213Y-85455392D01*
X239157639Y-85515395D01*
X239081778Y-85590114D01*
X238991201Y-85619544D01*
X238885909Y-85603686D01*
X238825905Y-85573113D01*
X238751187Y-85497251D01*
X238647038Y-85330812D01*
X238573463Y-85104370D01*
X238559891Y-84908502D01*
X238575749Y-84803210D01*
X238606322Y-84743206D01*
X238682184Y-84668488D01*
X225385523Y-86431380D02*
X225385523Y-85431380D01*
X225623619Y-85431380D01*
X225766476Y-85479000D01*
X225861714Y-85574238D01*
X225909333Y-85669476D01*
X225956952Y-85859952D01*
X225956952Y-86002809D01*
X225909333Y-86193285D01*
X225861714Y-86288523D01*
X225766476Y-86383761D01*
X225623619Y-86431380D01*
X225385523Y-86431380D01*
X226909333Y-86431380D02*
X226337904Y-86431380D01*
X226623619Y-86431380D02*
X226623619Y-85431380D01*
X226528380Y-85574238D01*
X226433142Y-85669476D01*
X226337904Y-85717095D01*
X227861714Y-86431380D02*
X227290285Y-86431380D01*
X227576000Y-86431380D02*
X227576000Y-85431380D01*
X227480761Y-85574238D01*
X227385523Y-85669476D01*
X227290285Y-85717095D01*
X228814095Y-86431380D02*
X228242666Y-86431380D01*
X228528380Y-86431380D02*
X228528380Y-85431380D01*
X228433142Y-85574238D01*
X228337904Y-85669476D01*
X228242666Y-85717095D01*
X207408473Y-83192346D02*
X207996258Y-82383329D01*
X208188881Y-82523278D01*
X208276465Y-82645772D01*
X208297535Y-82778801D01*
X208280080Y-82883840D01*
X208206645Y-83065928D01*
X208122676Y-83181502D01*
X207972192Y-83307611D01*
X207877688Y-83356670D01*
X207744659Y-83377740D01*
X207601096Y-83332295D01*
X207408473Y-83192346D01*
X208641260Y-84088019D02*
X208178965Y-83752142D01*
X208410113Y-83920081D02*
X208997898Y-83111064D01*
X208836879Y-83170658D01*
X208703851Y-83191728D01*
X208598812Y-83174273D01*
X209411753Y-84647815D02*
X208949457Y-84311937D01*
X209180605Y-84479876D02*
X209768390Y-83670859D01*
X209607372Y-83730453D01*
X209474343Y-83751523D01*
X209369304Y-83734068D01*
X210269210Y-84034726D02*
X210770030Y-84398593D01*
X210276440Y-84510862D01*
X210392014Y-84594831D01*
X210441073Y-84689335D01*
X210451608Y-84755850D01*
X210434153Y-84860889D01*
X210294204Y-85053512D01*
X210199700Y-85102571D01*
X210133186Y-85113106D01*
X210028147Y-85095651D01*
X209796999Y-84927712D01*
X209747940Y-84833208D01*
X209737405Y-84766694D01*
X205041374Y-71811055D02*
X205992430Y-71502038D01*
X206066006Y-71728480D01*
X206064863Y-71879060D01*
X206003716Y-71999067D01*
X205927854Y-72073785D01*
X205761416Y-72177934D01*
X205625551Y-72222080D01*
X205429682Y-72235651D01*
X205324390Y-72219793D01*
X205204383Y-72158647D01*
X205114949Y-72037497D01*
X205041374Y-71811055D01*
X205512257Y-73260283D02*
X205335676Y-72716823D01*
X205423966Y-72988553D02*
X206375023Y-72679536D01*
X206209727Y-72633105D01*
X206089720Y-72571958D01*
X206015002Y-72496096D01*
X205806559Y-74166052D02*
X205629978Y-73622591D01*
X205718268Y-73894321D02*
X206669325Y-73585304D01*
X206504029Y-73538873D01*
X206384022Y-73477726D01*
X206309304Y-73401864D01*
X206705468Y-74775232D02*
X206071430Y-74981243D01*
X206994200Y-74431069D02*
X206241298Y-74425353D01*
X206432595Y-75014102D01*
X202056874Y-61841556D02*
X203007930Y-61532539D01*
X203081506Y-61758981D01*
X203080363Y-61909561D01*
X203019216Y-62029568D01*
X202943354Y-62104286D01*
X202776916Y-62208435D01*
X202641051Y-62252581D01*
X202445182Y-62266152D01*
X202339890Y-62250294D01*
X202219883Y-62189148D01*
X202130449Y-62067998D01*
X202056874Y-61841556D01*
X202527757Y-63290784D02*
X202351176Y-62747324D01*
X202439466Y-63019054D02*
X203390523Y-62710037D01*
X203225227Y-62663606D01*
X203105220Y-62602459D01*
X203030502Y-62526597D01*
X202822059Y-64196553D02*
X202645478Y-63653092D01*
X202733768Y-63924822D02*
X203684825Y-63615805D01*
X203519529Y-63569374D01*
X203399522Y-63508227D01*
X203324804Y-63432365D01*
X204052702Y-64748015D02*
X203905551Y-64295131D01*
X203437952Y-64396994D01*
X203497955Y-64427567D01*
X203572674Y-64503429D01*
X203646250Y-64729871D01*
X203630391Y-64835163D01*
X203599818Y-64895166D01*
X203523956Y-64969885D01*
X203297514Y-65043460D01*
X203192222Y-65027602D01*
X203132219Y-64997029D01*
X203057500Y-64921167D01*
X202983925Y-64694725D01*
X202999783Y-64589433D01*
X203030356Y-64529430D01*
X198508880Y-61507476D02*
X197508880Y-61507476D01*
X197508880Y-61269380D01*
X197556500Y-61126523D01*
X197651738Y-61031285D01*
X197746976Y-60983666D01*
X197937452Y-60936047D01*
X198080309Y-60936047D01*
X198270785Y-60983666D01*
X198366023Y-61031285D01*
X198461261Y-61126523D01*
X198508880Y-61269380D01*
X198508880Y-61507476D01*
X198508880Y-59983666D02*
X198508880Y-60555095D01*
X198508880Y-60269380D02*
X197508880Y-60269380D01*
X197651738Y-60364619D01*
X197746976Y-60459857D01*
X197794595Y-60555095D01*
X198508880Y-59031285D02*
X198508880Y-59602714D01*
X198508880Y-59317000D02*
X197508880Y-59317000D01*
X197651738Y-59412238D01*
X197746976Y-59507476D01*
X197794595Y-59602714D01*
X197508880Y-58174142D02*
X197508880Y-58364619D01*
X197556500Y-58459857D01*
X197604119Y-58507476D01*
X197746976Y-58602714D01*
X197937452Y-58650333D01*
X198318404Y-58650333D01*
X198413642Y-58602714D01*
X198461261Y-58555095D01*
X198508880Y-58459857D01*
X198508880Y-58269380D01*
X198461261Y-58174142D01*
X198413642Y-58126523D01*
X198318404Y-58078904D01*
X198080309Y-58078904D01*
X197985071Y-58126523D01*
X197937452Y-58174142D01*
X197889833Y-58269380D01*
X197889833Y-58459857D01*
X197937452Y-58555095D01*
X197985071Y-58602714D01*
X198080309Y-58650333D01*
X194852853Y-71661031D02*
X193901797Y-71352014D01*
X193975372Y-71125572D01*
X194064806Y-71004422D01*
X194184813Y-70943276D01*
X194290105Y-70927417D01*
X194485974Y-70940989D01*
X194621839Y-70985135D01*
X194788277Y-71089283D01*
X194864139Y-71164002D01*
X194925286Y-71284009D01*
X194926429Y-71434589D01*
X194852853Y-71661031D01*
X195323737Y-70211802D02*
X195147155Y-70755263D01*
X195235446Y-70483533D02*
X194284389Y-70174516D01*
X194390824Y-70309238D01*
X194451971Y-70429245D01*
X194467829Y-70534537D01*
X195618038Y-69306034D02*
X195441457Y-69849495D01*
X195529748Y-69577765D02*
X194578691Y-69268748D01*
X194685126Y-69403470D01*
X194746273Y-69523477D01*
X194762131Y-69628769D01*
X194769988Y-68679998D02*
X194975999Y-68045961D01*
X195794620Y-68762573D01*
X191296853Y-81567031D02*
X190345797Y-81258014D01*
X190419372Y-81031572D01*
X190508806Y-80910422D01*
X190628813Y-80849276D01*
X190734105Y-80833417D01*
X190929974Y-80846989D01*
X191065839Y-80891135D01*
X191232277Y-80995283D01*
X191308139Y-81070002D01*
X191369286Y-81190009D01*
X191370429Y-81340589D01*
X191296853Y-81567031D01*
X191767737Y-80117802D02*
X191591155Y-80661263D01*
X191679446Y-80389533D02*
X190728389Y-80080516D01*
X190834824Y-80215238D01*
X190895971Y-80335245D01*
X190911829Y-80440537D01*
X192062038Y-79212034D02*
X191885457Y-79755495D01*
X191973748Y-79483765D02*
X191022691Y-79174748D01*
X191129126Y-79309470D01*
X191190273Y-79429477D01*
X191206131Y-79534769D01*
X191695159Y-78491992D02*
X191620440Y-78567854D01*
X191560437Y-78598427D01*
X191455145Y-78614285D01*
X191409856Y-78599570D01*
X191333995Y-78524852D01*
X191303421Y-78464848D01*
X191287563Y-78359556D01*
X191346423Y-78178403D01*
X191421142Y-78102541D01*
X191481146Y-78071968D01*
X191586437Y-78056109D01*
X191631726Y-78070825D01*
X191707588Y-78145543D01*
X191738161Y-78205547D01*
X191754019Y-78310839D01*
X191695159Y-78491992D01*
X191711017Y-78597284D01*
X191741590Y-78657288D01*
X191817452Y-78732006D01*
X191998606Y-78790867D01*
X192103897Y-78775008D01*
X192163901Y-78744435D01*
X192238620Y-78668573D01*
X192297480Y-78487420D01*
X192281622Y-78382128D01*
X192251048Y-78322124D01*
X192175187Y-78247406D01*
X191994033Y-78188545D01*
X191888741Y-78204404D01*
X191828738Y-78234977D01*
X191754019Y-78310839D01*
X187747278Y-86703620D02*
X187159493Y-85894603D01*
X187352116Y-85754654D01*
X187495680Y-85709210D01*
X187628709Y-85730279D01*
X187723213Y-85779339D01*
X187873697Y-85905448D01*
X187957666Y-86021021D01*
X188031100Y-86203110D01*
X188048555Y-86308149D01*
X188027486Y-86441178D01*
X187939901Y-86563671D01*
X187747278Y-86703620D01*
X188980066Y-85807948D02*
X188517771Y-86143825D01*
X188748918Y-85975886D02*
X188161133Y-85166869D01*
X188168053Y-85338423D01*
X188146984Y-85471451D01*
X188097924Y-85565956D01*
X189750559Y-85248152D02*
X189288263Y-85584029D01*
X189519411Y-85416091D02*
X188931626Y-84607074D01*
X188938546Y-84778627D01*
X188917476Y-84911656D01*
X188868417Y-85006160D01*
X190135805Y-84968254D02*
X190289903Y-84856295D01*
X190338963Y-84761791D01*
X190349498Y-84695277D01*
X190342577Y-84523723D01*
X190269143Y-84341635D01*
X190045225Y-84033438D01*
X189950721Y-83984379D01*
X189884206Y-83973844D01*
X189779167Y-83991299D01*
X189625069Y-84103258D01*
X189576009Y-84197762D01*
X189565474Y-84264276D01*
X189582929Y-84369315D01*
X189722878Y-84561938D01*
X189817382Y-84610998D01*
X189883897Y-84621533D01*
X189988936Y-84604078D01*
X190143034Y-84492119D01*
X190192094Y-84397615D01*
X190202629Y-84331100D01*
X190185174Y-84226061D01*
X174839523Y-86177380D02*
X174839523Y-85177380D01*
X175077619Y-85177380D01*
X175220476Y-85225000D01*
X175315714Y-85320238D01*
X175363333Y-85415476D01*
X175410952Y-85605952D01*
X175410952Y-85748809D01*
X175363333Y-85939285D01*
X175315714Y-86034523D01*
X175220476Y-86129761D01*
X175077619Y-86177380D01*
X174839523Y-86177380D01*
X176363333Y-86177380D02*
X175791904Y-86177380D01*
X176077619Y-86177380D02*
X176077619Y-85177380D01*
X175982380Y-85320238D01*
X175887142Y-85415476D01*
X175791904Y-85463095D01*
X176744285Y-85272619D02*
X176791904Y-85225000D01*
X176887142Y-85177380D01*
X177125238Y-85177380D01*
X177220476Y-85225000D01*
X177268095Y-85272619D01*
X177315714Y-85367857D01*
X177315714Y-85463095D01*
X177268095Y-85605952D01*
X176696666Y-86177380D01*
X177315714Y-86177380D01*
X177934761Y-85177380D02*
X178030000Y-85177380D01*
X178125238Y-85225000D01*
X178172857Y-85272619D01*
X178220476Y-85367857D01*
X178268095Y-85558333D01*
X178268095Y-85796428D01*
X178220476Y-85986904D01*
X178172857Y-86082142D01*
X178125238Y-86129761D01*
X178030000Y-86177380D01*
X177934761Y-86177380D01*
X177839523Y-86129761D01*
X177791904Y-86082142D01*
X177744285Y-85986904D01*
X177696666Y-85796428D01*
X177696666Y-85558333D01*
X177744285Y-85367857D01*
X177791904Y-85272619D01*
X177839523Y-85225000D01*
X177934761Y-85177380D01*
X164616023Y-88590380D02*
X164616023Y-87590380D01*
X164854119Y-87590380D01*
X164996976Y-87638000D01*
X165092214Y-87733238D01*
X165139833Y-87828476D01*
X165187452Y-88018952D01*
X165187452Y-88161809D01*
X165139833Y-88352285D01*
X165092214Y-88447523D01*
X164996976Y-88542761D01*
X164854119Y-88590380D01*
X164616023Y-88590380D01*
X166139833Y-88590380D02*
X165568404Y-88590380D01*
X165854119Y-88590380D02*
X165854119Y-87590380D01*
X165758880Y-87733238D01*
X165663642Y-87828476D01*
X165568404Y-87876095D01*
X166520785Y-87685619D02*
X166568404Y-87638000D01*
X166663642Y-87590380D01*
X166901738Y-87590380D01*
X166996976Y-87638000D01*
X167044595Y-87685619D01*
X167092214Y-87780857D01*
X167092214Y-87876095D01*
X167044595Y-88018952D01*
X166473166Y-88590380D01*
X167092214Y-88590380D01*
X168044595Y-88590380D02*
X167473166Y-88590380D01*
X167758880Y-88590380D02*
X167758880Y-87590380D01*
X167663642Y-87733238D01*
X167568404Y-87828476D01*
X167473166Y-87876095D01*
X159351968Y-89379353D02*
X159660985Y-88428297D01*
X159887427Y-88501872D01*
X160008577Y-88591306D01*
X160069723Y-88711313D01*
X160085582Y-88816605D01*
X160072010Y-89012474D01*
X160027864Y-89148339D01*
X159923716Y-89314777D01*
X159848997Y-89390639D01*
X159728990Y-89451786D01*
X159578410Y-89452929D01*
X159351968Y-89379353D01*
X160801197Y-89850237D02*
X160257736Y-89673655D01*
X160529466Y-89761946D02*
X160838483Y-88810889D01*
X160703761Y-88917324D01*
X160583754Y-88978471D01*
X160478462Y-88994329D01*
X161443091Y-89107478D02*
X161503094Y-89076904D01*
X161608386Y-89061046D01*
X161834828Y-89134622D01*
X161910690Y-89209340D01*
X161941263Y-89269344D01*
X161957121Y-89374636D01*
X161927691Y-89465212D01*
X161838258Y-89586362D01*
X161118216Y-89953242D01*
X161706965Y-90144538D01*
X162348859Y-89401779D02*
X162408862Y-89371206D01*
X162514154Y-89355348D01*
X162740596Y-89428923D01*
X162816458Y-89503642D01*
X162847031Y-89563646D01*
X162862890Y-89668937D01*
X162833459Y-89759514D01*
X162744026Y-89880664D01*
X162023984Y-90247544D01*
X162612733Y-90438840D01*
X167974972Y-95193846D02*
X168562757Y-94384829D01*
X168755380Y-94524778D01*
X168842964Y-94647272D01*
X168864034Y-94780301D01*
X168846579Y-94885340D01*
X168773144Y-95067428D01*
X168689175Y-95183002D01*
X168538691Y-95309111D01*
X168444187Y-95358170D01*
X168311158Y-95379240D01*
X168167595Y-95333795D01*
X167974972Y-95193846D01*
X169207759Y-96089519D02*
X168745464Y-95753642D01*
X168976612Y-95921581D02*
X169564397Y-95112564D01*
X169403378Y-95172158D01*
X169270350Y-95193228D01*
X169165311Y-95175773D01*
X170047762Y-95581470D02*
X170114277Y-95570935D01*
X170219316Y-95588390D01*
X170411939Y-95728339D01*
X170460998Y-95822843D01*
X170471533Y-95889357D01*
X170454078Y-95994396D01*
X170398098Y-96071445D01*
X170275605Y-96159029D01*
X169477432Y-96285448D01*
X169978252Y-96649315D01*
X170835709Y-96036226D02*
X171336529Y-96400093D01*
X170842939Y-96512362D01*
X170958513Y-96596331D01*
X171007572Y-96690835D01*
X171018107Y-96757350D01*
X171000652Y-96862389D01*
X170860703Y-97055012D01*
X170766199Y-97104071D01*
X170699685Y-97114606D01*
X170594646Y-97097151D01*
X170363498Y-96929212D01*
X170314439Y-96834708D01*
X170303904Y-96768194D01*
X176420473Y-101480346D02*
X177008258Y-100671329D01*
X177200881Y-100811278D01*
X177288465Y-100933772D01*
X177309535Y-101066801D01*
X177292080Y-101171840D01*
X177218645Y-101353928D01*
X177134676Y-101469502D01*
X176984192Y-101595611D01*
X176889688Y-101644670D01*
X176756659Y-101665740D01*
X176613096Y-101620295D01*
X176420473Y-101480346D01*
X177653260Y-102376019D02*
X177190965Y-102040142D01*
X177422113Y-102208081D02*
X178009898Y-101399064D01*
X177848879Y-101458658D01*
X177715851Y-101479728D01*
X177610812Y-101462273D01*
X178493263Y-101867970D02*
X178559778Y-101857435D01*
X178664817Y-101874890D01*
X178857440Y-102014839D01*
X178906499Y-102109343D01*
X178917034Y-102175857D01*
X178899579Y-102280896D01*
X178843599Y-102357945D01*
X178721106Y-102445529D01*
X177922933Y-102571948D01*
X178423753Y-102935815D01*
X179509053Y-102900286D02*
X179117196Y-103439631D01*
X179540348Y-102452140D02*
X178927878Y-102890061D01*
X179428698Y-103253928D01*
X182054374Y-105910555D02*
X183005430Y-105601538D01*
X183079006Y-105827980D01*
X183077863Y-105978560D01*
X183016716Y-106098567D01*
X182940854Y-106173285D01*
X182774416Y-106277434D01*
X182638551Y-106321580D01*
X182442682Y-106335151D01*
X182337390Y-106319293D01*
X182217383Y-106258147D01*
X182127949Y-106136997D01*
X182054374Y-105910555D01*
X182525257Y-107359783D02*
X182348676Y-106816323D01*
X182436966Y-107088053D02*
X183388023Y-106779036D01*
X183222727Y-106732605D01*
X183102720Y-106671458D01*
X183028002Y-106595596D01*
X183503457Y-107442504D02*
X183563461Y-107473077D01*
X183638179Y-107548939D01*
X183711755Y-107775381D01*
X183695897Y-107880673D01*
X183665323Y-107940676D01*
X183589462Y-108015395D01*
X183498885Y-108044825D01*
X183348304Y-108043682D01*
X182628262Y-107676802D01*
X182819559Y-108265552D01*
X184050202Y-108817014D02*
X183903051Y-108364130D01*
X183435452Y-108465993D01*
X183495455Y-108496566D01*
X183570174Y-108572428D01*
X183643750Y-108798870D01*
X183627891Y-108904162D01*
X183597318Y-108964165D01*
X183521456Y-109038884D01*
X183295014Y-109112459D01*
X183189722Y-109096601D01*
X183129719Y-109066028D01*
X183055000Y-108990166D01*
X182981425Y-108763724D01*
X182997283Y-108658432D01*
X183027856Y-108598429D01*
X179104853Y-119730531D02*
X178153797Y-119421514D01*
X178227372Y-119195072D01*
X178316806Y-119073922D01*
X178436813Y-119012776D01*
X178542105Y-118996917D01*
X178737974Y-119010489D01*
X178873839Y-119054635D01*
X179040277Y-119158783D01*
X179116139Y-119233502D01*
X179177286Y-119353509D01*
X179178429Y-119504089D01*
X179104853Y-119730531D01*
X179575737Y-118281302D02*
X179399155Y-118824763D01*
X179487446Y-118553033D02*
X178536389Y-118244016D01*
X178642824Y-118378738D01*
X178703971Y-118498745D01*
X178719829Y-118604037D01*
X178832978Y-117639408D02*
X178802404Y-117579405D01*
X178786546Y-117474113D01*
X178860122Y-117247671D01*
X178934840Y-117171809D01*
X178994844Y-117141236D01*
X179100136Y-117125378D01*
X179190712Y-117154808D01*
X179311862Y-117244241D01*
X179678742Y-117964283D01*
X179870038Y-117375534D01*
X179183854Y-116251326D02*
X179124993Y-116432480D01*
X179140851Y-116537771D01*
X179171425Y-116597775D01*
X179277860Y-116732497D01*
X179444298Y-116836646D01*
X179806606Y-116954367D01*
X179911897Y-116938508D01*
X179971901Y-116907935D01*
X180046620Y-116832073D01*
X180105480Y-116650920D01*
X180089622Y-116545628D01*
X180059048Y-116485624D01*
X179983187Y-116410906D01*
X179756745Y-116337330D01*
X179651453Y-116353188D01*
X179591449Y-116383762D01*
X179516731Y-116459623D01*
X179457870Y-116640777D01*
X179473729Y-116746069D01*
X179504302Y-116806073D01*
X179580164Y-116880791D01*
X175929853Y-129382531D02*
X174978797Y-129073514D01*
X175052372Y-128847072D01*
X175141806Y-128725922D01*
X175261813Y-128664776D01*
X175367105Y-128648917D01*
X175562974Y-128662489D01*
X175698839Y-128706635D01*
X175865277Y-128810783D01*
X175941139Y-128885502D01*
X176002286Y-129005509D01*
X176003429Y-129156089D01*
X175929853Y-129382531D01*
X176400737Y-127933302D02*
X176224155Y-128476763D01*
X176312446Y-128205033D02*
X175361389Y-127896016D01*
X175467824Y-128030738D01*
X175528971Y-128150745D01*
X175544829Y-128256037D01*
X175657978Y-127291408D02*
X175627404Y-127231405D01*
X175611546Y-127126113D01*
X175685122Y-126899671D01*
X175759840Y-126823809D01*
X175819844Y-126793236D01*
X175925136Y-126777378D01*
X176015712Y-126806808D01*
X176136862Y-126896241D01*
X176503742Y-127616283D01*
X176695038Y-127027534D01*
X175846988Y-126401498D02*
X176052999Y-125767461D01*
X176871620Y-126484073D01*
X177680346Y-134983526D02*
X176871329Y-134395741D01*
X177011278Y-134203118D01*
X177133772Y-134115534D01*
X177266801Y-134094464D01*
X177371840Y-134111919D01*
X177553928Y-134185354D01*
X177669502Y-134269323D01*
X177795611Y-134419807D01*
X177844670Y-134514311D01*
X177865740Y-134647340D01*
X177820295Y-134790903D01*
X177680346Y-134983526D01*
X178576019Y-133750739D02*
X178240142Y-134213034D01*
X178408081Y-133981886D02*
X177599064Y-133394101D01*
X177658658Y-133555120D01*
X177679728Y-133688148D01*
X177662273Y-133793187D01*
X178067970Y-132910736D02*
X178057435Y-132844221D01*
X178074890Y-132739182D01*
X178214839Y-132546559D01*
X178309343Y-132497500D01*
X178375857Y-132486965D01*
X178480896Y-132504420D01*
X178557945Y-132560400D01*
X178645529Y-132682893D01*
X178771948Y-133481066D01*
X179135815Y-132980246D01*
X179009397Y-132182073D02*
X178914892Y-132231133D01*
X178848378Y-132241668D01*
X178743339Y-132224213D01*
X178704814Y-132196223D01*
X178655755Y-132101719D01*
X178645220Y-132035204D01*
X178662675Y-131930165D01*
X178774634Y-131776067D01*
X178869138Y-131727008D01*
X178935653Y-131716473D01*
X179040692Y-131733928D01*
X179079216Y-131761917D01*
X179128276Y-131856422D01*
X179138811Y-131922936D01*
X179121356Y-132027975D01*
X179009397Y-132182073D01*
X178991942Y-132287112D01*
X179002476Y-132353627D01*
X179051536Y-132448131D01*
X179205634Y-132560090D01*
X179310673Y-132577545D01*
X179377188Y-132567010D01*
X179471692Y-132517951D01*
X179583651Y-132363852D01*
X179601106Y-132258813D01*
X179590571Y-132192299D01*
X179541512Y-132097795D01*
X179387413Y-131985836D01*
X179282374Y-131968381D01*
X179215860Y-131978915D01*
X179121356Y-132027975D01*
X185461277Y-128867620D02*
X184873492Y-128058603D01*
X185066115Y-127918654D01*
X185209679Y-127873210D01*
X185342708Y-127894279D01*
X185437212Y-127943339D01*
X185587696Y-128069448D01*
X185671665Y-128185021D01*
X185745099Y-128367110D01*
X185762554Y-128472149D01*
X185741485Y-128605178D01*
X185653900Y-128727671D01*
X185461277Y-128867620D01*
X186694065Y-127971948D02*
X186231770Y-128307825D01*
X186462917Y-128139886D02*
X185875132Y-127330869D01*
X185882052Y-127502423D01*
X185860983Y-127635451D01*
X185811923Y-127729956D01*
X186470456Y-127016062D02*
X186480991Y-126949547D01*
X186530051Y-126855043D01*
X186722674Y-126715094D01*
X186827713Y-126697639D01*
X186894227Y-126708174D01*
X186988731Y-126757234D01*
X187044711Y-126834283D01*
X187090156Y-126977846D01*
X186963738Y-127776019D01*
X187464558Y-127412152D01*
X187849804Y-127132254D02*
X188003902Y-127020295D01*
X188052962Y-126925791D01*
X188063497Y-126859277D01*
X188056576Y-126687723D01*
X187983142Y-126505635D01*
X187759224Y-126197438D01*
X187664720Y-126148379D01*
X187598205Y-126137844D01*
X187493166Y-126155299D01*
X187339068Y-126267258D01*
X187290008Y-126361762D01*
X187279473Y-126428276D01*
X187296928Y-126533315D01*
X187436877Y-126725938D01*
X187531381Y-126774998D01*
X187597896Y-126785533D01*
X187702935Y-126768078D01*
X187857033Y-126656119D01*
X187906093Y-126561615D01*
X187916628Y-126495100D01*
X187899173Y-126390061D01*
X192954278Y-120485620D02*
X192366493Y-119676603D01*
X192559116Y-119536654D01*
X192702680Y-119491210D01*
X192835709Y-119512279D01*
X192930213Y-119561339D01*
X193080697Y-119687448D01*
X193164666Y-119803021D01*
X193238100Y-119985110D01*
X193255555Y-120090149D01*
X193234486Y-120223178D01*
X193146901Y-120345671D01*
X192954278Y-120485620D01*
X194187066Y-119589948D02*
X193724771Y-119925825D01*
X193955918Y-119757886D02*
X193368133Y-118948869D01*
X193375053Y-119120423D01*
X193353984Y-119253451D01*
X193304924Y-119347956D01*
X193868953Y-118585002D02*
X194369773Y-118221135D01*
X194324019Y-118725260D01*
X194439593Y-118641291D01*
X194544632Y-118623836D01*
X194611146Y-118634371D01*
X194705651Y-118683431D01*
X194845599Y-118876054D01*
X194863054Y-118981093D01*
X194852520Y-119047607D01*
X194803460Y-119142111D01*
X194572312Y-119310050D01*
X194467273Y-119327505D01*
X194400759Y-119316970D01*
X194870593Y-117857268D02*
X194947643Y-117801289D01*
X195052682Y-117783834D01*
X195119196Y-117794368D01*
X195213700Y-117843428D01*
X195364184Y-117969537D01*
X195504133Y-118162160D01*
X195577567Y-118344248D01*
X195595022Y-118449287D01*
X195584487Y-118515801D01*
X195535428Y-118610305D01*
X195458379Y-118666285D01*
X195353340Y-118683740D01*
X195286825Y-118673205D01*
X195192321Y-118624146D01*
X195041837Y-118498037D01*
X194901888Y-118305414D01*
X194828454Y-118123326D01*
X194810999Y-118018287D01*
X194821534Y-117951772D01*
X194870593Y-117857268D01*
X198743819Y-98202619D02*
X198696200Y-98297857D01*
X198600961Y-98393095D01*
X198458104Y-98535952D01*
X198410485Y-98631190D01*
X198410485Y-98726428D01*
X198648580Y-98678809D02*
X198600961Y-98774047D01*
X198505723Y-98869285D01*
X198315247Y-98916904D01*
X197981914Y-98916904D01*
X197791438Y-98869285D01*
X197696200Y-98774047D01*
X197648580Y-98678809D01*
X197648580Y-98488333D01*
X197696200Y-98393095D01*
X197791438Y-98297857D01*
X197981914Y-98250238D01*
X198315247Y-98250238D01*
X198505723Y-98297857D01*
X198600961Y-98393095D01*
X198648580Y-98488333D01*
X198648580Y-98678809D01*
X198648580Y-97297857D02*
X198648580Y-97869285D01*
X198648580Y-97583571D02*
X197648580Y-97583571D01*
X197791438Y-97678809D01*
X197886676Y-97774047D01*
X197934295Y-97869285D01*
X197648580Y-96678809D02*
X197648580Y-96583571D01*
X197696200Y-96488333D01*
X197743819Y-96440714D01*
X197839057Y-96393095D01*
X198029533Y-96345476D01*
X198267628Y-96345476D01*
X198458104Y-96393095D01*
X198553342Y-96440714D01*
X198600961Y-96488333D01*
X198648580Y-96583571D01*
X198648580Y-96678809D01*
X198600961Y-96774047D01*
X198553342Y-96821666D01*
X198458104Y-96869285D01*
X198267628Y-96916904D01*
X198029533Y-96916904D01*
X197839057Y-96869285D01*
X197743819Y-96821666D01*
X197696200Y-96774047D01*
X197648580Y-96678809D01*
X198648580Y-95393095D02*
X198648580Y-95964523D01*
X198648580Y-95678809D02*
X197648580Y-95678809D01*
X197791438Y-95774047D01*
X197886676Y-95869285D01*
X197934295Y-95964523D01*
X206085380Y-103201647D02*
X205609190Y-103534980D01*
X206085380Y-103773076D02*
X205085380Y-103773076D01*
X205085380Y-103392123D01*
X205133000Y-103296885D01*
X205180619Y-103249266D01*
X205275857Y-103201647D01*
X205418714Y-103201647D01*
X205513952Y-103249266D01*
X205561571Y-103296885D01*
X205609190Y-103392123D01*
X205609190Y-103773076D01*
X206085380Y-102249266D02*
X206085380Y-102820695D01*
X206085380Y-102534980D02*
X205085380Y-102534980D01*
X205228238Y-102630219D01*
X205323476Y-102725457D01*
X205371095Y-102820695D01*
X205085380Y-101630219D02*
X205085380Y-101534980D01*
X205133000Y-101439742D01*
X205180619Y-101392123D01*
X205275857Y-101344504D01*
X205466333Y-101296885D01*
X205704428Y-101296885D01*
X205894904Y-101344504D01*
X205990142Y-101392123D01*
X206037761Y-101439742D01*
X206085380Y-101534980D01*
X206085380Y-101630219D01*
X206037761Y-101725457D01*
X205990142Y-101773076D01*
X205894904Y-101820695D01*
X205704428Y-101868314D01*
X205466333Y-101868314D01*
X205275857Y-101820695D01*
X205180619Y-101773076D01*
X205133000Y-101725457D01*
X205085380Y-101630219D01*
X206085380Y-100344504D02*
X206085380Y-100915933D01*
X206085380Y-100630219D02*
X205085380Y-100630219D01*
X205228238Y-100725457D01*
X205323476Y-100820695D01*
X205371095Y-100915933D01*
X202055552Y-100198180D02*
X201722219Y-99721990D01*
X201484123Y-100198180D02*
X201484123Y-99198180D01*
X201865076Y-99198180D01*
X201960314Y-99245800D01*
X202007933Y-99293419D01*
X202055552Y-99388657D01*
X202055552Y-99531514D01*
X202007933Y-99626752D01*
X201960314Y-99674371D01*
X201865076Y-99721990D01*
X201484123Y-99721990D01*
X203007933Y-100198180D02*
X202436504Y-100198180D01*
X202722219Y-100198180D02*
X202722219Y-99198180D01*
X202626980Y-99341038D01*
X202531742Y-99436276D01*
X202436504Y-99483895D01*
X203626980Y-99198180D02*
X203722219Y-99198180D01*
X203817457Y-99245800D01*
X203865076Y-99293419D01*
X203912695Y-99388657D01*
X203960314Y-99579133D01*
X203960314Y-99817228D01*
X203912695Y-100007704D01*
X203865076Y-100102942D01*
X203817457Y-100150561D01*
X203722219Y-100198180D01*
X203626980Y-100198180D01*
X203531742Y-100150561D01*
X203484123Y-100102942D01*
X203436504Y-100007704D01*
X203388885Y-99817228D01*
X203388885Y-99579133D01*
X203436504Y-99388657D01*
X203484123Y-99293419D01*
X203531742Y-99245800D01*
X203626980Y-99198180D01*
X204341266Y-99293419D02*
X204388885Y-99245800D01*
X204484123Y-99198180D01*
X204722219Y-99198180D01*
X204817457Y-99245800D01*
X204865076Y-99293419D01*
X204912695Y-99388657D01*
X204912695Y-99483895D01*
X204865076Y-99626752D01*
X204293647Y-100198180D01*
X204912695Y-100198180D01*
X197988180Y-112701247D02*
X197511990Y-113034580D01*
X197988180Y-113272676D02*
X196988180Y-113272676D01*
X196988180Y-112891723D01*
X197035800Y-112796485D01*
X197083419Y-112748866D01*
X197178657Y-112701247D01*
X197321514Y-112701247D01*
X197416752Y-112748866D01*
X197464371Y-112796485D01*
X197511990Y-112891723D01*
X197511990Y-113272676D01*
X197988180Y-111748866D02*
X197988180Y-112320295D01*
X197988180Y-112034580D02*
X196988180Y-112034580D01*
X197131038Y-112129819D01*
X197226276Y-112225057D01*
X197273895Y-112320295D01*
X196988180Y-111129819D02*
X196988180Y-111034580D01*
X197035800Y-110939342D01*
X197083419Y-110891723D01*
X197178657Y-110844104D01*
X197369133Y-110796485D01*
X197607228Y-110796485D01*
X197797704Y-110844104D01*
X197892942Y-110891723D01*
X197940561Y-110939342D01*
X197988180Y-111034580D01*
X197988180Y-111129819D01*
X197940561Y-111225057D01*
X197892942Y-111272676D01*
X197797704Y-111320295D01*
X197607228Y-111367914D01*
X197369133Y-111367914D01*
X197178657Y-111320295D01*
X197083419Y-111272676D01*
X197035800Y-111225057D01*
X196988180Y-111129819D01*
X196988180Y-109891723D02*
X196988180Y-110367914D01*
X197464371Y-110415533D01*
X197416752Y-110367914D01*
X197369133Y-110272676D01*
X197369133Y-110034580D01*
X197416752Y-109939342D01*
X197464371Y-109891723D01*
X197559609Y-109844104D01*
X197797704Y-109844104D01*
X197892942Y-109891723D01*
X197940561Y-109939342D01*
X197988180Y-110034580D01*
X197988180Y-110272676D01*
X197940561Y-110367914D01*
X197892942Y-110415533D01*
X202080952Y-112593380D02*
X201747619Y-112117190D01*
X201509523Y-112593380D02*
X201509523Y-111593380D01*
X201890476Y-111593380D01*
X201985714Y-111641000D01*
X202033333Y-111688619D01*
X202080952Y-111783857D01*
X202080952Y-111926714D01*
X202033333Y-112021952D01*
X201985714Y-112069571D01*
X201890476Y-112117190D01*
X201509523Y-112117190D01*
X203033333Y-112593380D02*
X202461904Y-112593380D01*
X202747619Y-112593380D02*
X202747619Y-111593380D01*
X202652380Y-111736238D01*
X202557142Y-111831476D01*
X202461904Y-111879095D01*
X203652380Y-111593380D02*
X203747619Y-111593380D01*
X203842857Y-111641000D01*
X203890476Y-111688619D01*
X203938095Y-111783857D01*
X203985714Y-111974333D01*
X203985714Y-112212428D01*
X203938095Y-112402904D01*
X203890476Y-112498142D01*
X203842857Y-112545761D01*
X203747619Y-112593380D01*
X203652380Y-112593380D01*
X203557142Y-112545761D01*
X203509523Y-112498142D01*
X203461904Y-112402904D01*
X203414285Y-112212428D01*
X203414285Y-111974333D01*
X203461904Y-111783857D01*
X203509523Y-111688619D01*
X203557142Y-111641000D01*
X203652380Y-111593380D01*
X204842857Y-111593380D02*
X204652380Y-111593380D01*
X204557142Y-111641000D01*
X204509523Y-111688619D01*
X204414285Y-111831476D01*
X204366666Y-112021952D01*
X204366666Y-112402904D01*
X204414285Y-112498142D01*
X204461904Y-112545761D01*
X204557142Y-112593380D01*
X204747619Y-112593380D01*
X204842857Y-112545761D01*
X204890476Y-112498142D01*
X204938095Y-112402904D01*
X204938095Y-112164809D01*
X204890476Y-112069571D01*
X204842857Y-112021952D01*
X204747619Y-111974333D01*
X204557142Y-111974333D01*
X204461904Y-112021952D01*
X204414285Y-112069571D01*
X204366666Y-112164809D01*
X196672460Y-112472647D02*
X196196270Y-112805980D01*
X196672460Y-113044076D02*
X195672460Y-113044076D01*
X195672460Y-112663123D01*
X195720080Y-112567885D01*
X195767699Y-112520266D01*
X195862937Y-112472647D01*
X196005794Y-112472647D01*
X196101032Y-112520266D01*
X196148651Y-112567885D01*
X196196270Y-112663123D01*
X196196270Y-113044076D01*
X196672460Y-111520266D02*
X196672460Y-112091695D01*
X196672460Y-111805980D02*
X195672460Y-111805980D01*
X195815318Y-111901219D01*
X195910556Y-111996457D01*
X195958175Y-112091695D01*
X195672460Y-110901219D02*
X195672460Y-110805980D01*
X195720080Y-110710742D01*
X195767699Y-110663123D01*
X195862937Y-110615504D01*
X196053413Y-110567885D01*
X196291508Y-110567885D01*
X196481984Y-110615504D01*
X196577222Y-110663123D01*
X196624841Y-110710742D01*
X196672460Y-110805980D01*
X196672460Y-110901219D01*
X196624841Y-110996457D01*
X196577222Y-111044076D01*
X196481984Y-111091695D01*
X196291508Y-111139314D01*
X196053413Y-111139314D01*
X195862937Y-111091695D01*
X195767699Y-111044076D01*
X195720080Y-110996457D01*
X195672460Y-110901219D01*
X195672460Y-110234552D02*
X195672460Y-109567885D01*
X196672460Y-109996457D01*
X195351660Y-112518367D02*
X194875470Y-112851700D01*
X195351660Y-113089796D02*
X194351660Y-113089796D01*
X194351660Y-112708843D01*
X194399280Y-112613605D01*
X194446899Y-112565986D01*
X194542137Y-112518367D01*
X194684994Y-112518367D01*
X194780232Y-112565986D01*
X194827851Y-112613605D01*
X194875470Y-112708843D01*
X194875470Y-113089796D01*
X195351660Y-111565986D02*
X195351660Y-112137415D01*
X195351660Y-111851700D02*
X194351660Y-111851700D01*
X194494518Y-111946939D01*
X194589756Y-112042177D01*
X194637375Y-112137415D01*
X194351660Y-110946939D02*
X194351660Y-110851700D01*
X194399280Y-110756462D01*
X194446899Y-110708843D01*
X194542137Y-110661224D01*
X194732613Y-110613605D01*
X194970708Y-110613605D01*
X195161184Y-110661224D01*
X195256422Y-110708843D01*
X195304041Y-110756462D01*
X195351660Y-110851700D01*
X195351660Y-110946939D01*
X195304041Y-111042177D01*
X195256422Y-111089796D01*
X195161184Y-111137415D01*
X194970708Y-111185034D01*
X194732613Y-111185034D01*
X194542137Y-111137415D01*
X194446899Y-111089796D01*
X194399280Y-111042177D01*
X194351660Y-110946939D01*
X194780232Y-110042177D02*
X194732613Y-110137415D01*
X194684994Y-110185034D01*
X194589756Y-110232653D01*
X194542137Y-110232653D01*
X194446899Y-110185034D01*
X194399280Y-110137415D01*
X194351660Y-110042177D01*
X194351660Y-109851700D01*
X194399280Y-109756462D01*
X194446899Y-109708843D01*
X194542137Y-109661224D01*
X194589756Y-109661224D01*
X194684994Y-109708843D01*
X194732613Y-109756462D01*
X194780232Y-109851700D01*
X194780232Y-110042177D01*
X194827851Y-110137415D01*
X194875470Y-110185034D01*
X194970708Y-110232653D01*
X195161184Y-110232653D01*
X195256422Y-110185034D01*
X195304041Y-110137415D01*
X195351660Y-110042177D01*
X195351660Y-109851700D01*
X195304041Y-109756462D01*
X195256422Y-109708843D01*
X195161184Y-109661224D01*
X194970708Y-109661224D01*
X194875470Y-109708843D01*
X194827851Y-109756462D01*
X194780232Y-109851700D01*
X209347285Y-103695680D02*
X209347285Y-104409966D01*
X209299666Y-104552823D01*
X209204428Y-104648061D01*
X209061571Y-104695680D01*
X208966333Y-104695680D01*
X210347285Y-104695680D02*
X209775857Y-104695680D01*
X210061571Y-104695680D02*
X210061571Y-103695680D01*
X209966333Y-103838538D01*
X209871095Y-103933776D01*
X209775857Y-103981395D01*
X210966333Y-103695680D02*
X211061571Y-103695680D01*
X211156809Y-103743300D01*
X211204428Y-103790919D01*
X211252047Y-103886157D01*
X211299666Y-104076633D01*
X211299666Y-104314728D01*
X211252047Y-104505204D01*
X211204428Y-104600442D01*
X211156809Y-104648061D01*
X211061571Y-104695680D01*
X210966333Y-104695680D01*
X210871095Y-104648061D01*
X210823476Y-104600442D01*
X210775857Y-104505204D01*
X210728238Y-104314728D01*
X210728238Y-104076633D01*
X210775857Y-103886157D01*
X210823476Y-103790919D01*
X210871095Y-103743300D01*
X210966333Y-103695680D01*
X211680619Y-103790919D02*
X211728238Y-103743300D01*
X211823476Y-103695680D01*
X212061571Y-103695680D01*
X212156809Y-103743300D01*
X212204428Y-103790919D01*
X212252047Y-103886157D01*
X212252047Y-103981395D01*
X212204428Y-104124252D01*
X211633000Y-104695680D01*
X212252047Y-104695680D01*
M02*
