G04 #@! TF.GenerationSoftware,KiCad,Pcbnew,5.1.5*
G04 #@! TF.CreationDate,2020-04-28T21:36:49+02:00*
G04 #@! TF.ProjectId,movingstar,6d6f7669-6e67-4737-9461-722e6b696361,rev?*
G04 #@! TF.SameCoordinates,Original*
G04 #@! TF.FileFunction,Legend,Bot*
G04 #@! TF.FilePolarity,Positive*
%FSLAX46Y46*%
G04 Gerber Fmt 4.6, Leading zero omitted, Abs format (unit mm)*
G04 Created by KiCad (PCBNEW 5.1.5) date 2020-04-28 21:36:49*
%MOMM*%
%LPD*%
G04 APERTURE LIST*
%ADD10C,0.300000*%
%ADD11C,0.120000*%
%ADD12C,0.150000*%
G04 APERTURE END LIST*
D10*
X208544085Y-84971171D02*
X208544085Y-83471171D01*
X207972657Y-83471171D01*
X207829800Y-83542600D01*
X207758371Y-83614028D01*
X207686942Y-83756885D01*
X207686942Y-83971171D01*
X207758371Y-84114028D01*
X207829800Y-84185457D01*
X207972657Y-84256885D01*
X208544085Y-84256885D01*
X207044085Y-84971171D02*
X207044085Y-83471171D01*
X206401228Y-84971171D02*
X206401228Y-84185457D01*
X206472657Y-84042600D01*
X206615514Y-83971171D01*
X206829800Y-83971171D01*
X206972657Y-84042600D01*
X207044085Y-84114028D01*
X205686942Y-84971171D02*
X205686942Y-83971171D01*
X205686942Y-83471171D02*
X205758371Y-83542600D01*
X205686942Y-83614028D01*
X205615514Y-83542600D01*
X205686942Y-83471171D01*
X205686942Y-83614028D01*
X204758371Y-84971171D02*
X204901228Y-84899742D01*
X204972657Y-84756885D01*
X204972657Y-83471171D01*
X204186942Y-84971171D02*
X204186942Y-83971171D01*
X204186942Y-83471171D02*
X204258371Y-83542600D01*
X204186942Y-83614028D01*
X204115514Y-83542600D01*
X204186942Y-83471171D01*
X204186942Y-83614028D01*
X203472657Y-83971171D02*
X203472657Y-85471171D01*
X203472657Y-84042600D02*
X203329800Y-83971171D01*
X203044085Y-83971171D01*
X202901228Y-84042600D01*
X202829800Y-84114028D01*
X202758371Y-84256885D01*
X202758371Y-84685457D01*
X202829800Y-84828314D01*
X202901228Y-84899742D01*
X203044085Y-84971171D01*
X203329800Y-84971171D01*
X203472657Y-84899742D01*
X202115514Y-83971171D02*
X202115514Y-85471171D01*
X202115514Y-84042600D02*
X201972657Y-83971171D01*
X201686942Y-83971171D01*
X201544085Y-84042600D01*
X201472657Y-84114028D01*
X201401228Y-84256885D01*
X201401228Y-84685457D01*
X201472657Y-84828314D01*
X201544085Y-84899742D01*
X201686942Y-84971171D01*
X201972657Y-84971171D01*
X202115514Y-84899742D01*
X198829800Y-83542600D02*
X198972657Y-83471171D01*
X199186942Y-83471171D01*
X199401228Y-83542600D01*
X199544085Y-83685457D01*
X199615514Y-83828314D01*
X199686942Y-84114028D01*
X199686942Y-84328314D01*
X199615514Y-84614028D01*
X199544085Y-84756885D01*
X199401228Y-84899742D01*
X199186942Y-84971171D01*
X199044085Y-84971171D01*
X198829800Y-84899742D01*
X198758371Y-84828314D01*
X198758371Y-84328314D01*
X199044085Y-84328314D01*
X197472657Y-83971171D02*
X197472657Y-84971171D01*
X198115514Y-83971171D02*
X198115514Y-84756885D01*
X198044085Y-84899742D01*
X197901228Y-84971171D01*
X197686942Y-84971171D01*
X197544085Y-84899742D01*
X197472657Y-84828314D01*
X196758371Y-84971171D02*
X196758371Y-83971171D01*
X196758371Y-84256885D02*
X196686942Y-84114028D01*
X196615514Y-84042600D01*
X196472657Y-83971171D01*
X196329800Y-83971171D01*
X196044085Y-83971171D02*
X195472657Y-83971171D01*
X195829800Y-83471171D02*
X195829800Y-84756885D01*
X195758371Y-84899742D01*
X195615514Y-84971171D01*
X195472657Y-84971171D01*
X194972657Y-83971171D02*
X194972657Y-84971171D01*
X194972657Y-84114028D02*
X194901228Y-84042600D01*
X194758371Y-83971171D01*
X194544085Y-83971171D01*
X194401228Y-84042600D01*
X194329800Y-84185457D01*
X194329800Y-84971171D01*
X193044085Y-84899742D02*
X193186942Y-84971171D01*
X193472657Y-84971171D01*
X193615514Y-84899742D01*
X193686942Y-84756885D01*
X193686942Y-84185457D01*
X193615514Y-84042600D01*
X193472657Y-83971171D01*
X193186942Y-83971171D01*
X193044085Y-84042600D01*
X192972657Y-84185457D01*
X192972657Y-84328314D01*
X193686942Y-84471171D01*
X192329800Y-84971171D02*
X192329800Y-83971171D01*
X192329800Y-84256885D02*
X192258371Y-84114028D01*
X192186942Y-84042600D01*
X192044085Y-83971171D01*
X191901228Y-83971171D01*
X212401228Y-87449742D02*
X212186942Y-87521171D01*
X211829800Y-87521171D01*
X211686942Y-87449742D01*
X211615514Y-87378314D01*
X211544085Y-87235457D01*
X211544085Y-87092600D01*
X211615514Y-86949742D01*
X211686942Y-86878314D01*
X211829800Y-86806885D01*
X212115514Y-86735457D01*
X212258371Y-86664028D01*
X212329800Y-86592600D01*
X212401228Y-86449742D01*
X212401228Y-86306885D01*
X212329800Y-86164028D01*
X212258371Y-86092600D01*
X212115514Y-86021171D01*
X211758371Y-86021171D01*
X211544085Y-86092600D01*
X211044085Y-86521171D02*
X210758371Y-87521171D01*
X210472657Y-86806885D01*
X210186942Y-87521171D01*
X209901228Y-86521171D01*
X209329800Y-87521171D02*
X209329800Y-86521171D01*
X209329800Y-86021171D02*
X209401228Y-86092600D01*
X209329800Y-86164028D01*
X209258371Y-86092600D01*
X209329800Y-86021171D01*
X209329800Y-86164028D01*
X208686942Y-87449742D02*
X208544085Y-87521171D01*
X208258371Y-87521171D01*
X208115514Y-87449742D01*
X208044085Y-87306885D01*
X208044085Y-87235457D01*
X208115514Y-87092600D01*
X208258371Y-87021171D01*
X208472657Y-87021171D01*
X208615514Y-86949742D01*
X208686942Y-86806885D01*
X208686942Y-86735457D01*
X208615514Y-86592600D01*
X208472657Y-86521171D01*
X208258371Y-86521171D01*
X208115514Y-86592600D01*
X207472657Y-87449742D02*
X207329800Y-87521171D01*
X207044085Y-87521171D01*
X206901228Y-87449742D01*
X206829800Y-87306885D01*
X206829800Y-87235457D01*
X206901228Y-87092600D01*
X207044085Y-87021171D01*
X207258371Y-87021171D01*
X207401228Y-86949742D01*
X207472657Y-86806885D01*
X207472657Y-86735457D01*
X207401228Y-86592600D01*
X207258371Y-86521171D01*
X207044085Y-86521171D01*
X206901228Y-86592600D01*
X206258371Y-87449742D02*
X206044085Y-87521171D01*
X205686942Y-87521171D01*
X205544085Y-87449742D01*
X205472657Y-87378314D01*
X205401228Y-87235457D01*
X205401228Y-87092600D01*
X205472657Y-86949742D01*
X205544085Y-86878314D01*
X205686942Y-86806885D01*
X205972657Y-86735457D01*
X206115514Y-86664028D01*
X206186942Y-86592600D01*
X206258371Y-86449742D01*
X206258371Y-86306885D01*
X206186942Y-86164028D01*
X206115514Y-86092600D01*
X205972657Y-86021171D01*
X205615514Y-86021171D01*
X205401228Y-86092600D01*
X204758371Y-87521171D02*
X204758371Y-86021171D01*
X204615514Y-86949742D02*
X204186942Y-87521171D01*
X204186942Y-86521171D02*
X204758371Y-87092600D01*
X203544085Y-87521171D02*
X203544085Y-86521171D01*
X203544085Y-86021171D02*
X203615514Y-86092600D01*
X203544085Y-86164028D01*
X203472657Y-86092600D01*
X203544085Y-86021171D01*
X203544085Y-86164028D01*
X202615514Y-87521171D02*
X202758371Y-87449742D01*
X202829800Y-87306885D01*
X202829800Y-86021171D01*
X201829800Y-87521171D02*
X201972657Y-87449742D01*
X202044085Y-87306885D01*
X202044085Y-86021171D01*
X201329800Y-87449742D02*
X201186942Y-87521171D01*
X200901228Y-87521171D01*
X200758371Y-87449742D01*
X200686942Y-87306885D01*
X200686942Y-87235457D01*
X200758371Y-87092600D01*
X200901228Y-87021171D01*
X201115514Y-87021171D01*
X201258371Y-86949742D01*
X201329800Y-86806885D01*
X201329800Y-86735457D01*
X201258371Y-86592600D01*
X201115514Y-86521171D01*
X200901228Y-86521171D01*
X200758371Y-86592600D01*
X198901228Y-87521171D02*
X198901228Y-86021171D01*
X198901228Y-86735457D02*
X198044085Y-86735457D01*
X198044085Y-87521171D02*
X198044085Y-86021171D01*
X197115514Y-87521171D02*
X197258371Y-87449742D01*
X197329800Y-87378314D01*
X197401228Y-87235457D01*
X197401228Y-86806885D01*
X197329800Y-86664028D01*
X197258371Y-86592600D01*
X197115514Y-86521171D01*
X196901228Y-86521171D01*
X196758371Y-86592600D01*
X196686942Y-86664028D01*
X196615514Y-86806885D01*
X196615514Y-87235457D01*
X196686942Y-87378314D01*
X196758371Y-87449742D01*
X196901228Y-87521171D01*
X197115514Y-87521171D01*
X195972657Y-87521171D02*
X195972657Y-86521171D01*
X195972657Y-86664028D02*
X195901228Y-86592600D01*
X195758371Y-86521171D01*
X195544085Y-86521171D01*
X195401228Y-86592600D01*
X195329800Y-86735457D01*
X195329800Y-87521171D01*
X195329800Y-86735457D02*
X195258371Y-86592600D01*
X195115514Y-86521171D01*
X194901228Y-86521171D01*
X194758371Y-86592600D01*
X194686942Y-86735457D01*
X194686942Y-87521171D01*
X193401228Y-87449742D02*
X193544085Y-87521171D01*
X193829800Y-87521171D01*
X193972657Y-87449742D01*
X194044085Y-87306885D01*
X194044085Y-86735457D01*
X193972657Y-86592600D01*
X193829800Y-86521171D01*
X193544085Y-86521171D01*
X193401228Y-86592600D01*
X193329800Y-86735457D01*
X193329800Y-86878314D01*
X194044085Y-87021171D01*
X192829800Y-86521171D02*
X192544085Y-87521171D01*
X192258371Y-86806885D01*
X191972657Y-87521171D01*
X191686942Y-86521171D01*
X190901228Y-87521171D02*
X191044085Y-87449742D01*
X191115514Y-87378314D01*
X191186942Y-87235457D01*
X191186942Y-86806885D01*
X191115514Y-86664028D01*
X191044085Y-86592600D01*
X190901228Y-86521171D01*
X190686942Y-86521171D01*
X190544085Y-86592600D01*
X190472657Y-86664028D01*
X190401228Y-86806885D01*
X190401228Y-87235457D01*
X190472657Y-87378314D01*
X190544085Y-87449742D01*
X190686942Y-87521171D01*
X190901228Y-87521171D01*
X189758371Y-87521171D02*
X189758371Y-86521171D01*
X189758371Y-86806885D02*
X189686942Y-86664028D01*
X189615514Y-86592600D01*
X189472657Y-86521171D01*
X189329800Y-86521171D01*
X188829800Y-87521171D02*
X188829800Y-86021171D01*
X188686942Y-86949742D02*
X188258371Y-87521171D01*
X188258371Y-86521171D02*
X188829800Y-87092600D01*
X202901228Y-88714028D02*
X202829800Y-88642600D01*
X202686942Y-88571171D01*
X202329800Y-88571171D01*
X202186942Y-88642600D01*
X202115514Y-88714028D01*
X202044085Y-88856885D01*
X202044085Y-88999742D01*
X202115514Y-89214028D01*
X202972657Y-90071171D01*
X202044085Y-90071171D01*
X201115514Y-88571171D02*
X200972657Y-88571171D01*
X200829800Y-88642600D01*
X200758371Y-88714028D01*
X200686942Y-88856885D01*
X200615514Y-89142600D01*
X200615514Y-89499742D01*
X200686942Y-89785457D01*
X200758371Y-89928314D01*
X200829800Y-89999742D01*
X200972657Y-90071171D01*
X201115514Y-90071171D01*
X201258371Y-89999742D01*
X201329800Y-89928314D01*
X201401228Y-89785457D01*
X201472657Y-89499742D01*
X201472657Y-89142600D01*
X201401228Y-88856885D01*
X201329800Y-88714028D01*
X201258371Y-88642600D01*
X201115514Y-88571171D01*
X200044085Y-88714028D02*
X199972657Y-88642600D01*
X199829800Y-88571171D01*
X199472657Y-88571171D01*
X199329800Y-88642600D01*
X199258371Y-88714028D01*
X199186942Y-88856885D01*
X199186942Y-88999742D01*
X199258371Y-89214028D01*
X200115514Y-90071171D01*
X199186942Y-90071171D01*
X198258371Y-88571171D02*
X198115514Y-88571171D01*
X197972657Y-88642600D01*
X197901228Y-88714028D01*
X197829800Y-88856885D01*
X197758371Y-89142600D01*
X197758371Y-89499742D01*
X197829800Y-89785457D01*
X197901228Y-89928314D01*
X197972657Y-89999742D01*
X198115514Y-90071171D01*
X198258371Y-90071171D01*
X198401228Y-89999742D01*
X198472657Y-89928314D01*
X198544085Y-89785457D01*
X198615514Y-89499742D01*
X198615514Y-89142600D01*
X198544085Y-88856885D01*
X198472657Y-88714028D01*
X198401228Y-88642600D01*
X198258371Y-88571171D01*
D11*
X201610000Y-98865000D02*
X201610000Y-98390000D01*
X201610000Y-98390000D02*
X201135000Y-98390000D01*
X198390000Y-101135000D02*
X198390000Y-101610000D01*
X198390000Y-101610000D02*
X198865000Y-101610000D01*
X198390000Y-98865000D02*
X198390000Y-98390000D01*
X198390000Y-98390000D02*
X198865000Y-98390000D01*
X201610000Y-101135000D02*
X201610000Y-101610000D01*
X206349939Y-106566280D02*
X206613320Y-106374922D01*
X206949480Y-107391478D02*
X207212861Y-107200120D01*
X201424000Y-108549221D02*
X201424000Y-108874779D01*
X200404000Y-108549221D02*
X200404000Y-108874779D01*
X202626500Y-98579721D02*
X202626500Y-98905279D01*
X203646500Y-98579721D02*
X203646500Y-98905279D01*
X202275221Y-102360000D02*
X202600779Y-102360000D01*
X202275221Y-103380000D02*
X202600779Y-103380000D01*
X199753760Y-104190581D02*
X199753760Y-104516139D01*
X200773760Y-104190581D02*
X200773760Y-104516139D01*
X204695000Y-113818000D02*
X204695000Y-122118000D01*
X204695000Y-122118000D02*
X195305000Y-122118000D01*
X195305000Y-122118000D02*
X195305000Y-113818000D01*
X204695000Y-113818000D02*
X195305000Y-113818000D01*
X199192000Y-106932000D02*
X198262000Y-106932000D01*
X196032000Y-106932000D02*
X196962000Y-106932000D01*
X196032000Y-106932000D02*
X196032000Y-104772000D01*
X199192000Y-106932000D02*
X199192000Y-105472000D01*
X195636000Y-105408000D02*
X194706000Y-105408000D01*
X192476000Y-105408000D02*
X193406000Y-105408000D01*
X192476000Y-105408000D02*
X192476000Y-103248000D01*
X195636000Y-105408000D02*
X195636000Y-103948000D01*
X193893221Y-101090000D02*
X194218779Y-101090000D01*
X193893221Y-102110000D02*
X194218779Y-102110000D01*
X197449221Y-103634000D02*
X197774779Y-103634000D01*
X197449221Y-102614000D02*
X197774779Y-102614000D01*
X205288000Y-109726000D02*
X205288000Y-108266000D01*
X202128000Y-109726000D02*
X202128000Y-107566000D01*
X202128000Y-109726000D02*
X203058000Y-109726000D01*
X205288000Y-109726000D02*
X204358000Y-109726000D01*
X199588000Y-94744000D02*
X199588000Y-96204000D01*
X202748000Y-94744000D02*
X202748000Y-96904000D01*
X202748000Y-94744000D02*
X201818000Y-94744000D01*
X199588000Y-94744000D02*
X200518000Y-94744000D01*
X195905000Y-94744000D02*
X196835000Y-94744000D01*
X199065000Y-94744000D02*
X198135000Y-94744000D01*
X199065000Y-94744000D02*
X199065000Y-96904000D01*
X195905000Y-94744000D02*
X195905000Y-96204000D01*
X197901779Y-93347000D02*
X197576221Y-93347000D01*
X197901779Y-92327000D02*
X197576221Y-92327000D01*
X200751221Y-93347000D02*
X201076779Y-93347000D01*
X200751221Y-92327000D02*
X201076779Y-92327000D01*
D12*
X206031885Y-101001580D02*
X206031885Y-101811104D01*
X205984266Y-101906342D01*
X205936647Y-101953961D01*
X205841409Y-102001580D01*
X205650933Y-102001580D01*
X205555695Y-101953961D01*
X205508076Y-101906342D01*
X205460457Y-101811104D01*
X205460457Y-101001580D01*
X204460457Y-102001580D02*
X205031885Y-102001580D01*
X204746171Y-102001580D02*
X204746171Y-101001580D01*
X204841409Y-101144438D01*
X204936647Y-101239676D01*
X205031885Y-101287295D01*
X203841409Y-101001580D02*
X203746171Y-101001580D01*
X203650933Y-101049200D01*
X203603314Y-101096819D01*
X203555695Y-101192057D01*
X203508076Y-101382533D01*
X203508076Y-101620628D01*
X203555695Y-101811104D01*
X203603314Y-101906342D01*
X203650933Y-101953961D01*
X203746171Y-102001580D01*
X203841409Y-102001580D01*
X203936647Y-101953961D01*
X203984266Y-101906342D01*
X204031885Y-101811104D01*
X204079504Y-101620628D01*
X204079504Y-101382533D01*
X204031885Y-101192057D01*
X203984266Y-101096819D01*
X203936647Y-101049200D01*
X203841409Y-101001580D01*
X202650933Y-101334914D02*
X202650933Y-102001580D01*
X202889028Y-100953961D02*
X203127123Y-101668247D01*
X202508076Y-101668247D01*
X208315451Y-104506774D02*
X208381966Y-104517309D01*
X208525529Y-104471865D01*
X208602579Y-104415885D01*
X208690163Y-104293391D01*
X208711232Y-104160362D01*
X208693777Y-104055323D01*
X208620343Y-103873235D01*
X208536374Y-103757661D01*
X208385890Y-103631553D01*
X208291386Y-103582493D01*
X208158357Y-103561423D01*
X208014793Y-103606868D01*
X207937744Y-103662848D01*
X207850160Y-103785342D01*
X207839625Y-103851856D01*
X207600939Y-105143619D02*
X208063234Y-104807742D01*
X207832086Y-104975681D02*
X207244301Y-104166664D01*
X207405320Y-104226258D01*
X207538348Y-104247328D01*
X207643387Y-104229873D01*
X206512333Y-104698469D02*
X206435284Y-104754449D01*
X206386225Y-104848953D01*
X206375690Y-104915467D01*
X206393145Y-105020506D01*
X206466579Y-105202595D01*
X206606528Y-105395218D01*
X206757012Y-105521326D01*
X206851516Y-105570386D01*
X206918030Y-105580921D01*
X207023069Y-105563466D01*
X207100118Y-105507486D01*
X207149178Y-105412982D01*
X207159713Y-105346468D01*
X207142258Y-105241429D01*
X207068823Y-105059340D01*
X206928875Y-104866717D01*
X206778391Y-104740609D01*
X206683887Y-104691549D01*
X206617372Y-104681014D01*
X206512333Y-104698469D01*
X205549218Y-105398214D02*
X205703316Y-105286254D01*
X205808355Y-105268800D01*
X205874870Y-105279334D01*
X206035888Y-105338929D01*
X206186372Y-105465037D01*
X206410290Y-105773234D01*
X206427745Y-105878273D01*
X206417210Y-105944788D01*
X206368151Y-106039292D01*
X206214052Y-106151251D01*
X206109013Y-106168706D01*
X206042499Y-106158171D01*
X205947995Y-106109112D01*
X205808046Y-105916489D01*
X205790591Y-105811450D01*
X205801126Y-105744935D01*
X205850185Y-105650431D01*
X206004284Y-105538472D01*
X206109323Y-105521017D01*
X206175837Y-105531552D01*
X206270341Y-105580611D01*
X199112047Y-109958142D02*
X199159666Y-110005761D01*
X199302523Y-110053380D01*
X199397761Y-110053380D01*
X199540619Y-110005761D01*
X199635857Y-109910523D01*
X199683476Y-109815285D01*
X199731095Y-109624809D01*
X199731095Y-109481952D01*
X199683476Y-109291476D01*
X199635857Y-109196238D01*
X199540619Y-109101000D01*
X199397761Y-109053380D01*
X199302523Y-109053380D01*
X199159666Y-109101000D01*
X199112047Y-109148619D01*
X198159666Y-110053380D02*
X198731095Y-110053380D01*
X198445380Y-110053380D02*
X198445380Y-109053380D01*
X198540619Y-109196238D01*
X198635857Y-109291476D01*
X198731095Y-109339095D01*
X197540619Y-109053380D02*
X197445380Y-109053380D01*
X197350142Y-109101000D01*
X197302523Y-109148619D01*
X197254904Y-109243857D01*
X197207285Y-109434333D01*
X197207285Y-109672428D01*
X197254904Y-109862904D01*
X197302523Y-109958142D01*
X197350142Y-110005761D01*
X197445380Y-110053380D01*
X197540619Y-110053380D01*
X197635857Y-110005761D01*
X197683476Y-109958142D01*
X197731095Y-109862904D01*
X197778714Y-109672428D01*
X197778714Y-109434333D01*
X197731095Y-109243857D01*
X197683476Y-109148619D01*
X197635857Y-109101000D01*
X197540619Y-109053380D01*
X196873952Y-109053380D02*
X196207285Y-109053380D01*
X196635857Y-110053380D01*
X204700142Y-97001152D02*
X204747761Y-96953533D01*
X204795380Y-96810676D01*
X204795380Y-96715438D01*
X204747761Y-96572580D01*
X204652523Y-96477342D01*
X204557285Y-96429723D01*
X204366809Y-96382104D01*
X204223952Y-96382104D01*
X204033476Y-96429723D01*
X203938238Y-96477342D01*
X203843000Y-96572580D01*
X203795380Y-96715438D01*
X203795380Y-96810676D01*
X203843000Y-96953533D01*
X203890619Y-97001152D01*
X204795380Y-97953533D02*
X204795380Y-97382104D01*
X204795380Y-97667819D02*
X203795380Y-97667819D01*
X203938238Y-97572580D01*
X204033476Y-97477342D01*
X204081095Y-97382104D01*
X203890619Y-98334485D02*
X203843000Y-98382104D01*
X203795380Y-98477342D01*
X203795380Y-98715438D01*
X203843000Y-98810676D01*
X203890619Y-98858295D01*
X203985857Y-98905914D01*
X204081095Y-98905914D01*
X204223952Y-98858295D01*
X204795380Y-98286866D01*
X204795380Y-98905914D01*
X204128714Y-99763057D02*
X204795380Y-99763057D01*
X203747761Y-99524961D02*
X204462047Y-99286866D01*
X204462047Y-99905914D01*
X208052847Y-103557342D02*
X208100466Y-103604961D01*
X208243323Y-103652580D01*
X208338561Y-103652580D01*
X208481419Y-103604961D01*
X208576657Y-103509723D01*
X208624276Y-103414485D01*
X208671895Y-103224009D01*
X208671895Y-103081152D01*
X208624276Y-102890676D01*
X208576657Y-102795438D01*
X208481419Y-102700200D01*
X208338561Y-102652580D01*
X208243323Y-102652580D01*
X208100466Y-102700200D01*
X208052847Y-102747819D01*
X207100466Y-103652580D02*
X207671895Y-103652580D01*
X207386180Y-103652580D02*
X207386180Y-102652580D01*
X207481419Y-102795438D01*
X207576657Y-102890676D01*
X207671895Y-102938295D01*
X206719514Y-102747819D02*
X206671895Y-102700200D01*
X206576657Y-102652580D01*
X206338561Y-102652580D01*
X206243323Y-102700200D01*
X206195704Y-102747819D01*
X206148085Y-102843057D01*
X206148085Y-102938295D01*
X206195704Y-103081152D01*
X206767133Y-103652580D01*
X206148085Y-103652580D01*
X205243323Y-102652580D02*
X205719514Y-102652580D01*
X205767133Y-103128771D01*
X205719514Y-103081152D01*
X205624276Y-103033533D01*
X205386180Y-103033533D01*
X205290942Y-103081152D01*
X205243323Y-103128771D01*
X205195704Y-103224009D01*
X205195704Y-103462104D01*
X205243323Y-103557342D01*
X205290942Y-103604961D01*
X205386180Y-103652580D01*
X205624276Y-103652580D01*
X205719514Y-103604961D01*
X205767133Y-103557342D01*
X203836447Y-104674942D02*
X203884066Y-104722561D01*
X204026923Y-104770180D01*
X204122161Y-104770180D01*
X204265019Y-104722561D01*
X204360257Y-104627323D01*
X204407876Y-104532085D01*
X204455495Y-104341609D01*
X204455495Y-104198752D01*
X204407876Y-104008276D01*
X204360257Y-103913038D01*
X204265019Y-103817800D01*
X204122161Y-103770180D01*
X204026923Y-103770180D01*
X203884066Y-103817800D01*
X203836447Y-103865419D01*
X202884066Y-104770180D02*
X203455495Y-104770180D01*
X203169780Y-104770180D02*
X203169780Y-103770180D01*
X203265019Y-103913038D01*
X203360257Y-104008276D01*
X203455495Y-104055895D01*
X202503114Y-103865419D02*
X202455495Y-103817800D01*
X202360257Y-103770180D01*
X202122161Y-103770180D01*
X202026923Y-103817800D01*
X201979304Y-103865419D01*
X201931685Y-103960657D01*
X201931685Y-104055895D01*
X201979304Y-104198752D01*
X202550733Y-104770180D01*
X201931685Y-104770180D01*
X201074542Y-103770180D02*
X201265019Y-103770180D01*
X201360257Y-103817800D01*
X201407876Y-103865419D01*
X201503114Y-104008276D01*
X201550733Y-104198752D01*
X201550733Y-104579704D01*
X201503114Y-104674942D01*
X201455495Y-104722561D01*
X201360257Y-104770180D01*
X201169780Y-104770180D01*
X201074542Y-104722561D01*
X201026923Y-104674942D01*
X200979304Y-104579704D01*
X200979304Y-104341609D01*
X201026923Y-104246371D01*
X201074542Y-104198752D01*
X201169780Y-104151133D01*
X201360257Y-104151133D01*
X201455495Y-104198752D01*
X201503114Y-104246371D01*
X201550733Y-104341609D01*
X201285714Y-112101380D02*
X201285714Y-112815666D01*
X201333333Y-112958523D01*
X201428571Y-113053761D01*
X201571428Y-113101380D01*
X201666666Y-113101380D01*
X200285714Y-113101380D02*
X200857142Y-113101380D01*
X200571428Y-113101380D02*
X200571428Y-112101380D01*
X200666666Y-112244238D01*
X200761904Y-112339476D01*
X200857142Y-112387095D01*
X199666666Y-112101380D02*
X199571428Y-112101380D01*
X199476190Y-112149000D01*
X199428571Y-112196619D01*
X199380952Y-112291857D01*
X199333333Y-112482333D01*
X199333333Y-112720428D01*
X199380952Y-112910904D01*
X199428571Y-113006142D01*
X199476190Y-113053761D01*
X199571428Y-113101380D01*
X199666666Y-113101380D01*
X199761904Y-113053761D01*
X199809523Y-113006142D01*
X199857142Y-112910904D01*
X199904761Y-112720428D01*
X199904761Y-112482333D01*
X199857142Y-112291857D01*
X199809523Y-112196619D01*
X199761904Y-112149000D01*
X199666666Y-112101380D01*
X198380952Y-113101380D02*
X198952380Y-113101380D01*
X198666666Y-113101380D02*
X198666666Y-112101380D01*
X198761904Y-112244238D01*
X198857142Y-112339476D01*
X198952380Y-112387095D01*
X195027419Y-107964219D02*
X195122657Y-107916600D01*
X195217895Y-107821361D01*
X195360752Y-107678504D01*
X195455990Y-107630885D01*
X195551228Y-107630885D01*
X195503609Y-107868980D02*
X195598847Y-107821361D01*
X195694085Y-107726123D01*
X195741704Y-107535647D01*
X195741704Y-107202314D01*
X195694085Y-107011838D01*
X195598847Y-106916600D01*
X195503609Y-106868980D01*
X195313133Y-106868980D01*
X195217895Y-106916600D01*
X195122657Y-107011838D01*
X195075038Y-107202314D01*
X195075038Y-107535647D01*
X195122657Y-107726123D01*
X195217895Y-107821361D01*
X195313133Y-107868980D01*
X195503609Y-107868980D01*
X194122657Y-107868980D02*
X194694085Y-107868980D01*
X194408371Y-107868980D02*
X194408371Y-106868980D01*
X194503609Y-107011838D01*
X194598847Y-107107076D01*
X194694085Y-107154695D01*
X193503609Y-106868980D02*
X193408371Y-106868980D01*
X193313133Y-106916600D01*
X193265514Y-106964219D01*
X193217895Y-107059457D01*
X193170276Y-107249933D01*
X193170276Y-107488028D01*
X193217895Y-107678504D01*
X193265514Y-107773742D01*
X193313133Y-107821361D01*
X193408371Y-107868980D01*
X193503609Y-107868980D01*
X193598847Y-107821361D01*
X193646466Y-107773742D01*
X193694085Y-107678504D01*
X193741704Y-107488028D01*
X193741704Y-107249933D01*
X193694085Y-107059457D01*
X193646466Y-106964219D01*
X193598847Y-106916600D01*
X193503609Y-106868980D01*
X192789323Y-106964219D02*
X192741704Y-106916600D01*
X192646466Y-106868980D01*
X192408371Y-106868980D01*
X192313133Y-106916600D01*
X192265514Y-106964219D01*
X192217895Y-107059457D01*
X192217895Y-107154695D01*
X192265514Y-107297552D01*
X192836942Y-107868980D01*
X192217895Y-107868980D01*
X191420619Y-105119419D02*
X191515857Y-105071800D01*
X191611095Y-104976561D01*
X191753952Y-104833704D01*
X191849190Y-104786085D01*
X191944428Y-104786085D01*
X191896809Y-105024180D02*
X191992047Y-104976561D01*
X192087285Y-104881323D01*
X192134904Y-104690847D01*
X192134904Y-104357514D01*
X192087285Y-104167038D01*
X191992047Y-104071800D01*
X191896809Y-104024180D01*
X191706333Y-104024180D01*
X191611095Y-104071800D01*
X191515857Y-104167038D01*
X191468238Y-104357514D01*
X191468238Y-104690847D01*
X191515857Y-104881323D01*
X191611095Y-104976561D01*
X191706333Y-105024180D01*
X191896809Y-105024180D01*
X190515857Y-105024180D02*
X191087285Y-105024180D01*
X190801571Y-105024180D02*
X190801571Y-104024180D01*
X190896809Y-104167038D01*
X190992047Y-104262276D01*
X191087285Y-104309895D01*
X189896809Y-104024180D02*
X189801571Y-104024180D01*
X189706333Y-104071800D01*
X189658714Y-104119419D01*
X189611095Y-104214657D01*
X189563476Y-104405133D01*
X189563476Y-104643228D01*
X189611095Y-104833704D01*
X189658714Y-104928942D01*
X189706333Y-104976561D01*
X189801571Y-105024180D01*
X189896809Y-105024180D01*
X189992047Y-104976561D01*
X190039666Y-104928942D01*
X190087285Y-104833704D01*
X190134904Y-104643228D01*
X190134904Y-104405133D01*
X190087285Y-104214657D01*
X190039666Y-104119419D01*
X189992047Y-104071800D01*
X189896809Y-104024180D01*
X189230142Y-104024180D02*
X188611095Y-104024180D01*
X188944428Y-104405133D01*
X188801571Y-104405133D01*
X188706333Y-104452752D01*
X188658714Y-104500371D01*
X188611095Y-104595609D01*
X188611095Y-104833704D01*
X188658714Y-104928942D01*
X188706333Y-104976561D01*
X188801571Y-105024180D01*
X189087285Y-105024180D01*
X189182523Y-104976561D01*
X189230142Y-104928942D01*
X191517447Y-103970080D02*
X191850780Y-103493890D01*
X192088876Y-103970080D02*
X192088876Y-102970080D01*
X191707923Y-102970080D01*
X191612685Y-103017700D01*
X191565066Y-103065319D01*
X191517447Y-103160557D01*
X191517447Y-103303414D01*
X191565066Y-103398652D01*
X191612685Y-103446271D01*
X191707923Y-103493890D01*
X192088876Y-103493890D01*
X190565066Y-103970080D02*
X191136495Y-103970080D01*
X190850780Y-103970080D02*
X190850780Y-102970080D01*
X190946019Y-103112938D01*
X191041257Y-103208176D01*
X191136495Y-103255795D01*
X189946019Y-102970080D02*
X189850780Y-102970080D01*
X189755542Y-103017700D01*
X189707923Y-103065319D01*
X189660304Y-103160557D01*
X189612685Y-103351033D01*
X189612685Y-103589128D01*
X189660304Y-103779604D01*
X189707923Y-103874842D01*
X189755542Y-103922461D01*
X189850780Y-103970080D01*
X189946019Y-103970080D01*
X190041257Y-103922461D01*
X190088876Y-103874842D01*
X190136495Y-103779604D01*
X190184114Y-103589128D01*
X190184114Y-103351033D01*
X190136495Y-103160557D01*
X190088876Y-103065319D01*
X190041257Y-103017700D01*
X189946019Y-102970080D01*
X189279352Y-102970080D02*
X188660304Y-102970080D01*
X188993638Y-103351033D01*
X188850780Y-103351033D01*
X188755542Y-103398652D01*
X188707923Y-103446271D01*
X188660304Y-103541509D01*
X188660304Y-103779604D01*
X188707923Y-103874842D01*
X188755542Y-103922461D01*
X188850780Y-103970080D01*
X189136495Y-103970080D01*
X189231733Y-103922461D01*
X189279352Y-103874842D01*
X197861180Y-98233052D02*
X197384990Y-97899719D01*
X197861180Y-97661623D02*
X196861180Y-97661623D01*
X196861180Y-98042576D01*
X196908800Y-98137814D01*
X196956419Y-98185433D01*
X197051657Y-98233052D01*
X197194514Y-98233052D01*
X197289752Y-98185433D01*
X197337371Y-98137814D01*
X197384990Y-98042576D01*
X197384990Y-97661623D01*
X197861180Y-99185433D02*
X197861180Y-98614004D01*
X197861180Y-98899719D02*
X196861180Y-98899719D01*
X197004038Y-98804480D01*
X197099276Y-98709242D01*
X197146895Y-98614004D01*
X196861180Y-99804480D02*
X196861180Y-99899719D01*
X196908800Y-99994957D01*
X196956419Y-100042576D01*
X197051657Y-100090195D01*
X197242133Y-100137814D01*
X197480228Y-100137814D01*
X197670704Y-100090195D01*
X197765942Y-100042576D01*
X197813561Y-99994957D01*
X197861180Y-99899719D01*
X197861180Y-99804480D01*
X197813561Y-99709242D01*
X197765942Y-99661623D01*
X197670704Y-99614004D01*
X197480228Y-99566385D01*
X197242133Y-99566385D01*
X197051657Y-99614004D01*
X196956419Y-99661623D01*
X196908800Y-99709242D01*
X196861180Y-99804480D01*
X197194514Y-100994957D02*
X197861180Y-100994957D01*
X196813561Y-100756861D02*
X197527847Y-100518766D01*
X197527847Y-101137814D01*
X205396885Y-111542580D02*
X205396885Y-112352104D01*
X205349266Y-112447342D01*
X205301647Y-112494961D01*
X205206409Y-112542580D01*
X205015933Y-112542580D01*
X204920695Y-112494961D01*
X204873076Y-112447342D01*
X204825457Y-112352104D01*
X204825457Y-111542580D01*
X203825457Y-112542580D02*
X204396885Y-112542580D01*
X204111171Y-112542580D02*
X204111171Y-111542580D01*
X204206409Y-111685438D01*
X204301647Y-111780676D01*
X204396885Y-111828295D01*
X203206409Y-111542580D02*
X203111171Y-111542580D01*
X203015933Y-111590200D01*
X202968314Y-111637819D01*
X202920695Y-111733057D01*
X202873076Y-111923533D01*
X202873076Y-112161628D01*
X202920695Y-112352104D01*
X202968314Y-112447342D01*
X203015933Y-112494961D01*
X203111171Y-112542580D01*
X203206409Y-112542580D01*
X203301647Y-112494961D01*
X203349266Y-112447342D01*
X203396885Y-112352104D01*
X203444504Y-112161628D01*
X203444504Y-111923533D01*
X203396885Y-111733057D01*
X203349266Y-111637819D01*
X203301647Y-111590200D01*
X203206409Y-111542580D01*
X201920695Y-112542580D02*
X202492123Y-112542580D01*
X202206409Y-112542580D02*
X202206409Y-111542580D01*
X202301647Y-111685438D01*
X202396885Y-111780676D01*
X202492123Y-111828295D01*
X204890619Y-92602180D02*
X204843000Y-92506942D01*
X204747761Y-92411704D01*
X204604904Y-92268847D01*
X204557285Y-92173609D01*
X204557285Y-92078371D01*
X204795380Y-92125990D02*
X204747761Y-92030752D01*
X204652523Y-91935514D01*
X204462047Y-91887895D01*
X204128714Y-91887895D01*
X203938238Y-91935514D01*
X203843000Y-92030752D01*
X203795380Y-92125990D01*
X203795380Y-92316466D01*
X203843000Y-92411704D01*
X203938238Y-92506942D01*
X204128714Y-92554561D01*
X204462047Y-92554561D01*
X204652523Y-92506942D01*
X204747761Y-92411704D01*
X204795380Y-92316466D01*
X204795380Y-92125990D01*
X204795380Y-93506942D02*
X204795380Y-92935514D01*
X204795380Y-93221228D02*
X203795380Y-93221228D01*
X203938238Y-93125990D01*
X204033476Y-93030752D01*
X204081095Y-92935514D01*
X203795380Y-94125990D02*
X203795380Y-94221228D01*
X203843000Y-94316466D01*
X203890619Y-94364085D01*
X203985857Y-94411704D01*
X204176333Y-94459323D01*
X204414428Y-94459323D01*
X204604904Y-94411704D01*
X204700142Y-94364085D01*
X204747761Y-94316466D01*
X204795380Y-94221228D01*
X204795380Y-94125990D01*
X204747761Y-94030752D01*
X204700142Y-93983133D01*
X204604904Y-93935514D01*
X204414428Y-93887895D01*
X204176333Y-93887895D01*
X203985857Y-93935514D01*
X203890619Y-93983133D01*
X203843000Y-94030752D01*
X203795380Y-94125990D01*
X204128714Y-95316466D02*
X204795380Y-95316466D01*
X203747761Y-95078371D02*
X204462047Y-94840276D01*
X204462047Y-95459323D01*
X196330819Y-91713180D02*
X196283200Y-91617942D01*
X196187961Y-91522704D01*
X196045104Y-91379847D01*
X195997485Y-91284609D01*
X195997485Y-91189371D01*
X196235580Y-91236990D02*
X196187961Y-91141752D01*
X196092723Y-91046514D01*
X195902247Y-90998895D01*
X195568914Y-90998895D01*
X195378438Y-91046514D01*
X195283200Y-91141752D01*
X195235580Y-91236990D01*
X195235580Y-91427466D01*
X195283200Y-91522704D01*
X195378438Y-91617942D01*
X195568914Y-91665561D01*
X195902247Y-91665561D01*
X196092723Y-91617942D01*
X196187961Y-91522704D01*
X196235580Y-91427466D01*
X196235580Y-91236990D01*
X196235580Y-92617942D02*
X196235580Y-92046514D01*
X196235580Y-92332228D02*
X195235580Y-92332228D01*
X195378438Y-92236990D01*
X195473676Y-92141752D01*
X195521295Y-92046514D01*
X195235580Y-93236990D02*
X195235580Y-93332228D01*
X195283200Y-93427466D01*
X195330819Y-93475085D01*
X195426057Y-93522704D01*
X195616533Y-93570323D01*
X195854628Y-93570323D01*
X196045104Y-93522704D01*
X196140342Y-93475085D01*
X196187961Y-93427466D01*
X196235580Y-93332228D01*
X196235580Y-93236990D01*
X196187961Y-93141752D01*
X196140342Y-93094133D01*
X196045104Y-93046514D01*
X195854628Y-92998895D01*
X195616533Y-92998895D01*
X195426057Y-93046514D01*
X195330819Y-93094133D01*
X195283200Y-93141752D01*
X195235580Y-93236990D01*
X195235580Y-94475085D02*
X195235580Y-93998895D01*
X195711771Y-93951276D01*
X195664152Y-93998895D01*
X195616533Y-94094133D01*
X195616533Y-94332228D01*
X195664152Y-94427466D01*
X195711771Y-94475085D01*
X195807009Y-94522704D01*
X196045104Y-94522704D01*
X196140342Y-94475085D01*
X196187961Y-94427466D01*
X196235580Y-94332228D01*
X196235580Y-94094133D01*
X196187961Y-93998895D01*
X196140342Y-93951276D01*
X199391447Y-91562180D02*
X199724780Y-91085990D01*
X199962876Y-91562180D02*
X199962876Y-90562180D01*
X199581923Y-90562180D01*
X199486685Y-90609800D01*
X199439066Y-90657419D01*
X199391447Y-90752657D01*
X199391447Y-90895514D01*
X199439066Y-90990752D01*
X199486685Y-91038371D01*
X199581923Y-91085990D01*
X199962876Y-91085990D01*
X198439066Y-91562180D02*
X199010495Y-91562180D01*
X198724780Y-91562180D02*
X198724780Y-90562180D01*
X198820019Y-90705038D01*
X198915257Y-90800276D01*
X199010495Y-90847895D01*
X197820019Y-90562180D02*
X197724780Y-90562180D01*
X197629542Y-90609800D01*
X197581923Y-90657419D01*
X197534304Y-90752657D01*
X197486685Y-90943133D01*
X197486685Y-91181228D01*
X197534304Y-91371704D01*
X197581923Y-91466942D01*
X197629542Y-91514561D01*
X197724780Y-91562180D01*
X197820019Y-91562180D01*
X197915257Y-91514561D01*
X197962876Y-91466942D01*
X198010495Y-91371704D01*
X198058114Y-91181228D01*
X198058114Y-90943133D01*
X198010495Y-90752657D01*
X197962876Y-90657419D01*
X197915257Y-90609800D01*
X197820019Y-90562180D01*
X197010495Y-91562180D02*
X196820019Y-91562180D01*
X196724780Y-91514561D01*
X196677161Y-91466942D01*
X196581923Y-91324085D01*
X196534304Y-91133609D01*
X196534304Y-90752657D01*
X196581923Y-90657419D01*
X196629542Y-90609800D01*
X196724780Y-90562180D01*
X196915257Y-90562180D01*
X197010495Y-90609800D01*
X197058114Y-90657419D01*
X197105733Y-90752657D01*
X197105733Y-90990752D01*
X197058114Y-91085990D01*
X197010495Y-91133609D01*
X196915257Y-91181228D01*
X196724780Y-91181228D01*
X196629542Y-91133609D01*
X196581923Y-91085990D01*
X196534304Y-90990752D01*
X203963447Y-91536780D02*
X204296780Y-91060590D01*
X204534876Y-91536780D02*
X204534876Y-90536780D01*
X204153923Y-90536780D01*
X204058685Y-90584400D01*
X204011066Y-90632019D01*
X203963447Y-90727257D01*
X203963447Y-90870114D01*
X204011066Y-90965352D01*
X204058685Y-91012971D01*
X204153923Y-91060590D01*
X204534876Y-91060590D01*
X203011066Y-91536780D02*
X203582495Y-91536780D01*
X203296780Y-91536780D02*
X203296780Y-90536780D01*
X203392019Y-90679638D01*
X203487257Y-90774876D01*
X203582495Y-90822495D01*
X202058685Y-91536780D02*
X202630114Y-91536780D01*
X202344400Y-91536780D02*
X202344400Y-90536780D01*
X202439638Y-90679638D01*
X202534876Y-90774876D01*
X202630114Y-90822495D01*
X201439638Y-90536780D02*
X201344400Y-90536780D01*
X201249161Y-90584400D01*
X201201542Y-90632019D01*
X201153923Y-90727257D01*
X201106304Y-90917733D01*
X201106304Y-91155828D01*
X201153923Y-91346304D01*
X201201542Y-91441542D01*
X201249161Y-91489161D01*
X201344400Y-91536780D01*
X201439638Y-91536780D01*
X201534876Y-91489161D01*
X201582495Y-91441542D01*
X201630114Y-91346304D01*
X201677733Y-91155828D01*
X201677733Y-90917733D01*
X201630114Y-90727257D01*
X201582495Y-90632019D01*
X201534876Y-90584400D01*
X201439638Y-90536780D01*
M02*
